<svg width="301" height="79" viewBox="0 0 301 79" fill="none" xmlns="http://www.w3.org/2000/svg">
<path d="M10.6438 26.5979L112.354 26.165L112.343 48.8443C94.3135 48.8606 63.7666 51.1059 52.406 49.0048C41.0454 46.9037 37.4398 46.6296 30.8484 46.7459L18.5229 57.7001C16.9864 58.171 15.4467 58.1791 13.9033 57.6351C-2.92969 49.9341 -4.08992 33.3153 10.6438 26.5979Z" fill="black"/>
<path d="M112.353 25.7871C112.453 25.7868 112.549 25.8266 112.62 25.8975C112.691 25.9684 112.732 26.0646 112.732 26.165L112.721 48.8447C112.721 49.053 112.552 49.2222 112.344 49.2227C103.335 49.2308 91.2072 49.7956 79.8839 50.0967C68.5863 50.3971 58.0647 50.4353 52.337 49.376C41.0719 47.2926 37.4638 47.0126 30.9933 47.1221L18.7736 57.9824C18.7331 58.0184 18.6857 58.0456 18.6339 58.0615C17.0261 58.5542 15.4028 58.5642 13.7775 57.9912C13.7669 57.9875 13.7565 57.9832 13.7462 57.9785C5.24501 54.0893 0.628119 47.9112 0.0596937 41.7822C-0.510223 35.6357 3.00339 29.666 10.4874 26.2539L10.5626 26.2285C10.5885 26.2228 10.6151 26.2199 10.6417 26.2197L112.353 25.7871ZM10.7296 26.9746C3.52977 30.2846 0.279495 35.9645 0.812623 41.7129C1.34886 47.4939 5.72322 53.4711 14.0441 57.2832C15.4751 57.7842 16.9007 57.7848 18.3351 57.3604L30.5978 46.4639L30.6515 46.4238C30.7086 46.3889 30.7742 46.3694 30.8419 46.3682C37.4667 46.2513 41.099 46.529 52.4747 48.6328C58.1076 49.6746 68.5401 49.6419 79.8634 49.3408C91.0041 49.0446 102.984 48.4909 111.965 48.4678L111.975 26.5439L10.7296 26.9746Z" fill="white"/>
<path fill-rule="evenodd" clip-rule="evenodd" d="M112.354 26.165C160.46 26.9561 269.677 26.6549 300.84 44.3442C256.86 86.2865 160.282 76.7284 112.388 78.9119L112.354 26.165Z" fill="#DDDDDE"/>
<path fill-rule="evenodd" clip-rule="evenodd" d="M112.354 26.165C160.46 26.9561 269.677 26.6549 300.84 44.3442C256.86 86.2865 160.282 76.7284 112.388 78.9119L112.354 26.165Z" fill="url(#paint0_linear_200_1550)"/>
<path d="M31.0019 42.4101C31.0019 42.2957 30.8222 41.8737 30.6026 41.4728C30.3829 41.0714 30.2745 40.4627 30.3624 40.1198C30.4769 39.6733 30.6532 39.8339 30.9866 40.6894C31.2926 41.4751 31.7034 41.8829 32.188 41.8829C32.8738 41.8829 32.8842 41.8249 32.3392 41.0668C31.5527 39.9696 31.6017 38.8264 32.4687 38.06C33.1475 37.4594 33.2222 37.4692 33.9721 38.2553C34.406 38.7104 34.7611 38.8771 34.7611 38.6253C34.7611 38.3139 35.2723 38.2044 36.3586 38.2803L37.956 38.3931V39.9321C37.956 41.5888 38.2377 42.0278 39.5495 42.4149C40.355 42.6525 40.3813 42.5928 40.1608 41.0206C39.9671 39.6404 40.0642 39.2404 40.7667 38.5182C41.2265 38.0457 42.0068 37.1498 42.5001 36.528C43.2459 35.5877 43.597 35.4262 44.5861 35.568C45.7492 35.7345 45.77 35.7128 45.5329 34.5541C45.3138 33.4846 45.3997 33.3293 46.4154 32.9548C47.5266 32.5447 47.981 31.8783 47.0704 31.9938C45.6331 32.1766 45.2362 31.9667 45.5019 31.1431C45.7431 30.4013 45.7059 30.371 45.1317 30.8372C44.7809 31.122 43.784 31.4734 42.9164 31.6185C42.0489 31.7639 40.0478 32.1377 38.4698 32.4497C36.4385 32.8511 34.957 32.9303 33.3959 32.722C30.5315 32.3385 29.4995 32.7112 29.4995 34.1285C29.4995 34.7211 29.1681 36.247 28.763 37.5187C28.0488 39.761 28.0485 40.7712 28.7625 39.6681C29.0248 39.2634 29.1139 39.3953 29.1182 40.2008C29.121 40.791 29.4037 41.5758 29.746 41.9451C30.3471 42.594 31.0019 42.8368 31.0019 42.4101Z" fill="white"/>
<path d="M94.6425 38.9045L95.1746 39.5648C95.4941 39.7617 96.0058 39.822 96.3105 39.4585C96.3129 38.613 96.8184 37.0075 97.5058 37.9941C97.2295 39.0285 97.5328 39.6582 97.7983 40.1498C98.1582 40.8109 96.3494 41.8648 96.0358 41.8437C96.0789 42.1627 96.176 42.5037 96.0249 42.7523C95.9116 42.8255 95.8005 42.9052 95.6278 42.7553C95.494 42.4309 95.5954 42.1529 95.6008 41.8555C94.1388 41.4129 94.5901 40.9038 94.5354 40.1243L94.0308 39.7836C93.9564 39.3047 93.8264 38.6598 94.6425 38.9045Z" fill="white"/>
<path d="M68.5708 41.778C68.5601 40.8085 68.7634 40.3498 69.0532 40.4583C69.2675 40.5385 69.5093 41.0748 69.9276 41.3411C70.1283 41.4691 70.2675 42.1307 70.4094 42.256C70.9722 42.7529 71.4442 42.2181 71.1398 41.9322C70.8862 41.6919 70.828 41.2167 70.3699 40.3614C69.935 39.5501 70.8815 39.4663 73.1034 39.8965C74.5484 40.1753 74.7958 40.3674 74.803 41.1573C74.496 41.6465 75.0838 42.3487 75.3533 42.435C75.6447 42.5294 75.6927 42.1295 75.5664 41.653C75.2593 40.4936 76.2005 39.715 76.56 41.4008C76.737 42.2293 77.1338 42.411 77.6336 42.3816C77.9369 42.3653 77.5958 41.7382 77.4134 41.1182C77.1419 40.2109 77.2569 39.8234 77.8559 39.0686C78.5211 38.2308 78.4765 37.7061 79.4121 38.315C80.856 39.2545 82.9405 38.4995 80.9664 37.343C80.825 37.2594 81.7691 37.2469 81.7673 37.0408C82.6144 35.2362 80.9583 35.021 79.7936 35.2216C79.6474 35.2487 79.5746 35.0605 79.4073 35.0117C76.8727 34.2595 75.1004 34.518 73.9799 34.2408C71.9261 33.7347 69.6206 34 68.8857 34.6119C68.5198 34.9173 68.1175 34.767 68.2729 34.5023C68.4143 34.2593 68.771 34.1058 68.5557 33.9827C68.1596 33.7559 66.8432 33.9339 67.4119 34.7845C67.4551 34.8555 67.0169 34.8859 67.0023 34.9564C66.9424 35.2525 67.1886 35.4142 67.3209 35.3833C68.3516 35.1419 67.9041 35.5981 67.4773 36.2253C66.6378 37.458 66.8168 38.1063 67.5098 39.6023C67.8082 40.2469 67.3959 40.7253 67.4612 41.3749C68.0441 42.4105 67.4827 43.2796 68.1514 43.2107C68.5043 43.1543 68.5714 42.332 68.5708 41.778Z" fill="white"/>
<path d="M147.651 7.65145C147.83 7.65145 147.984 7.71659 148.115 7.84685C148.245 7.9771 148.31 8.13189 148.31 8.31121V9.09312C148.31 9.27244 148.245 9.42723 148.115 9.55749C147.984 9.68774 147.83 9.75288 147.651 9.75288H140.544V19.6979C140.544 19.8773 140.479 20.0321 140.349 20.1623C140.219 20.2926 140.064 20.3577 139.885 20.3577H138.982C138.802 20.3577 138.648 20.2926 138.518 20.1623C138.388 20.0321 138.322 19.8773 138.322 19.6979V8.31121C138.322 8.13189 138.388 7.9771 138.518 7.84685C138.648 7.71659 138.802 7.65145 138.982 7.65145H147.651Z" fill="white"/>
<path d="M152.656 24.3397C152.656 24.5189 152.591 24.6737 152.461 24.8041C152.331 24.9345 152.176 24.9995 151.997 24.9995H151.093C150.914 24.9995 150.76 24.9345 150.63 24.8041C150.499 24.6737 150.434 24.5189 150.434 24.3397V8.31046C150.434 8.13132 150.499 7.97653 150.63 7.84609C150.76 7.71566 150.914 7.6507 151.093 7.6507H151.997C152.176 7.6507 152.331 7.71566 152.461 7.84609C152.591 7.97653 152.656 8.13132 152.656 8.31046V9.06792C153.487 7.9602 154.748 7.40634 156.441 7.40634C157.451 7.40634 158.362 7.64231 159.176 8.1149C160.007 8.58739 160.414 9.19935 160.902 10.079C161.407 10.9586 161.371 12.0298 161.42 13.2027C161.436 13.3656 161.447 13.6265 161.447 13.9846C161.447 14.3592 161.436 14.6281 161.42 14.791C161.371 15.9639 161.409 16.9452 160.902 17.8249C160.414 18.6883 160.015 19.4202 159.201 19.8926C158.387 20.3651 157.467 20.6012 156.441 20.6012C155.53 20.6012 154.756 20.4464 154.122 20.1368C153.503 19.811 153.014 19.4119 152.656 18.9395V24.3397ZM152.656 14.8835C152.705 16.0238 153.047 16.9115 153.682 17.5469C154.317 18.1822 155.155 18.4998 156.197 18.4998C157.255 18.4998 157.841 18.0938 158.46 17.4095C159.095 16.7253 159.133 15.8417 159.198 14.6688C159.198 14.6688 159.225 14.2775 159.225 13.9846C159.225 13.6913 159.214 13.4634 159.198 13.3004C159.132 12.1275 159.095 11.1542 158.46 10.47C157.841 9.78587 157.255 9.50776 156.197 9.50776C155.188 9.50776 154.358 9.82547 153.706 10.4607C153.055 11.0797 152.705 11.9105 152.656 12.9531L152.629 13.906L152.656 14.8835Z" fill="white"/>
<path d="M174.804 20.3566C174.625 20.3566 174.471 20.2915 174.34 20.1613C174.21 20.031 174.145 19.8762 174.145 19.6969V11.5113L167.039 20.0878C166.909 20.2672 166.73 20.3568 166.502 20.3568H165.672C165.493 20.3568 165.338 20.2917 165.208 20.1614C165.094 20.0312 165.037 19.8764 165.037 19.6971V8.3104C165.037 8.13108 165.102 7.97629 165.232 7.84603C165.362 7.71578 165.517 7.65064 165.696 7.65064H166.6C166.779 7.65064 166.934 7.71578 167.064 7.84603C167.194 7.97629 167.259 8.13108 167.259 8.3104V16.5694L174.365 7.91945C174.446 7.82167 174.52 7.75653 174.584 7.72406C174.666 7.67499 174.772 7.65048 174.902 7.65048H175.708C175.887 7.65048 176.042 7.71562 176.172 7.84587C176.302 7.97612 176.367 8.13091 176.367 8.31024V19.6969C176.367 19.8762 176.302 20.031 176.172 20.1613C176.042 20.2915 175.887 20.3566 175.708 20.3566H174.804Z" fill="white"/>
<path d="M190.335 7.65145C190.514 7.65145 190.669 7.71659 190.799 7.84685C190.929 7.9771 190.995 8.13189 190.995 8.31121V19.6979C190.995 19.8772 190.929 20.032 190.799 20.1622C190.669 20.2925 190.514 20.3576 190.335 20.3576H189.432C189.252 20.3576 189.098 20.2925 188.968 20.1622C188.837 20.032 188.772 19.8772 188.772 19.6979V9.7528H183.669V16.1303C183.669 17.5638 183.351 18.6716 182.716 19.4535C182.098 20.2191 181.056 20.6019 179.591 20.6019H179.298C179.118 20.6019 178.964 20.5368 178.834 20.4065C178.703 20.2763 178.638 20.1215 178.638 19.9421V19.1602C178.638 18.9809 178.703 18.8261 178.834 18.6959C178.964 18.5656 179.118 18.5006 179.298 18.5006H179.591C180.307 18.5006 180.795 18.3051 181.056 17.9141C181.316 17.5069 181.446 16.9041 181.446 16.1059V8.31121C181.446 8.13189 181.511 7.9771 181.642 7.84685C181.772 7.71659 181.927 7.65145 182.106 7.65145H190.335Z" fill="white"/>
<path d="M194.657 8.31121C194.657 8.13207 194.722 7.97728 194.853 7.84685C194.983 7.71641 195.138 7.65145 195.317 7.65145H196.22C196.399 7.65145 196.554 7.71641 196.684 7.84685C196.815 7.97728 196.879 8.13207 196.879 8.31121L196.877 11.8107H199.514C200.54 11.8107 201.452 12.0142 202.249 12.4216C203.063 12.8123 203.69 13.3745 204.13 14.1075C204.569 14.8243 204.544 15.2733 204.544 16.2181C204.544 17.163 204.445 17.4787 204.132 18.0852C203.693 18.8019 203.066 19.3638 202.252 19.7711C201.454 20.1619 200.543 20.3575 199.517 20.3575H195.317C195.138 20.3575 194.983 20.2926 194.853 20.1621C194.722 20.0317 194.658 19.8769 194.658 19.6978L194.657 8.31121ZM196.877 13.912L196.879 18.2562H199.175C200.233 18.2562 201.108 18.1344 201.71 17.7106C202.282 17.1997 202.465 17.0681 202.48 16.2184C202.497 15.2738 202.282 14.9709 201.663 14.5474C201.061 14.1236 200.231 13.912 199.172 13.912H196.877Z" fill="white"/>
<path d="M207.941 14.0771C207.762 14.0771 207.607 14.012 207.477 13.8817C207.347 13.7515 207.282 13.5967 207.282 13.4173V12.6354C207.282 12.4561 207.347 12.3013 207.477 12.1711C207.607 12.0408 207.762 11.9757 207.941 11.9757H215.145C215.324 11.9757 215.479 12.0408 215.609 12.1711C215.739 12.3013 215.804 12.4561 215.804 12.6354V13.4173C215.804 13.5967 215.739 13.7515 215.609 13.8817C215.479 14.012 215.324 14.0771 215.145 14.0771H207.941Z" fill="white"/>
<path d="M224.168 7.54354C222.871 7.54354 221.781 7.93154 221.015 8.6813V7.98313C221.015 5.68159 223.025 4.66285 224.616 4.27496C226.119 3.8869 226.738 3.58578 228.327 2.88631L227.426 0.764733C226.111 1.21124 224.822 1.66318 223.32 2.10276C220.786 2.87854 218.345 4.70485 218.345 8.17002V15.3847C218.345 18.6947 220.279 20.499 223.578 20.499C226.937 20.499 229.029 18.663 229.029 15.353V12.6378C229.029 9.37954 227.026 7.54354 224.168 7.54354ZM226.396 15.353C226.396 17.2408 225.23 18.322 223.61 18.322C222.048 18.322 220.727 17.1773 220.727 15.2896V12.6262C220.727 10.635 222.253 9.97431 223.637 9.97431C225.199 9.97431 226.396 10.8276 226.396 12.793V15.353Z" fill="white"/>
<path d="M240.946 11.9834C241.629 8.31833 235.375 8.62506 235.203 9.87696C235.105 10.0074 234.999 10.0968 234.885 10.146C234.771 10.1947 234.616 10.219 234.421 10.219H233.689C233.51 10.219 233.347 10.1541 233.2 10.0236C233.07 9.89319 233.013 9.7384 233.029 9.55926C233.322 8.15149 234.344 7.63472 235.417 7.31703C237.798 6.72737 240.539 7.18983 241.753 8.42225C242.697 9.26931 243.169 10.4585 243.169 11.9898V19.4424C243.169 19.6215 243.104 19.7763 242.974 19.9068C242.844 20.0372 242.689 20.1022 242.51 20.1022H241.606C241.427 20.1022 241.273 20.0372 241.142 19.9068C241.012 19.7763 240.947 19.6215 240.947 19.4424V18.4406C240.687 19.027 240.133 19.4912 239.287 19.8333C238.44 20.1754 237.594 20.3464 236.747 20.3464C235.917 20.3464 235.176 20.1998 234.525 19.9064C233.874 19.5968 233.369 19.1815 233.011 18.6602C232.669 18.139 232.403 17.0768 232.403 16.4252C232.403 15.2034 232.859 14.2505 233.771 13.5663C234.682 12.8659 235.895 12.3934 237.409 12.149L240.946 11.9834ZM240.946 13.9383L237.971 14.0059C236.913 14.1688 236.091 14.4373 235.505 14.8122C234.919 15.1705 234.626 15.6266 234.626 16.1806C234.626 16.5881 234.907 17.4301 235.282 17.7559C235.656 18.0818 236.226 18.2447 236.991 18.2447C238.163 18.2447 239.021 17.435 239.754 16.7671C240.668 15.6216 240.937 15.2296 240.946 13.9383Z" fill="white"/>
<path d="M248.435 24.0868C248.435 24.2659 248.37 24.4207 248.24 24.5512C248.109 24.6816 247.954 24.7465 247.775 24.7465H246.872C246.693 24.7465 246.538 24.6816 246.408 24.5512C246.277 24.4207 246.213 24.2659 246.213 24.0868V8.05745C246.213 7.87831 246.277 7.72352 246.408 7.59308C246.538 7.46265 246.693 7.39769 246.872 7.39769H247.775C247.954 7.39769 248.109 7.46265 248.24 7.59308C248.37 7.72352 248.435 7.87831 248.435 8.05745V8.81499C249.265 7.70727 250.527 7.15341 252.22 7.15341C253.229 7.15341 253.825 7.42024 254.639 7.89294C255.469 8.36543 255.95 9.13074 256.438 10.0104C256.943 10.89 256.997 11.8265 257.045 12.9994C257.062 13.1623 257.072 13.4232 257.072 13.7813C257.072 14.1559 257.062 14.4249 257.045 14.5878C256.997 15.7606 256.943 16.8765 256.438 17.7562C255.95 18.6196 255.299 19.2875 254.485 19.7599C253.671 20.2324 253.245 20.3482 252.22 20.3482C251.308 20.3482 250.535 20.1934 249.9 19.8839C249.281 19.558 248.793 19.1589 248.435 18.6866V24.0868ZM248.435 14.6305C248.483 15.7708 248.825 16.6585 249.46 17.2939C250.095 17.9291 250.934 18.2468 251.976 18.2468C253.034 18.2468 253.378 18.025 253.996 17.3409C254.631 16.6567 254.758 15.6384 254.823 14.4656C254.84 14.3027 254.85 14.0742 254.85 13.7813C254.85 13.488 254.84 13.2602 254.823 13.0972C254.758 11.9243 254.631 11.0855 253.996 10.4013C253.378 9.71719 253.034 9.25483 251.976 9.25483C250.966 9.25483 250.136 9.57253 249.485 10.2078C248.834 10.8268 248.484 11.6576 248.435 12.7001L248.408 13.6531L248.435 14.6305Z" fill="white"/>
<path d="M52.9694 40.3333C52.9694 40.3333 53.0481 40.6674 53.0347 41.1185C53.0239 41.5465 53.2808 41.6577 53.2894 41.8801C53.3218 42.6558 53.9714 42.6019 53.9772 42.4296C53.9812 42.3103 53.8839 42.1675 53.879 41.8841C53.8746 41.6893 53.6243 41.4572 53.62 41.0952C53.6038 39.8581 53.7731 39.2255 54.8146 39.6727C55.4375 39.9412 56.4659 39.7052 56.7888 39.651C56.9679 39.6185 57.2421 39.5404 57.2685 39.7085C57.3376 40.124 57.7519 40.3814 57.9123 40.6935C58.0359 40.9338 57.9501 41.2401 57.8961 41.594C57.8303 42.0274 57.8373 43.0148 58.0597 43.1375C58.329 43.2856 59.2644 42.983 58.5733 42.5541C58.4309 42.4651 58.3456 42.2014 58.3721 41.6796L58.4375 40.4123L58.9063 41.7717L59.0952 43.0554C59.9027 43.2811 60.1722 42.9719 59.8082 42.7164C59.527 42.5032 59.535 42.1832 59.4951 41.8085C59.4735 41.6192 59.0527 40.3848 59.6577 39.9612C59.9232 39.7763 60.5158 39.0931 60.265 38.0838C60.196 37.8066 60.3752 37.6156 60.4648 37.3193C60.9084 35.8511 60.5511 34.7401 60.8685 34.5145C60.9899 34.4293 61.5536 34.5253 61.7061 34.5361C62.8214 34.643 62.1993 33.021 60.7963 32.3161C60.4526 32.143 60.006 32.1593 59.8335 31.9928C59.5216 31.6928 59.7849 31.3405 59.145 31.2565C58.8714 31.2294 58.6253 31.3227 58.6712 31.4057C58.8946 31.8093 59.0619 32.0518 59.0997 32.2505C59.1623 32.5819 58.6076 32.9874 58.6076 32.9874C58.8083 33.475 58.2255 34.1036 57.1895 34.3396C56.2519 34.5533 56.2561 34.2175 55.523 34.3504C55.0259 34.4399 53.9909 34.6525 53.5575 34.6346C52.8922 34.6075 52.7781 34.3683 52.3558 34.6021C51.646 35.0019 50.8369 36.0289 51.1529 36.6772C51.2123 36.8008 51.8204 36.975 51.7074 37.1052C51.1786 37.713 51.0224 39.5244 51.4581 40.2086C51.7581 40.6795 51.3496 41.1324 51.341 41.3104C51.2924 42.2784 51.5303 42.649 51.7413 42.7902C51.9043 42.8998 52.097 42.9633 52.246 42.8754C52.3911 42.7902 52.0178 42.0205 52.0852 41.7303C52.1786 41.4081 52.0312 40.7016 52.2217 40.4036C52.321 40.248 52.5012 40.2984 52.5012 40.2984L52.9694 40.3333Z" fill="white"/>
<path d="M89.9013 39.8092C90.4161 39.5342 90.5613 39.0036 90.4149 38.0792C90.3772 37.8568 90.7701 37.7206 90.769 37.5046C90.7676 37.2914 90.2019 37.2898 90.3621 37.146C90.8462 36.7126 90.9345 35.8171 90.2111 35.4442C89.608 35.1334 89.5489 35.0119 89.2621 35.466C89.077 35.7583 89.131 36.1974 89.186 36.4791C89.3107 37.1158 88.8049 37.8958 88.3772 38.251C88.0011 38.5629 87.3833 38.3584 86.6641 38.3584C85.2268 38.3584 85.1709 38.5331 84.8535 39.3567C84.2238 40.9909 83.8197 41.9692 85.9351 40.8903C86.0996 40.8062 86.2858 40.4433 86.4407 40.439C86.915 40.4281 87.3183 40.4878 87.5546 40.7325C87.7937 40.9776 87.9599 41.319 87.9896 41.6519C88.0273 42.082 87.9923 42.7384 88.7226 42.5583C88.8187 42.5312 88.1495 41.6524 88.7333 41.5113C89.0852 41.4256 88.8267 40.6529 88.8893 40.4491C89.0355 40.0499 89.537 39.9322 89.9013 39.8092Z" fill="white"/>
<path d="M74.5012 22.5296H80.1117V5.74871L87.3719 22.5296H91.4918L98.1933 5.74871V22.5296H103.707V8.27701e-05H94.7393L89.4681 15.096L83.3297 0H74.572L74.5012 22.5296Z" fill="#E31E22"/>
<path d="M67.8478 11.5166C67.8478 7.40498 64.4917 4.05469 60.3312 4.05469C56.1707 4.05473 52.8156 7.405 52.8156 11.5166C52.8158 15.628 56.1709 18.9785 60.3312 18.9785C64.4915 18.9785 67.8475 15.628 67.8478 11.5166ZM71.2491 11.5166C71.2489 17.5256 66.3512 22.3799 60.3312 22.3799C54.3112 22.3798 49.4134 17.5255 49.4132 11.5166C49.4132 5.50747 54.3111 0.652384 60.3312 0.652344C66.3513 0.652344 71.2491 5.50744 71.2491 11.5166Z" fill="#E31E22"/>
<path d="M42.772 1.08913C43.8156 1.09879 44.6537 1.95272 44.6441 2.99636L44.4693 21.9456L23.3208 22.138C22.2773 22.1475 21.4233 21.3094 21.4136 20.2659C21.4041 19.2224 22.2422 18.3684 23.2857 18.3587L40.7232 18.1995L40.8648 2.9612C40.8745 1.91764 41.7284 1.07953 42.772 1.08913Z" fill="#E31E22"/>
<path d="M36.7694 0.899574C39.1011 0.798969 42.0137 0.956413 45.2069 0.9943L45.1619 4.7736C41.7126 4.73267 39.1361 4.58087 36.9324 4.67594C34.7684 4.76933 33.414 5.09957 32.4442 5.76286C31.5171 6.39698 30.6652 7.53009 29.9725 9.86442C29.2723 12.2244 28.7952 15.6068 28.4862 20.4777L24.7147 20.2384C25.0281 15.2985 25.5245 11.5708 26.3494 8.7902C27.182 5.98411 28.4078 3.9451 30.3104 2.64371C32.1701 1.37166 34.3982 1.00189 36.7694 0.899574Z" fill="#E31E22"/>
<path d="M124.65 40.5147H130.598L135.11 52.6673L139.656 40.5147H145.586V57.9553H141.502V46.4761L137.075 57.9553H132.973L128.752 46.4761V57.9553H124.65V40.5147Z" fill="white"/>
<path d="M165.075 40.5899V57.9545H160.439V50.7438H160.007C158.998 50.7438 158.256 50.8746 157.78 51.1362C157.314 51.387 156.794 51.9265 156.218 52.755L155.935 53.0984L152.861 57.9545H147.427L150.767 52.9185C151.72 51.4796 152.584 50.6512 153.359 50.4332C152.052 50.3567 150.988 49.8717 150.169 48.9779C149.36 48.0732 148.955 46.9232 148.955 45.5279C148.955 44.4052 149.221 43.4459 149.753 42.6502C150.296 41.8544 151.011 41.3149 151.897 41.0314C152.794 40.7372 154.124 40.5899 155.885 40.5899H165.075ZM160.439 43.5495H156.667C155.438 43.5495 154.574 43.7237 154.075 44.0726C153.576 44.4106 153.327 44.9774 153.327 45.7732C153.327 46.5689 153.61 47.1412 154.175 47.49C154.74 47.8388 155.665 48.0133 156.95 48.0133H160.439V43.5495Z" fill="white"/>
<path d="M186.537 46.5111C186.13 47.2918 184.209 47.7852 182.917 47.2929C181.865 44.8822 180.073 43.8591 177.58 43.8295C173.727 43.6903 172.058 46.2955 172.173 48.8709C171.805 51.9492 174.072 55.1949 177.038 55.0763C179.824 54.9647 182.096 54.1473 182.668 51.8784C184.572 51.2189 185.371 51.6755 186.452 51.9354C185.953 53.9267 184.227 56.3538 182.781 57.3268C181.032 58.5039 177.435 58.5018 174.829 57.9632C173.229 57.6325 172.099 57.2055 170.485 55.6648C168.882 54.1242 168.413 51.9057 168.413 49.1808C168.413 46.4245 168.888 44.3669 170.502 42.8367C172.116 41.2961 173.255 40.7512 175.993 40.4697C178.797 40.1815 181.824 40.5071 183.47 41.8708C184.805 42.7407 185.957 44.7189 186.537 46.5111Z" fill="white"/>
<path d="M189.483 40.6314H194.129V46.9769H201.56V40.6314L206.303 40.5917V57.9152L201.56 57.955V50.6797H194.129V57.955H189.483V40.6314Z" fill="white"/>
<path d="M209.79 40.7027L214.119 40.6231L213.958 53.0866L221.397 40.5968L226.439 40.6238V57.9557H222.503L222.364 46.6198L214.895 57.9557L209.79 58.0353L209.79 40.7027Z" fill="white"/>
<path d="M248.339 57.9547H243.182C243.08 57.8647 242.99 57.7291 242.939 57.6027L240.962 53.7113C240.683 53.1438 240.392 52.6711 240.088 52.2928C239.784 51.9049 239.448 51.5946 239.08 51.3604C238.713 51.1169 238.294 50.946 237.826 50.8468C237.357 50.7475 236.831 50.6981 236.247 50.6981H235.126V57.6969C235.126 57.7962 235.121 57.9541 235.121 57.9541H230.131C230.131 57.9541 230.127 57.7967 230.127 57.6969V41.1726C230.129 40.8466 230.131 40.6118 230.131 40.6118H235.121C235.121 40.6118 235.126 41.0739 235.126 41.1725V47.7391H236.248C236.818 47.7391 237.319 47.6821 237.75 47.5768C238.181 47.4689 238.567 47.2975 238.909 47.0632C240.827 45.6708 242.075 42.5499 243.279 40.6113H248.356C246.66 43.272 245.723 46.0021 243.624 47.8873C243.294 48.1667 242.939 48.3961 242.559 48.5765C242.191 48.7571 241.78 48.9052 241.323 49.0218V49.0327C241.83 49.1862 242.287 49.3614 242.692 49.5594C243.11 49.7481 243.497 49.9917 243.852 50.289C244.22 50.5857 244.568 50.951 244.897 51.3834C245.227 51.8157 245.563 52.3472 245.905 52.9778L247.92 56.5988C248.075 56.9671 248.336 57.637 248.339 57.9547Z" fill="white"/>
<path d="M266.406 58.0371L263.381 58.0518L263.294 40.6191L266.317 40.6035L266.406 58.0371Z" fill="white"/>
<path d="M264.642 54.2244L253.423 54.2351L253.421 51.2117L264.639 51.2009L264.642 54.2244Z" fill="white"/>
<path d="M258.668 41.4205C260.598 41.1779 263.276 41.2823 266.936 41.3238L266.902 44.3472C263.045 44.3035 260.705 44.2119 259.045 44.4205C258.254 44.5199 257.729 44.6779 257.337 44.8853C256.962 45.0835 256.631 45.3658 256.292 45.8336C255.611 46.7714 254.854 48.6981 254.259 51.0728C253.677 53.3988 253.306 55.9383 253.285 57.9693L250.261 57.939C250.285 55.6172 250.702 52.8368 251.327 50.3394C251.94 47.8906 252.808 45.4883 253.845 44.0582C254.414 43.2747 255.081 42.6581 255.923 42.2125C256.749 41.776 257.663 41.5467 258.668 41.4205Z" fill="white"/>
<defs>
<linearGradient id="paint0_linear_200_1550" x1="121.199" y1="38.0658" x2="121.527" y2="79.1215" gradientUnits="userSpaceOnUse">
<stop stop-color="#68676D"/>
<stop offset="1" stop-color="#68676D" stop-opacity="0"/>
</linearGradient>
</defs>
</svg>
