<svg width="190" height="122" viewBox="0 0 190 122" fill="none" xmlns="http://www.w3.org/2000/svg">
<path d="M184.797 81.4183C184.792 81.4312 184.783 81.4422 184.771 81.4495C184.759 81.4569 184.746 81.4602 184.732 81.459C184.718 81.4578 184.705 81.4522 184.695 81.4429C184.684 81.4336 184.677 81.4213 184.675 81.4077C181.725 66.7361 173.793 52.9652 163.522 42.0628C158.553 36.7891 152.837 32.2199 146.433 28.9143C142.374 26.82 138.213 25.6015 133.949 25.259C130.39 24.9747 126.803 25.0347 123.189 25.4391C115.499 26.2999 107.84 28.7474 100.474 31.7803C96.5005 33.4172 91.6845 35.4779 86.0261 37.9625C80.2951 40.4771 74.5934 42.7612 68.9208 44.8149C68.8983 44.823 68.874 44.8247 68.8507 44.8197C68.8273 44.8147 68.8058 44.8033 68.7886 44.7867C68.7715 44.7702 68.7593 44.7491 68.7535 44.726C68.7478 44.7029 68.7486 44.6786 68.7561 44.656C69.5426 42.1979 69.8589 41.0298 70.6534 38.9902C74.356 29.5023 79.9692 21.5021 87.493 14.9897C97.3358 6.47121 108.72 1.57363 121.645 0.296918C146.117 -2.11876 169.422 10.3676 181.146 31.8491C189.445 47.0557 190.63 65.1522 184.797 81.4183Z" fill="#E31E25"/>
<path d="M25.2182 70.6643C24.894 70.8691 24.7017 71.0307 24.6415 71.149C22.5192 75.35 19.2471 78.3113 14.8253 80.033C14.5064 80.1566 13.9927 80.3394 13.284 80.5813C13.2 80.6104 13.1294 80.6676 13.0847 80.7429C13.0546 80.7958 12.8739 81.1057 12.5426 81.6726C11.2857 83.8366 6.99676 84.6233 4.77522 84.2472C2.97708 83.9435 1.40482 83.1577 0.0584361 81.8898C0.0355186 81.8678 0.0184633 81.8403 0.00886229 81.8101C-0.000738756 81.7798 -0.00257384 81.7478 0.00352823 81.7168C0.00963029 81.6859 0.0234715 81.6571 0.0437598 81.6331C0.0640481 81.6092 0.0901226 81.5909 0.119554 81.5799C1.46771 81.0748 2.92305 80.4144 4.48557 79.5986C6.69116 78.4437 9.48137 77.8981 11.9554 78.8675C12.0915 78.9208 12.2406 78.9292 12.3805 78.8914C16.1557 77.8778 19.1709 75.8841 21.4261 72.9104C21.8832 72.3083 22.3828 71.4951 22.9249 70.4709C23.8709 68.683 24.886 66.8659 26.127 65.4144C26.9906 64.3999 28.0562 63.7589 29.361 63.6291C29.7418 63.592 29.9916 63.5223 30.1103 63.4199C38.6085 56.0722 49.586 55.3358 60.9116 51.8739C66.7081 50.101 71.556 48.4402 75.4552 46.8915C81.5281 44.4829 88.4558 41.5693 96.2383 38.1506C102.297 35.4912 108.428 33.0702 114.723 31.3565C120.971 29.6559 127.245 29.0326 133.545 29.4864C140.201 29.9658 146.622 33.2318 151.806 37.1917C155.087 39.6974 158.102 42.4292 160.852 45.387C169.608 54.8087 176.538 66.5931 179.812 79.0582C181.409 85.1345 181.98 91.7273 180.782 97.8566C180.731 98.1119 180.748 98.3765 180.829 98.6247C181.504 100.682 182.113 102.895 182.655 105.263C183.939 110.867 185.982 115.821 189.763 120.016C189.778 120.032 189.788 120.051 189.791 120.072C189.795 120.093 189.792 120.114 189.784 120.134C189.775 120.153 189.761 120.17 189.744 120.181C189.726 120.193 189.705 120.199 189.684 120.199C187.789 120.22 186.11 119.423 184.667 118.125C183.055 116.674 181.851 115.348 181.055 114.149C179.068 111.153 177.212 108.537 175.488 106.304C175.444 106.246 175.381 106.205 175.309 106.188C175.238 106.171 175.164 106.179 175.098 106.211C173.496 106.97 171.861 107.594 170.192 108.081C169.494 108.284 168.875 108.528 168.335 108.812C166.15 109.959 164.293 111.471 161.391 113.683C161.005 113.978 160.051 114.549 158.529 115.397C157.711 115.852 156.737 116.146 155.609 116.276C150.892 116.822 149.996 112.038 148.862 108.791C148.684 108.287 148.457 107.873 148.179 107.548C146.943 106.108 145.165 107.019 143.659 107.803C139.237 110.102 135.243 112.539 131.948 116.046C131.262 116.777 130.643 117.773 130.13 118.469C129.996 118.653 129.814 118.796 129.604 118.883C126.575 120.149 123.51 121.152 120.41 121.892C120.151 121.953 119.883 121.975 119.615 121.958C116.206 121.722 113.506 121.468 110.099 121.468C42.5281 121.48 7.09331 121.477 3.79466 121.46C3.35354 121.458 3.00277 121.478 2.74235 121.521C2.70971 121.526 2.67625 121.521 2.6462 121.507C2.61615 121.493 2.59086 121.471 2.57351 121.444C2.55617 121.416 2.54755 121.384 2.54875 121.351C2.54995 121.319 2.56091 121.287 2.58025 121.261C3.68837 119.733 4.71942 118.273 5.84879 116.888C6.32357 116.304 6.67433 115.666 6.90109 114.976C7.51228 113.118 8.12613 111.236 8.74263 109.331C9.13858 108.105 9.74445 106.481 11.0359 106.158C11.1414 106.132 11.2413 106.087 11.3309 106.025C16.1619 102.661 19.9194 98.4473 22.6033 93.3828C25.064 88.7422 26.2439 83.3837 24.7372 78.2663C24.6983 78.1378 24.6752 78.0044 24.6681 77.8689C24.5405 75.7844 24.6521 73.5673 25.1836 71.5463C25.3183 71.0378 25.3838 70.7676 25.3803 70.7358C25.378 70.7185 25.3713 70.7021 25.3608 70.6882C25.3502 70.6743 25.3362 70.6632 25.3201 70.6561C25.3039 70.649 25.2861 70.646 25.2683 70.6474C25.2504 70.6488 25.2332 70.6546 25.2182 70.6643ZM104.213 60.8267C104.216 60.8235 104.219 60.8196 104.221 60.8153C104.223 60.8109 104.224 60.8063 104.224 60.8016C104.224 60.7968 104.223 60.7922 104.221 60.7878C104.219 60.7835 104.216 60.7796 104.213 60.7764C98.5901 55.749 90.4586 56.0854 85.4947 61.8809C80.2225 68.0393 82.1677 77.8795 89.6056 81.6011C94.4154 84.0061 100.137 83.1718 104.12 79.4238C104.143 79.4023 104.162 79.3762 104.175 79.3472C104.188 79.3182 104.195 79.2868 104.196 79.2549C104.196 79.223 104.19 79.1912 104.178 79.1615C104.166 79.1318 104.148 79.1048 104.125 79.0821L102.664 77.6253C102.642 77.6032 102.615 77.5858 102.586 77.5742C102.557 77.5625 102.526 77.5569 102.495 77.5577C102.463 77.5584 102.432 77.5655 102.404 77.5785C102.376 77.5915 102.35 77.6101 102.329 77.6332C101.192 78.8887 99.8151 79.7355 98.1994 80.1734C94.046 81.2991 89.7278 80.033 87.1024 76.5922C84.4397 73.1038 84.368 68.1691 86.6214 64.4556C88.3363 61.632 90.8669 60.0471 94.2134 59.701C97.4341 59.3672 100.186 60.2705 102.47 62.4107C102.491 62.4309 102.519 62.4419 102.549 62.4414C102.578 62.4409 102.606 62.4289 102.627 62.408L104.213 60.8267ZM140.356 57.4389C138.122 61.7723 135.571 66.7935 132.705 72.5025C132.654 72.6067 132.608 72.6712 132.569 72.6959C132.559 72.703 132.546 72.7072 132.533 72.7078C132.521 72.7085 132.508 72.7057 132.496 72.6998C132.485 72.6938 132.475 72.6849 132.469 72.674C132.462 72.663 132.458 72.6505 132.458 72.6376V57.5846C132.458 57.5657 132.45 57.5475 132.437 57.5341C132.423 57.5206 132.405 57.5131 132.386 57.5131H130.032C130.016 57.5131 130.001 57.5195 129.99 57.531C129.979 57.5424 129.973 57.5579 129.973 57.574V82.3401C129.974 82.3513 129.978 82.3619 129.986 82.3705C129.993 82.379 130.003 82.3851 130.014 82.3877C130.025 82.3904 130.036 82.3895 130.047 82.3852C130.057 82.3809 130.066 82.3735 130.072 82.3639L137.786 67.7135C137.794 67.6965 137.808 67.6828 137.825 67.6747C137.842 67.6666 137.861 67.6645 137.879 67.6688C137.898 67.6732 137.914 67.6837 137.926 67.6986C137.937 67.7134 137.943 67.7318 137.943 67.7506V82.3401C137.943 82.3597 137.95 82.3786 137.964 82.3925C137.978 82.4064 137.997 82.4142 138.017 82.4142H140.369C140.384 82.4142 140.399 82.4081 140.41 82.3972C140.421 82.3862 140.427 82.3714 140.427 82.356V57.4575C140.429 57.4483 140.427 57.4389 140.422 57.4312C140.417 57.4234 140.409 57.4178 140.4 57.4155C140.391 57.4131 140.381 57.4142 140.373 57.4186C140.365 57.4229 140.359 57.4302 140.356 57.4389ZM62.0861 82.4142C62.1094 82.4142 62.1317 82.405 62.1481 82.3886C62.1646 82.3723 62.1738 82.35 62.1738 82.3268V57.6111C62.1734 57.5918 62.1666 57.5733 62.1545 57.5582C62.1423 57.5432 62.1256 57.5326 62.1068 57.5281C62.088 57.5236 62.0682 57.5253 62.0505 57.5332C62.0329 57.541 62.0183 57.5544 62.0091 57.5714L51.6348 77.7392C51.6275 77.7536 51.6163 77.7658 51.6025 77.7744C51.5886 77.7829 51.5727 77.7874 51.5564 77.7874C51.5401 77.7874 51.5242 77.7829 51.5104 77.7744C51.4965 77.7658 51.4853 77.7536 51.478 77.7392L41.2419 57.5475C41.2327 57.5306 41.2181 57.5172 41.2005 57.5093C41.1828 57.5015 41.163 57.4997 41.1442 57.5043C41.1254 57.5088 41.1087 57.5194 41.0965 57.5344C41.0844 57.5494 41.0776 57.568 41.0772 57.5873V82.3374C41.0772 82.3606 41.0864 82.3828 41.1029 82.3992C41.1193 82.4156 41.1416 82.4248 41.1649 82.4248H43.4847C43.508 82.4248 43.5303 82.4156 43.5467 82.3992C43.5632 82.3828 43.5724 82.3606 43.5724 82.3374V67.7639C43.5729 67.7446 43.5797 67.726 43.5918 67.711C43.6039 67.696 43.6207 67.6854 43.6395 67.6808C43.6583 67.6763 43.678 67.6781 43.6957 67.6859C43.7134 67.6938 43.728 67.7072 43.7372 67.7241L51.4328 82.5149C51.4404 82.5287 51.4515 82.5403 51.4651 82.5483C51.4786 82.5563 51.4941 82.5606 51.5099 82.5606C51.5257 82.5606 51.5412 82.5563 51.5547 82.5483C51.5683 82.5403 51.5794 82.5287 51.587 82.5149L59.5138 67.4646C59.523 67.4476 59.5376 67.4342 59.5553 67.4264C59.573 67.4185 59.5927 67.4167 59.6115 67.4213C59.6303 67.4258 59.6471 67.4364 59.6592 67.4514C59.6713 67.4664 59.6782 67.485 59.6786 67.5043V82.3268C59.6786 82.35 59.6878 82.3723 59.7043 82.3886C59.7207 82.405 59.743 82.4142 59.7663 82.4142H62.0861ZM145.298 69.9544C145.293 77.8495 145.291 81.9375 145.293 82.2182C145.293 82.2681 145.313 82.3159 145.348 82.3512C145.383 82.3865 145.431 82.4063 145.482 82.4063H147.637C147.678 82.4063 147.718 82.3898 147.747 82.3605C147.777 82.3312 147.793 82.2915 147.793 82.25V72.2562C147.793 72.238 147.799 72.2201 147.81 72.2056C147.821 72.1911 147.836 72.1808 147.854 72.1765C147.872 72.1721 147.891 72.174 147.907 72.1818C147.924 72.1895 147.937 72.2027 147.945 72.2191L153.076 82.348C153.085 82.3655 153.098 82.3802 153.115 82.3905C153.131 82.4007 153.15 82.4062 153.169 82.4063H155.548C155.553 82.4066 155.559 82.4053 155.564 82.4027C155.569 82.4 155.573 82.396 155.576 82.3911C155.579 82.3862 155.581 82.3806 155.581 82.3749C155.581 82.3692 155.58 82.3636 155.577 82.3586C153.465 78.2265 151.376 74.1368 149.311 70.0895C149.295 70.0595 149.287 70.0144 149.287 69.9544C149.287 69.8961 149.295 69.852 149.311 69.822C151.382 65.7764 153.476 61.6893 155.593 57.5608C155.596 57.5558 155.597 57.5502 155.597 57.5445C155.597 57.5388 155.595 57.5332 155.592 57.5283C155.589 57.5234 155.585 57.5194 155.58 57.5167C155.575 57.5141 155.569 57.5128 155.563 57.5131L153.185 57.5105C153.166 57.5105 153.147 57.516 153.131 57.5263C153.114 57.5366 153.101 57.5513 153.092 57.5687L147.948 67.6897C147.94 67.7061 147.926 67.7193 147.91 67.727C147.893 67.7348 147.874 67.7367 147.857 67.7323C147.839 67.728 147.823 67.7177 147.812 67.7032C147.801 67.6887 147.796 67.6708 147.796 67.6526L147.809 57.6588C147.809 57.6173 147.793 57.5776 147.763 57.5483C147.734 57.519 147.694 57.5025 147.653 57.5025L145.497 57.4999C145.447 57.4999 145.399 57.5197 145.364 57.5549C145.329 57.5902 145.309 57.638 145.309 57.6879C145.307 57.9687 145.303 62.0575 145.298 69.9544ZM155.93 59.8202C155.93 59.8413 155.938 59.8615 155.953 59.8764C155.967 59.8913 155.987 59.8997 156.007 59.8997H161.497C161.523 59.8997 161.547 59.9097 161.565 59.9276C161.583 59.9455 161.593 59.9697 161.593 59.995V82.3189C161.593 82.343 161.602 82.3662 161.619 82.3835C161.636 82.4008 161.659 82.4109 161.683 82.4116C162.337 82.4275 163.156 82.4248 164.141 82.4036C167.67 82.3268 170.928 79.8343 171.648 76.3644C172.703 71.2735 169.424 66.805 164.232 66.4872C164.191 66.4851 164.152 66.4675 164.124 66.4379C164.096 66.4083 164.08 66.369 164.08 66.3282V57.6217C164.08 57.5922 164.069 57.5639 164.048 57.543C164.028 57.5222 164 57.5105 163.971 57.5105H155.997C155.979 57.5105 155.962 57.5177 155.95 57.5306C155.937 57.5435 155.93 57.5611 155.93 57.5793V59.8202ZM74.8148 73.6468C74.8556 73.7686 74.8759 73.9099 74.8759 74.0706C74.8812 76.9613 74.8812 79.7195 74.8759 82.3454C74.8759 82.3636 74.8829 82.3812 74.8954 82.3941C74.9078 82.407 74.9247 82.4142 74.9424 82.4142H77.3233C77.3396 82.4142 77.3551 82.4078 77.3666 82.3964C77.378 82.385 77.3845 82.3695 77.3845 82.3533V57.6614C77.3845 57.6254 77.3703 57.5907 77.3449 57.565C77.3196 57.5392 77.2851 57.5244 77.2489 57.5237C76.0832 57.5078 75.2479 57.5069 74.7431 57.521C71.3284 57.6164 68.2033 59.9791 67.3796 63.2583C66.3857 67.2235 68.2671 71.2152 72.0326 72.8045C72.1761 72.8645 72.3426 72.9184 72.5322 72.9661C72.5549 72.9715 72.5761 72.982 72.5941 72.9968C72.6121 73.0116 72.6266 73.0303 72.6363 73.0515C72.646 73.0727 72.6508 73.0958 72.6503 73.1191C72.6497 73.1423 72.6438 73.1652 72.6331 73.1859L67.927 82.3374C67.9228 82.3451 67.9207 82.3538 67.921 82.3626C67.9212 82.3713 67.9237 82.3799 67.9283 82.3874C67.9328 82.3949 67.9393 82.401 67.947 82.4053C67.9547 82.4095 67.9634 82.4117 67.9722 82.4116H70.3717C70.3941 82.4117 70.4159 82.4058 70.4347 82.3946C70.4535 82.3833 70.4685 82.3672 70.478 82.348L74.7324 73.6415C74.7365 73.6338 74.7427 73.6274 74.7503 73.6231C74.7579 73.6189 74.7666 73.6169 74.7753 73.6175C74.7841 73.618 74.7924 73.6211 74.7994 73.6263C74.8064 73.6315 74.8118 73.6386 74.8148 73.6468ZM117.33 71.8191C120.651 71.8191 122.379 71.8174 122.511 71.8138C122.531 71.8131 122.55 71.8163 122.568 71.8232C122.586 71.83 122.602 71.8405 122.616 71.8538C122.63 71.8672 122.641 71.8832 122.649 71.9009C122.656 71.9186 122.66 71.9376 122.66 71.9569V82.3401C122.66 82.3604 122.668 82.38 122.683 82.3944C122.697 82.4088 122.717 82.4169 122.737 82.4169H125.092C125.108 82.4169 125.123 82.4105 125.135 82.399C125.146 82.3876 125.153 82.3721 125.153 82.356V57.5714C125.153 57.5552 125.147 57.5397 125.136 57.5283C125.125 57.5169 125.11 57.5105 125.094 57.5105H122.737C122.718 57.5105 122.699 57.5186 122.685 57.533C122.671 57.5474 122.663 57.5669 122.663 57.5873V69.3081C122.663 69.339 122.651 69.3687 122.629 69.3905C122.607 69.4124 122.577 69.4246 122.546 69.4246C121.809 69.4317 120.07 69.4352 117.33 69.4352C114.591 69.4352 112.853 69.4317 112.116 69.4246C112.1 69.4247 112.085 69.4216 112.071 69.4155C112.056 69.4095 112.043 69.4007 112.032 69.3896C112.021 69.3785 112.013 69.3653 112.007 69.3509C112.001 69.3364 111.999 69.321 111.999 69.3055L112.002 57.5846C112.002 57.5643 111.994 57.5447 111.98 57.5303C111.966 57.5159 111.947 57.5078 111.927 57.5078H109.57C109.555 57.5078 109.54 57.5142 109.529 57.5257C109.518 57.5371 109.512 57.5526 109.512 57.5687L109.504 82.3533C109.504 82.3695 109.51 82.385 109.522 82.3964C109.533 82.4078 109.549 82.4142 109.565 82.4142H111.919C111.94 82.4142 111.959 82.4062 111.974 82.3917C111.988 82.3773 111.996 82.3578 111.996 82.3374L111.999 71.9542C111.999 71.935 112.003 71.9159 112.01 71.8982C112.018 71.8805 112.029 71.8645 112.043 71.8512C112.057 71.8378 112.073 71.8274 112.091 71.8205C112.109 71.8137 112.129 71.8105 112.148 71.8112C112.282 71.8165 114.01 71.8191 117.33 71.8191ZM11.0758 117.352C11.159 117.387 11.2565 117.405 11.3681 117.405C26.049 117.406 59.5085 117.406 111.747 117.405C112.682 117.405 113.297 117.444 113.591 117.524C114.358 117.732 114.955 117.888 115.382 117.993C115.86 118.109 116.423 118.145 117.069 118.101C117.168 118.094 117.261 118.056 117.335 117.993C118.834 116.726 120.074 115.552 121.055 114.47C121.427 114.062 121.644 113.773 121.706 113.604C122.716 110.889 123.362 109.192 123.643 108.513C124.6 106.198 124.737 103.857 124.053 101.491C123.064 98.0685 121.079 95.4091 118.002 93.5126C113.761 90.9009 108.505 89.9341 103.509 89.7566C100.311 89.6436 97.4766 89.6887 95.0053 89.8917C87.4797 90.5045 79.738 91.8236 71.7801 93.849C67.4646 94.9474 64.4583 95.7438 62.7611 96.2382C53.487 98.9452 44.4006 102.073 35.5021 105.62C30.0067 107.81 24.824 110.081 19.954 112.433C16.8325 113.941 13.8722 115.563 11.0731 117.299C11.0681 117.301 11.064 117.305 11.0612 117.31C11.0584 117.315 11.0571 117.32 11.0573 117.326C11.0576 117.332 11.0595 117.337 11.0628 117.341C11.0661 117.346 11.0706 117.35 11.0758 117.352Z" fill="black"/>
<path d="M102.47 62.4107C100.186 60.2705 97.4341 59.3672 94.2134 59.701C90.8669 60.0471 88.3363 61.632 86.6214 64.4556C84.368 68.1691 84.4397 73.1038 87.1024 76.5922C89.7278 80.033 94.046 81.2991 98.1994 80.1734C99.8151 79.7355 101.192 78.8887 102.329 77.6332C102.35 77.6101 102.376 77.5915 102.404 77.5785C102.432 77.5655 102.463 77.5584 102.495 77.5577C102.526 77.5569 102.557 77.5625 102.586 77.5742C102.615 77.5858 102.642 77.6032 102.664 77.6253L104.125 79.0821C104.148 79.1048 104.166 79.1318 104.178 79.1615C104.19 79.1912 104.196 79.223 104.196 79.2549C104.195 79.2868 104.188 79.3182 104.175 79.3472C104.162 79.3762 104.143 79.4023 104.12 79.4238C100.137 83.1718 94.4154 84.0061 89.6056 81.6011C82.1677 77.8795 80.2225 68.0393 85.4947 61.8809C90.4586 56.0854 98.5901 55.749 104.213 60.7764C104.216 60.7796 104.219 60.7835 104.221 60.7878C104.223 60.7922 104.224 60.7968 104.224 60.8016C104.224 60.8063 104.223 60.8109 104.221 60.8153C104.219 60.8196 104.216 60.8235 104.213 60.8267L102.627 62.408C102.606 62.4289 102.578 62.4409 102.549 62.4414C102.519 62.4419 102.491 62.4309 102.47 62.4107Z" fill="white"/>
<path d="M140.356 57.4389C140.359 57.4302 140.365 57.4229 140.373 57.4186C140.381 57.4142 140.391 57.4131 140.4 57.4155C140.409 57.4178 140.417 57.4234 140.422 57.4312C140.427 57.4389 140.429 57.4483 140.427 57.4575V82.356C140.427 82.3714 140.421 82.3862 140.41 82.3972C140.399 82.4081 140.384 82.4142 140.369 82.4142H138.017C137.997 82.4142 137.978 82.4064 137.964 82.3925C137.95 82.3786 137.943 82.3597 137.943 82.3401V67.7506C137.943 67.7318 137.937 67.7134 137.926 67.6986C137.914 67.6837 137.898 67.6732 137.879 67.6688C137.861 67.6645 137.842 67.6666 137.825 67.6747C137.808 67.6828 137.794 67.6965 137.786 67.7135L130.072 82.3639C130.066 82.3735 130.057 82.3809 130.047 82.3852C130.036 82.3895 130.025 82.3904 130.014 82.3877C130.003 82.3851 129.993 82.379 129.986 82.3705C129.978 82.3619 129.974 82.3513 129.973 82.3401V57.574C129.973 57.5579 129.979 57.5424 129.99 57.531C130.001 57.5195 130.016 57.5131 130.032 57.5131H132.386C132.405 57.5131 132.423 57.5206 132.437 57.5341C132.45 57.5475 132.458 57.5657 132.458 57.5846V72.6376C132.458 72.6505 132.462 72.663 132.469 72.674C132.475 72.6849 132.485 72.6938 132.496 72.6998C132.508 72.7057 132.521 72.7085 132.533 72.7078C132.546 72.7072 132.559 72.703 132.569 72.6959C132.608 72.6712 132.654 72.6067 132.705 72.5025C135.571 66.7935 138.122 61.7723 140.356 57.4389Z" fill="white"/>
<path d="M62.0861 82.4142H59.7663C59.743 82.4142 59.7207 82.405 59.7043 82.3886C59.6878 82.3723 59.6786 82.35 59.6786 82.3268V67.5043C59.6782 67.485 59.6713 67.4664 59.6592 67.4514C59.6471 67.4364 59.6303 67.4258 59.6115 67.4213C59.5927 67.4167 59.573 67.4185 59.5553 67.4264C59.5376 67.4342 59.523 67.4476 59.5138 67.4646L51.587 82.5149C51.5794 82.5287 51.5683 82.5403 51.5547 82.5483C51.5412 82.5563 51.5257 82.5606 51.5099 82.5606C51.4941 82.5606 51.4786 82.5563 51.4651 82.5483C51.4515 82.5403 51.4404 82.5287 51.4328 82.5149L43.7372 67.7241C43.728 67.7072 43.7134 67.6938 43.6957 67.6859C43.678 67.6781 43.6583 67.6763 43.6395 67.6808C43.6207 67.6854 43.6039 67.696 43.5918 67.711C43.5797 67.726 43.5729 67.7446 43.5724 67.7639V82.3374C43.5724 82.3606 43.5632 82.3828 43.5467 82.3992C43.5303 82.4156 43.508 82.4248 43.4847 82.4248H41.1649C41.1416 82.4248 41.1193 82.4156 41.1029 82.3992C41.0864 82.3828 41.0772 82.3606 41.0772 82.3374V57.5873C41.0776 57.568 41.0844 57.5494 41.0965 57.5344C41.1087 57.5194 41.1254 57.5088 41.1442 57.5043C41.163 57.4997 41.1828 57.5015 41.2005 57.5093C41.2181 57.5172 41.2327 57.5306 41.2419 57.5475L51.478 77.7392C51.4853 77.7536 51.4965 77.7658 51.5104 77.7744C51.5242 77.7829 51.5401 77.7874 51.5564 77.7874C51.5727 77.7874 51.5886 77.7829 51.6025 77.7744C51.6163 77.7658 51.6275 77.7536 51.6348 77.7392L62.0091 57.5714C62.0183 57.5544 62.0329 57.541 62.0505 57.5332C62.0682 57.5253 62.088 57.5236 62.1068 57.5281C62.1256 57.5326 62.1423 57.5432 62.1545 57.5582C62.1666 57.5733 62.1734 57.5918 62.1738 57.6111V82.3268C62.1738 82.35 62.1646 82.3723 62.1481 82.3886C62.1317 82.405 62.1094 82.4142 62.0861 82.4142Z" fill="white"/>
<path d="M149.287 69.9544C149.287 70.0144 149.295 70.0595 149.311 70.0895C151.376 74.1368 153.465 78.2265 155.577 82.3586C155.58 82.3636 155.581 82.3692 155.581 82.3749C155.581 82.3806 155.579 82.3862 155.576 82.3911C155.573 82.396 155.569 82.4 155.564 82.4027C155.559 82.4053 155.553 82.4066 155.548 82.4063H153.169C153.15 82.4062 153.131 82.4007 153.115 82.3905C153.098 82.3802 153.085 82.3655 153.076 82.348L147.945 72.2191C147.937 72.2027 147.924 72.1895 147.907 72.1818C147.891 72.174 147.872 72.1721 147.854 72.1765C147.836 72.1808 147.821 72.1911 147.81 72.2056C147.799 72.2201 147.793 72.238 147.793 72.2562V82.25C147.793 82.2915 147.777 82.3312 147.747 82.3605C147.718 82.3898 147.678 82.4063 147.637 82.4063H145.482C145.431 82.4063 145.383 82.3865 145.348 82.3512C145.313 82.3159 145.293 82.2681 145.293 82.2182C145.291 81.9375 145.293 77.8495 145.298 69.9544C145.303 62.0575 145.307 57.9687 145.309 57.6879C145.309 57.638 145.329 57.5902 145.364 57.5549C145.399 57.5197 145.447 57.4999 145.497 57.4999L147.653 57.5025C147.694 57.5025 147.734 57.519 147.763 57.5483C147.793 57.5776 147.809 57.6173 147.809 57.6588L147.796 67.6526C147.796 67.6708 147.801 67.6887 147.812 67.7032C147.823 67.7177 147.839 67.728 147.857 67.7323C147.874 67.7367 147.893 67.7348 147.91 67.727C147.926 67.7193 147.94 67.7061 147.948 67.6897L153.092 57.5687C153.101 57.5513 153.114 57.5366 153.131 57.5263C153.147 57.516 153.166 57.5105 153.185 57.5105L155.563 57.5131C155.569 57.5128 155.575 57.5141 155.58 57.5167C155.585 57.5194 155.589 57.5234 155.592 57.5283C155.595 57.5332 155.597 57.5388 155.597 57.5445C155.597 57.5502 155.596 57.5558 155.593 57.5608C153.476 61.6893 151.382 65.7764 149.311 69.822C149.295 69.852 149.287 69.8961 149.287 69.9544Z" fill="white"/>
<path d="M155.997 57.5105H163.971C164 57.5105 164.028 57.5222 164.048 57.543C164.069 57.5639 164.08 57.5922 164.08 57.6217V66.3282C164.08 66.369 164.096 66.4083 164.124 66.4379C164.152 66.4675 164.191 66.4851 164.232 66.4872C169.424 66.805 172.703 71.2735 171.648 76.3644C170.928 79.8343 167.67 82.3268 164.141 82.4036C163.156 82.4248 162.337 82.4275 161.683 82.4116C161.659 82.4109 161.636 82.4008 161.619 82.3835C161.602 82.3662 161.593 82.343 161.593 82.3189V59.995C161.593 59.9697 161.583 59.9455 161.565 59.9276C161.547 59.9097 161.523 59.8997 161.497 59.8997H156.007C155.987 59.8997 155.967 59.8913 155.953 59.8764C155.938 59.8615 155.93 59.8413 155.93 59.8202V57.5793C155.93 57.5611 155.937 57.5435 155.95 57.5306C155.962 57.5177 155.979 57.5105 155.997 57.5105ZM164.08 74.3941C164.079 77.6345 164.082 79.3685 164.091 79.5963C164.092 79.6147 164.097 79.6326 164.105 79.6491C164.113 79.6656 164.124 79.6804 164.137 79.6924C164.151 79.7045 164.167 79.7138 164.184 79.7195C164.201 79.7253 164.219 79.7276 164.237 79.7261C167.11 79.5354 169.379 77.3422 169.382 74.3941C169.382 71.4487 167.112 69.2529 164.237 69.0622C164.219 69.0611 164.202 69.0636 164.185 69.0696C164.168 69.0755 164.152 69.0848 164.139 69.0969C164.126 69.1089 164.115 69.1235 164.107 69.1398C164.099 69.1562 164.095 69.1739 164.094 69.1919C164.085 69.4197 164.08 71.1538 164.08 74.3941Z" fill="white"/>
<path d="M74.8148 73.6468C74.8118 73.6386 74.8064 73.6315 74.7994 73.6263C74.7924 73.6211 74.7841 73.618 74.7753 73.6175C74.7666 73.6169 74.7579 73.6189 74.7503 73.6231C74.7427 73.6274 74.7365 73.6338 74.7324 73.6415L70.478 82.348C70.4685 82.3672 70.4535 82.3833 70.4347 82.3946C70.4159 82.4058 70.3941 82.4117 70.3717 82.4116H67.9722C67.9634 82.4117 67.9547 82.4095 67.947 82.4053C67.9393 82.401 67.9328 82.3949 67.9283 82.3874C67.9237 82.3799 67.9212 82.3713 67.921 82.3626C67.9207 82.3538 67.9228 82.3451 67.927 82.3374L72.6331 73.1859C72.6438 73.1652 72.6497 73.1423 72.6503 73.1191C72.6508 73.0958 72.646 73.0727 72.6363 73.0515C72.6266 73.0303 72.6121 73.0116 72.5941 72.9968C72.5761 72.982 72.5549 72.9715 72.5322 72.9661C72.3426 72.9184 72.1761 72.8645 72.0326 72.8045C68.2671 71.2152 66.3857 67.2235 67.3796 63.2583C68.2033 59.9791 71.3284 57.6164 74.7431 57.521C75.2479 57.5069 76.0832 57.5078 77.2489 57.5237C77.2851 57.5244 77.3196 57.5392 77.3449 57.565C77.3703 57.5907 77.3845 57.6254 77.3845 57.6614V82.3533C77.3845 82.3695 77.378 82.385 77.3666 82.3964C77.3551 82.4078 77.3396 82.4142 77.3233 82.4142H74.9424C74.9247 82.4142 74.9078 82.407 74.8954 82.3941C74.8829 82.3812 74.8759 82.3636 74.8759 82.3454C74.8812 79.7195 74.8812 76.9613 74.8759 74.0706C74.8759 73.9099 74.8556 73.7686 74.8148 73.6468ZM74.9663 70.8656V60.2334C74.9663 60.2257 74.9632 60.2183 74.9577 60.2128C74.9522 60.2073 74.9448 60.2043 74.937 60.2043H74.9238C73.5128 60.2043 72.1596 60.7627 71.1619 61.7567C70.1643 62.7506 69.6038 64.0988 69.6038 65.5045V65.5945C69.6038 67.0002 70.1643 68.3484 71.1619 69.3423C72.1596 70.3363 73.5128 70.8947 74.9238 70.8947H74.937C74.9448 70.8947 74.9522 70.8917 74.9577 70.8862C74.9632 70.8807 74.9663 70.8733 74.9663 70.8656Z" fill="white"/>
<path d="M117.33 69.4352C120.07 69.4352 121.809 69.4317 122.546 69.4246C122.577 69.4246 122.607 69.4124 122.629 69.3905C122.651 69.3687 122.663 69.339 122.663 69.3081V57.5873C122.663 57.5669 122.671 57.5474 122.685 57.533C122.699 57.5186 122.718 57.5105 122.737 57.5105H125.094C125.11 57.5105 125.125 57.5169 125.136 57.5283C125.147 57.5397 125.153 57.5552 125.153 57.5714V82.356C125.153 82.3721 125.146 82.3876 125.135 82.399C125.123 82.4105 125.108 82.4169 125.092 82.4169H122.737C122.717 82.4169 122.697 82.4088 122.683 82.3944C122.668 82.38 122.66 82.3604 122.66 82.3401V71.9569C122.66 71.9376 122.656 71.9186 122.649 71.9009C122.641 71.8832 122.63 71.8672 122.616 71.8538C122.602 71.8405 122.586 71.83 122.568 71.8232C122.55 71.8163 122.531 71.8131 122.511 71.8138C122.379 71.8174 120.651 71.8191 117.33 71.8191C114.01 71.8191 112.282 71.8165 112.148 71.8112C112.129 71.8105 112.109 71.8137 112.091 71.8205C112.073 71.8274 112.057 71.8378 112.043 71.8512C112.029 71.8645 112.018 71.8805 112.01 71.8982C112.003 71.9159 111.999 71.935 111.999 71.9542L111.996 82.3374C111.996 82.3578 111.988 82.3773 111.974 82.3917C111.959 82.4062 111.94 82.4142 111.919 82.4142H109.565C109.549 82.4142 109.533 82.4078 109.522 82.3964C109.51 82.385 109.504 82.3695 109.504 82.3533L109.512 57.5687C109.512 57.5526 109.518 57.5371 109.529 57.5257C109.54 57.5142 109.555 57.5078 109.57 57.5078H111.927C111.947 57.5078 111.966 57.5159 111.98 57.5303C111.994 57.5447 112.002 57.5643 112.002 57.5846L111.999 69.3055C111.999 69.321 112.001 69.3364 112.007 69.3509C112.013 69.3653 112.021 69.3785 112.032 69.3896C112.043 69.4007 112.056 69.4095 112.071 69.4155C112.085 69.4216 112.1 69.4247 112.116 69.4246C112.853 69.4317 114.591 69.4352 117.33 69.4352Z" fill="white"/>
<path d="M74.9663 70.8656C74.9663 70.8733 74.9632 70.8807 74.9577 70.8862C74.9522 70.8917 74.9448 70.8947 74.937 70.8947H74.9238C73.5128 70.8947 72.1596 70.3363 71.1619 69.3423C70.1643 68.3484 69.6038 67.0002 69.6038 65.5945V65.5045C69.6038 64.0988 70.1643 62.7506 71.1619 61.7567C72.1596 60.7627 73.5128 60.2043 74.9238 60.2043H74.937C74.9448 60.2043 74.9522 60.2073 74.9577 60.2128C74.9632 60.2183 74.9663 60.2257 74.9663 60.2334V70.8656Z" fill="black"/>
<path d="M169.382 74.3941C169.379 77.3422 167.11 79.5354 164.237 79.7261C164.219 79.7276 164.201 79.7253 164.184 79.7195C164.167 79.7138 164.151 79.7045 164.137 79.6924C164.124 79.6804 164.113 79.6656 164.105 79.6491C164.097 79.6326 164.092 79.6147 164.091 79.5963C164.082 79.3685 164.079 77.6345 164.08 74.3941C164.08 71.1538 164.085 69.4197 164.094 69.1919C164.095 69.1739 164.099 69.1562 164.107 69.1398C164.115 69.1235 164.126 69.1089 164.139 69.0969C164.152 69.0848 164.168 69.0755 164.185 69.0696C164.202 69.0636 164.219 69.0611 164.237 69.0622C167.112 69.2529 169.382 71.4487 169.382 74.3941Z" fill="black"/>
<path d="M11.0758 117.352C11.0706 117.35 11.0661 117.346 11.0628 117.341C11.0595 117.337 11.0576 117.332 11.0573 117.326C11.0571 117.32 11.0584 117.315 11.0612 117.31C11.064 117.305 11.0681 117.301 11.0731 117.299C13.8722 115.563 16.8325 113.941 19.954 112.433C24.824 110.081 30.0067 107.81 35.5021 105.62C44.4006 102.073 53.487 98.9452 62.7611 96.2382C64.4583 95.7438 67.4646 94.9474 71.7801 93.849C79.738 91.8236 87.4797 90.5045 95.0053 89.8917C97.4766 89.6887 100.311 89.6436 103.509 89.7566C108.505 89.9341 113.761 90.9009 118.002 93.5126C121.079 95.4091 123.064 98.0685 124.053 101.491C124.737 103.857 124.6 106.198 123.643 108.513C123.362 109.192 122.716 110.889 121.706 113.604C121.644 113.773 121.427 114.062 121.055 114.47C120.074 115.552 118.834 116.726 117.335 117.993C117.261 118.056 117.168 118.094 117.069 118.101C116.423 118.145 115.86 118.109 115.382 117.993C114.955 117.888 114.358 117.732 113.591 117.524C113.297 117.444 112.682 117.405 111.747 117.405C59.5085 117.406 26.049 117.406 11.3681 117.405C11.2565 117.405 11.159 117.387 11.0758 117.352ZM78.5536 96.7312C78.6014 96.8654 78.6874 97.0129 78.8114 97.1736C83.7611 103.637 89.6223 108.88 96.395 112.905C96.7047 113.088 97.0579 113.186 97.4181 113.188C98.8672 113.193 103.922 113.187 112.584 113.17C113.71 113.17 114.579 113.373 115.608 113.668C115.708 113.697 115.816 113.697 115.916 113.668C116.017 113.639 116.107 113.582 116.176 113.503L117.821 111.636C117.888 111.559 117.941 111.47 117.978 111.374C118.66 109.613 119.168 108.308 119.501 107.459C119.851 106.569 120.311 104.791 120.218 104.127C119.704 100.454 117.761 97.8534 114.388 96.326C112.379 95.4166 110.279 94.8003 108.087 94.4771C104.592 93.9615 100.984 93.8096 97.2639 94.0215C91.067 94.3712 84.8577 95.225 78.636 96.5829C78.6204 96.586 78.6056 96.5926 78.5928 96.602C78.5799 96.6114 78.5692 96.6236 78.5614 96.6376C78.5536 96.6517 78.5489 96.6673 78.5475 96.6834C78.5462 96.6996 78.5483 96.7159 78.5536 96.7312Z" fill="white"/>
<path d="M78.5536 96.7312C78.5483 96.7159 78.5462 96.6996 78.5475 96.6834C78.5489 96.6673 78.5536 96.6517 78.5614 96.6376C78.5692 96.6236 78.5799 96.6114 78.5928 96.602C78.6056 96.5926 78.6204 96.586 78.636 96.5829C84.8577 95.225 91.067 94.3712 97.2639 94.0215C100.984 93.8096 104.592 93.9615 108.087 94.4771C110.279 94.8003 112.379 95.4166 114.388 96.326C117.761 97.8534 119.704 100.454 120.218 104.127C120.311 104.791 119.851 106.569 119.501 107.459C119.168 108.308 118.66 109.613 117.978 111.374C117.941 111.47 117.888 111.559 117.821 111.636L116.176 113.503C116.107 113.582 116.017 113.639 115.916 113.668C115.816 113.697 115.708 113.697 115.608 113.668C114.579 113.373 113.71 113.17 112.584 113.17C103.922 113.187 98.8672 113.193 97.4181 113.188C97.0579 113.186 96.7047 113.088 96.395 112.905C89.6223 108.88 83.7611 103.637 78.8114 97.1736C78.6874 97.0129 78.6014 96.8654 78.5536 96.7312Z" fill="#E31E25"/>
<path d="M146.497 111.204L145.673 111.631C145.605 111.665 145.552 111.722 145.52 111.791C145.489 111.86 145.482 111.938 145.5 112.012C146.033 114.108 146.97 115.982 148.309 117.633C148.32 117.646 148.327 117.662 148.33 117.678C148.334 117.695 148.333 117.712 148.328 117.729C148.324 117.745 148.315 117.76 148.303 117.772C148.292 117.785 148.277 117.794 148.261 117.8C143.634 119.479 138.808 120.579 133.784 121.1C133.751 121.104 133.717 121.097 133.689 121.08C133.66 121.063 133.637 121.038 133.624 121.007C133.617 120.993 133.615 120.948 133.616 120.872C133.616 120.865 133.641 120.818 133.691 120.732C134.562 119.229 136.068 117.676 138.208 116.073C140.159 114.61 142.251 113.274 144.485 112.062C145.5 111.511 146.163 111.206 146.475 111.146C146.482 111.145 146.49 111.147 146.496 111.15C146.502 111.154 146.507 111.16 146.509 111.167C146.512 111.173 146.512 111.181 146.509 111.188C146.507 111.194 146.503 111.2 146.497 111.204Z" fill="#E31E25"/>
</svg>
