<svg width="140" height="129" viewBox="0 0 140 129" fill="none" xmlns="http://www.w3.org/2000/svg">
<path d="M0 95.7269V92.4808L0.110905 91.9197C0.112174 91.9148 0.115116 91.9104 0.119279 91.9073C0.123442 91.9042 0.128596 91.9024 0.13395 91.9023H15.7845C15.8236 91.9022 15.8614 91.9168 15.8902 91.9433C15.919 91.9698 15.9368 92.0061 15.9401 92.0452C16.0131 92.8781 16.027 93.7629 15.9819 94.6997C15.9771 94.8093 15.9583 94.906 15.9257 94.9897C15.8863 95.0964 15.8988 95.1695 15.9631 95.209C15.9878 95.2233 16.008 95.2443 16.0215 95.2695C16.035 95.2947 16.0412 95.3232 16.0395 95.3518C16.0203 95.6384 15.8373 95.7822 15.4907 95.7831C13.6096 95.7918 11.7886 95.7952 10.0275 95.7932C10.0039 95.7932 9.98115 95.8027 9.9644 95.8194C9.94766 95.8362 9.93825 95.859 9.93825 95.8827V128.264C9.93825 128.282 9.9347 128.3 9.9278 128.316C9.92091 128.333 9.9108 128.348 9.89808 128.361C9.88535 128.374 9.87026 128.384 9.85367 128.391C9.83708 128.397 9.81932 128.401 9.80142 128.401C8.11528 128.391 7.03263 128.4 6.55348 128.427C6.47378 128.431 6.37824 128.452 6.26686 128.489C6.24204 128.497 6.21563 128.499 6.18981 128.495C6.16398 128.491 6.13946 128.481 6.11825 128.465C6.09704 128.45 6.07975 128.429 6.06777 128.406C6.0558 128.382 6.0495 128.356 6.04937 128.33V95.9548C6.04937 95.9126 6.03272 95.8721 6.00305 95.8421C5.97338 95.8121 5.93308 95.7951 5.89093 95.7947L0 95.7269Z" fill="#353536"/>
<path d="M28.9767 102.659C28.9786 102.661 28.9887 102.669 29.0069 102.685C29.0098 102.687 29.0133 102.689 29.017 102.689C29.0207 102.69 29.0245 102.689 29.028 102.688C29.0314 102.686 29.0344 102.684 29.0365 102.681C29.0386 102.678 29.0399 102.674 29.0401 102.67V102.292C29.0401 102.268 29.043 102.244 29.0487 102.222L29.7732 99.3304C29.776 99.3165 29.7734 99.3016 29.766 99.2885C29.7237 99.2231 29.7276 99.1553 29.7775 99.0851C29.8073 99.0438 29.8351 98.9736 29.861 98.8745C30.1731 97.6838 30.4405 96.5989 30.6633 95.6198C30.7108 95.4049 30.8261 95.288 30.7857 95.0529C30.767 94.9403 30.7757 94.8624 30.8433 94.8018C30.8621 94.7852 30.8762 94.7639 30.884 94.7401C30.8919 94.7163 30.8932 94.6908 30.888 94.6662C30.8376 94.4339 31.0292 94.0819 31.0781 93.8771C31.2519 93.1327 31.4027 92.5315 31.5304 92.0737C31.5445 92.0231 31.5747 91.9785 31.6163 91.9467C31.6579 91.915 31.7087 91.8978 31.7608 91.8977H35.5186C35.5268 91.8978 35.5348 91.8999 35.542 91.9039C35.5492 91.9078 35.5553 91.9134 35.5599 91.9202C35.5644 91.927 35.5672 91.9348 35.5681 91.943C35.5689 91.9511 35.5678 91.9594 35.5647 91.967C35.5258 92.068 35.4452 92.1545 35.4553 92.2699C35.4697 92.4411 35.4327 92.6229 35.3444 92.8153C35.3205 92.866 35.3035 92.9194 35.294 92.974C35.2277 93.3212 34.9219 94.5561 34.3765 96.6788C34.3285 96.8663 34.2348 97.2842 34.0956 97.9324C34.0438 98.1734 33.8565 98.4864 33.904 98.7187C33.9085 98.7402 33.908 98.7624 33.9025 98.7837C33.897 98.805 33.8867 98.8247 33.8724 98.8413C33.7754 98.9548 33.7264 99.1419 33.7254 99.4025C33.7255 99.451 33.7081 99.498 33.6765 99.5352C33.5891 99.6372 33.5464 99.7468 33.5483 99.8642C33.5483 99.8766 33.5516 99.8889 33.5579 99.8996C33.5642 99.9104 33.5732 99.9193 33.584 99.9254C33.5948 99.9316 33.6071 99.9348 33.6195 99.9347C33.632 99.9345 33.6442 99.9311 33.6549 99.9248L33.7384 99.8757C33.7427 99.8727 33.7479 99.8714 33.7531 99.872C33.7583 99.8726 33.7631 99.8751 33.7667 99.879C33.7702 99.8829 33.7722 99.8879 33.7723 99.8931C33.7724 99.8984 33.7706 99.9035 33.7672 99.9075C33.7029 99.9902 33.6472 100.044 33.6001 100.068C33.5703 100.082 33.544 100.103 33.5231 100.129C33.5022 100.154 33.4872 100.184 33.4791 100.216C32.9001 102.449 32.4575 104.233 32.1512 105.567C32.083 105.862 32.0489 106.074 32.0489 106.203C32.0489 106.255 32.0355 106.307 32.01 106.352C31.987 106.394 31.8722 106.835 31.6658 107.675C31.2932 109.196 30.984 110.441 30.7382 111.41C30.7306 111.44 30.7311 111.471 30.7396 111.499L30.7641 111.584C30.7719 111.612 30.7739 111.641 30.7702 111.669C30.7665 111.698 30.7571 111.725 30.7425 111.749C30.6379 111.921 30.5543 112.119 30.4919 112.343C30.296 113.053 30.2355 113.636 30.0123 114.321C29.9758 114.434 29.8975 114.739 29.7775 115.236C29.3694 116.936 28.7217 119.518 27.8345 122.98C27.8323 122.989 27.832 122.999 27.8334 123.008C27.8349 123.017 27.8381 123.026 27.843 123.033C27.8478 123.041 27.8541 123.048 27.8616 123.053C27.869 123.058 27.8775 123.062 27.8864 123.064L27.9728 123.083C27.9821 123.085 27.9901 123.091 27.9956 123.099C28.001 123.107 28.0034 123.116 28.0023 123.126C28.0013 123.136 27.9969 123.144 27.9899 123.151C27.9829 123.158 27.9737 123.161 27.9641 123.162H27.8417C27.813 123.162 27.785 123.171 27.7619 123.188C27.7388 123.205 27.7219 123.23 27.7135 123.257L27.5436 123.827C27.537 123.85 27.5391 123.875 27.5493 123.896C27.5743 123.946 27.568 123.987 27.5306 124.017C27.4845 124.055 27.4581 124.079 27.4514 124.091C27.1912 124.554 26.9842 124.986 26.8306 125.388C26.8126 125.434 26.7834 125.476 26.7456 125.508C26.6938 125.55 26.5387 125.756 26.2804 126.125C26.2535 126.164 26.2482 126.191 26.2646 126.207C26.2674 126.21 26.2703 126.227 26.2732 126.258C26.2739 126.264 26.273 126.271 26.2704 126.277C26.2679 126.282 26.2638 126.288 26.2586 126.291C26.2534 126.295 26.2473 126.298 26.2408 126.299C26.2342 126.3 26.2276 126.299 26.2213 126.297C26.1762 126.279 26.1368 126.28 26.1032 126.3C26.0725 126.318 26.0485 126.346 26.0312 126.383C25.9602 126.546 25.9107 126.651 25.8829 126.699C25.8563 126.739 25.8219 126.773 25.782 126.797L25.2995 127.092C25.2855 127.1 25.2745 127.113 25.2678 127.128C25.2611 127.142 25.2591 127.158 25.2621 127.174C25.2659 127.192 25.2678 127.207 25.2678 127.217C25.2683 127.227 25.2667 127.236 25.2634 127.245C25.26 127.253 25.2549 127.261 25.2484 127.268C25.2419 127.274 25.2341 127.279 25.2255 127.283C25.217 127.286 25.2078 127.287 25.1987 127.287C25.1929 127.287 25.18 127.28 25.1598 127.266C25.1579 127.265 25.1449 127.272 25.1209 127.285C24.3095 127.735 23.8366 127.98 23.7022 128.019C22.5615 128.349 21.3468 128.483 20.0582 128.419C19.9526 128.414 19.8354 128.472 19.7067 128.594C19.6988 128.601 19.6888 128.605 19.6783 128.606C19.6677 128.606 19.6572 128.604 19.6483 128.598C19.6394 128.592 19.6326 128.584 19.6288 128.574C19.6251 128.564 19.6246 128.553 19.6275 128.543C19.6275 128.541 19.641 128.533 19.6679 128.519C19.6813 128.511 19.6861 128.491 19.6823 128.458C19.6803 128.442 19.6621 128.413 19.6275 128.373C19.6042 128.345 19.5915 128.309 19.5915 128.272V124.776C19.5915 124.76 19.5947 124.745 19.601 124.73C19.6073 124.715 19.6166 124.702 19.6282 124.691C19.6398 124.68 19.6535 124.672 19.6685 124.666C19.6835 124.661 19.6995 124.658 19.7154 124.659C20.3866 124.698 21.1154 124.601 21.9018 124.369C22.1543 124.295 22.3536 124.192 22.4995 124.061C22.5325 124.032 22.573 124.012 22.6162 124.006C22.6172 124.006 22.6258 124.005 22.6421 124.004C22.6527 124.004 22.6629 124.001 22.6717 123.995C22.6806 123.99 22.6877 123.982 22.6925 123.973C22.7761 123.816 22.8966 123.691 23.0541 123.598C23.0721 123.587 23.0871 123.571 23.0977 123.553C23.1083 123.535 23.1141 123.515 23.1146 123.494C23.1165 123.428 23.1328 123.384 23.1635 123.36C23.7065 122.938 23.8189 122.523 23.9773 121.862C23.9878 121.82 23.9892 121.776 23.9816 121.734L23.9644 121.634C23.9598 121.609 23.9609 121.584 23.9673 121.559C23.9738 121.535 23.9856 121.512 24.0018 121.493C24.0892 121.388 24.167 121.213 24.2351 120.969C24.3331 120.622 24.4925 120.157 24.7133 119.574C24.7392 119.503 24.8031 119.209 24.9049 118.693C24.9096 118.671 24.9086 118.648 24.902 118.626L24.5707 117.472C24.5659 117.456 24.5572 117.441 24.5454 117.428C24.5336 117.416 24.5191 117.407 24.503 117.401C24.4301 117.377 24.4137 117.334 24.4541 117.27C24.4857 117.219 24.4925 117.165 24.4742 117.107C24.2284 116.32 23.9259 115.211 23.5668 113.779C23.5609 113.755 23.55 113.732 23.5349 113.713C23.5197 113.693 23.5007 113.678 23.479 113.666C23.4194 113.635 23.405 113.576 23.4358 113.489C23.4432 113.468 23.4438 113.446 23.4372 113.425L22.2633 109.335C22.2603 109.325 22.2551 109.315 22.2481 109.307C22.2411 109.299 22.2324 109.292 22.2226 109.287C22.2127 109.283 22.2021 109.28 22.1912 109.28C22.1803 109.28 22.1696 109.282 22.1596 109.286C22.1519 109.289 22.1467 109.291 22.1438 109.292C22.1342 109.294 22.1244 109.294 22.115 109.291C22.1057 109.288 22.0971 109.283 22.0899 109.277C22.0827 109.27 22.0772 109.262 22.0738 109.253C22.0704 109.244 22.0692 109.234 22.0703 109.224L22.1207 108.812C22.1255 108.777 22.1215 108.741 22.1092 108.708C22.0439 108.536 21.9527 108.166 21.8356 107.6C21.7655 107.261 21.6541 106.882 21.5014 106.463C21.4265 106.255 21.3602 106.001 21.3026 105.7C21.2709 105.538 21.2042 105.285 21.1024 104.94C20.4466 102.714 19.8825 100.762 19.41 99.0822C19.3654 98.9236 19.217 98.7836 19.2487 98.635C19.2535 98.6119 19.243 98.5499 19.217 98.4489C19.0308 97.7093 18.8377 97.0207 18.638 96.383C18.1411 94.8033 17.8199 93.4832 17.4382 92.0348C17.432 92.0116 17.4314 91.9873 17.4366 91.9638C17.4417 91.9403 17.4523 91.9184 17.4677 91.8998C17.483 91.8812 17.5026 91.8665 17.5248 91.8568C17.5469 91.8472 17.5711 91.8429 17.5952 91.8443C18.7485 91.9174 19.9305 91.916 21.1413 91.84C21.1685 91.8385 21.1954 91.8465 21.2172 91.8626C21.2391 91.8786 21.2545 91.9018 21.2609 91.928C21.5489 93.1158 21.9383 94.5936 22.429 96.3614C22.5255 96.7134 22.7069 97.0279 22.7358 97.2904C22.755 97.4626 22.8366 97.8271 22.9806 98.384C23.0382 98.6062 23.0325 98.8961 23.2139 99.0736C23.2946 99.1515 23.3148 99.2198 23.2744 99.2785C23.2283 99.3487 23.2427 99.3886 23.3176 99.3982C23.3451 99.4021 23.3699 99.4168 23.3866 99.4389C23.4033 99.4611 23.4106 99.489 23.4069 99.5165L23.3623 99.8382C23.3602 99.8524 23.3621 99.867 23.368 99.8803C23.3739 99.8936 23.3834 99.905 23.3954 99.9132C23.3993 99.9152 23.4194 99.9079 23.4559 99.8916C23.4617 99.8891 23.4681 99.8882 23.4744 99.8891C23.4807 99.89 23.4866 99.8926 23.4915 99.8966C23.4964 99.9006 23.5001 99.9059 23.5022 99.9119C23.5043 99.9179 23.5048 99.9243 23.5034 99.9305C23.467 100.099 23.4847 100.317 23.5567 100.586C23.9091 101.896 24.3355 103.547 24.8357 105.537C24.8402 105.555 24.8483 105.571 24.8595 105.585C24.8706 105.6 24.8846 105.612 24.9006 105.62C24.9726 105.661 24.9951 105.726 24.9683 105.815C24.9491 105.878 24.9687 105.951 25.0273 106.036C25.131 106.186 25.1675 106.361 25.1368 106.56C25.1292 106.609 25.1316 106.66 25.144 106.708C25.3159 107.364 25.5113 108.101 25.7302 108.92C25.7417 108.964 25.772 109.03 25.8209 109.117C25.8574 109.185 25.8742 109.271 25.8713 109.377C25.8665 109.579 25.8723 109.704 25.8886 109.752C26.0663 110.267 26.193 110.82 26.2689 111.413C26.2697 111.42 26.272 111.427 26.2757 111.433C26.2794 111.439 26.2844 111.445 26.2904 111.449C26.2963 111.453 26.3031 111.456 26.3103 111.457C26.3175 111.459 26.325 111.459 26.3322 111.458C26.3342 111.458 26.3428 111.451 26.3582 111.439C26.3614 111.436 26.3652 111.435 26.3692 111.435C26.3732 111.434 26.3772 111.435 26.3808 111.437C26.3844 111.439 26.3874 111.441 26.3895 111.445C26.3916 111.448 26.3927 111.452 26.3927 111.456C26.3899 111.723 26.4508 112.039 26.5757 112.404C26.5916 112.452 26.5936 112.504 26.5814 112.552C26.5574 112.652 26.5968 112.728 26.6995 112.78C26.7131 112.788 26.725 112.798 26.7346 112.81C26.7442 112.822 26.7512 112.835 26.7553 112.85C26.7593 112.865 26.7603 112.88 26.7581 112.895C26.756 112.91 26.7507 112.925 26.7427 112.938C26.7005 113.005 26.6832 113.083 26.6909 113.173C26.6916 113.18 26.6937 113.187 26.697 113.193C26.7004 113.199 26.7048 113.204 26.7102 113.209C26.7156 113.213 26.7218 113.216 26.7283 113.218C26.7349 113.22 26.7418 113.22 26.7485 113.219H26.7499C26.7593 113.218 26.768 113.213 26.7743 113.206C26.7806 113.199 26.7842 113.191 26.7845 113.182C26.7864 113.051 26.8215 112.883 26.8897 112.679C27.0279 112.262 27.1263 111.682 27.1849 110.938C27.1868 110.911 27.1907 110.885 27.1964 110.859L28.9263 102.82C28.9309 102.795 28.9268 102.77 28.9148 102.748C28.8869 102.698 28.873 102.673 28.873 102.672C28.8781 102.663 28.8852 102.656 28.8936 102.65C28.9021 102.645 28.9117 102.641 28.9217 102.64C28.9317 102.639 28.9418 102.64 28.9514 102.643C28.9609 102.646 28.9696 102.652 28.9767 102.659Z" fill="#353536"/>
<path d="M49.4764 113.095C49.4957 113.111 49.4942 113.127 49.4721 113.144C49.451 113.162 49.4395 113.17 49.4376 113.17C49.2489 113.124 49.1927 113.276 49.0516 113.333C48.655 113.494 48.2695 113.631 47.895 113.743C47.7884 113.775 47.7106 113.809 47.6616 113.847C47.5579 113.925 47.3693 113.863 47.1993 113.896C45.5328 114.223 43.816 114.122 42.0372 114.112C42.0091 114.112 41.9819 114.122 41.9613 114.141C41.9406 114.16 41.9281 114.187 41.9263 114.215C41.847 115.373 41.7707 116.428 41.7693 117.692C41.7683 120.265 41.7688 123.461 41.7707 127.28C41.7717 127.645 41.8062 127.979 41.8744 128.281C41.8776 128.295 41.8777 128.31 41.8745 128.324C41.8713 128.338 41.865 128.351 41.856 128.363C41.847 128.374 41.8356 128.383 41.8225 128.389C41.8095 128.396 41.7953 128.399 41.7808 128.399H38.4349C38.402 128.399 38.37 128.409 38.3427 128.427L38.3038 128.453C38.2764 128.47 38.2447 128.48 38.212 128.481C38.1794 128.483 38.1471 128.475 38.1185 128.46C38.0899 128.444 38.066 128.421 38.0495 128.393C38.0329 128.365 38.0243 128.334 38.0244 128.301V92.0192C38.0244 92.0037 38.0275 91.9883 38.0334 91.974C38.0393 91.9596 38.048 91.9466 38.059 91.9356C38.07 91.9246 38.083 91.9159 38.0973 91.9099C38.1117 91.904 38.127 91.9009 38.1425 91.9009C42.3944 91.8981 44.9908 91.8952 45.9318 91.8923C46.0201 91.8923 46.0758 91.8856 46.0989 91.8721C46.1488 91.8442 46.1959 91.8514 46.24 91.8937C46.2688 91.9216 46.3173 91.9409 46.3855 91.9514C47.0356 92.0563 47.7447 92.2193 48.5129 92.4405C48.5637 92.4553 48.618 92.4496 48.6641 92.4246L48.7088 92.4001C48.7152 92.3967 48.7226 92.3954 48.7298 92.3962C48.7371 92.3971 48.7439 92.4002 48.7494 92.405C48.7548 92.4099 48.7587 92.4163 48.7605 92.4234C48.7622 92.4305 48.7618 92.438 48.7592 92.4448L48.7246 92.53C48.7223 92.5352 48.7212 92.5409 48.7212 92.5467C48.7212 92.5524 48.7223 92.5582 48.7246 92.5635C48.7269 92.5689 48.7302 92.5738 48.7344 92.5779C48.7386 92.5821 48.7436 92.5854 48.7491 92.5877L49.1452 92.7492C49.1565 92.754 49.169 92.7556 49.1814 92.7538C49.1938 92.752 49.2057 92.747 49.2158 92.7391L49.2762 92.6886C49.2836 92.6841 49.2922 92.6822 49.3008 92.6833C49.3093 92.6845 49.3172 92.6885 49.3232 92.6948C49.3291 92.701 49.3327 92.7092 49.3333 92.7178C49.3339 92.7264 49.3316 92.7349 49.3267 92.742C49.3257 92.7439 49.3195 92.7516 49.3079 92.7651C49.3008 92.7732 49.2956 92.7828 49.2929 92.7933C49.2901 92.8037 49.2899 92.8146 49.2921 92.825C49.2944 92.8355 49.2991 92.8452 49.3059 92.8533C49.3126 92.8615 49.3212 92.8678 49.331 92.8719C49.6882 93.0238 50.0022 93.2484 50.2729 93.5456C50.2863 93.5602 50.3036 93.5707 50.3227 93.5758C50.3419 93.581 50.3621 93.5805 50.381 93.5744C50.3887 93.5716 50.3939 93.5701 50.3968 93.5701C50.4077 93.5684 50.4189 93.5694 50.4294 93.5731C50.4398 93.5767 50.4492 93.5828 50.4568 93.591C50.4643 93.5991 50.4697 93.6089 50.4726 93.6196C50.4754 93.6303 50.4756 93.6415 50.4732 93.6523C50.4732 93.6543 50.4708 93.6605 50.466 93.6711C50.4585 93.6904 50.4572 93.7115 50.4624 93.7312C50.4676 93.751 50.4789 93.7683 50.4948 93.7807C50.659 93.9135 50.827 94.0856 50.9989 94.2972C51.0334 94.3395 51.055 94.3626 51.0637 94.3665C51.0723 94.3694 51.0867 94.3588 51.1069 94.3347C51.1129 94.3284 51.1164 94.3201 51.1167 94.3116C51.117 94.303 51.114 94.2948 51.1083 94.2886C51.0843 94.2578 51.0536 94.2328 51.0162 94.2135C51.0038 94.2068 50.9943 94.1957 50.9895 94.1824C50.9847 94.1691 50.985 94.1545 50.9902 94.1414L51.0075 94.0996C51.0087 94.0965 51.0106 94.0937 51.013 94.0913C51.0154 94.089 51.0183 94.0873 51.0214 94.0862C51.0246 94.0851 51.0279 94.0847 51.0312 94.085C51.0346 94.0853 51.0378 94.0863 51.0406 94.088C51.1837 94.165 51.2298 94.2544 51.1789 94.3564C51.1213 94.4718 51.1203 94.5752 51.176 94.6666C51.6206 95.3889 51.9336 96.0337 52.1151 96.6012C52.36 97.3677 52.5314 98.1357 52.6293 98.9051C52.6985 99.4524 52.7292 100.24 52.7215 101.267C52.7148 102.141 52.7148 103.599 52.7215 105.64C52.7244 106.715 52.5909 107.773 52.3211 108.815C52.3 108.897 52.3043 108.977 52.3341 109.056C52.3415 109.077 52.3412 109.099 52.3333 109.12C52.3253 109.14 52.3102 109.157 52.2908 109.167C52.2313 109.198 52.1943 109.274 52.1799 109.396C52.1703 109.474 52.1492 109.554 52.1166 109.637C51.8727 110.272 51.5697 110.851 51.2077 111.376C51.198 111.39 51.192 111.407 51.1902 111.425C51.1885 111.442 51.191 111.46 51.1976 111.477L51.2279 111.54C51.2324 111.549 51.2342 111.56 51.233 111.57C51.2318 111.58 51.2277 111.59 51.2211 111.598C51.2146 111.606 51.2059 111.611 51.1961 111.615C51.1863 111.618 51.1758 111.618 51.1659 111.615L51.0738 111.589C51.0608 111.585 51.0469 111.586 51.0349 111.592C50.9657 111.625 50.9653 111.686 51.0334 111.775C51.0394 111.783 51.043 111.792 51.0437 111.802C51.0445 111.812 51.0424 111.822 51.0377 111.83C51.0331 111.839 51.026 111.846 51.0173 111.851C51.0087 111.857 50.9988 111.859 50.9888 111.859C50.985 111.859 50.9753 111.857 50.96 111.853C50.9402 111.849 50.9196 111.85 50.9004 111.856C50.8812 111.862 50.864 111.873 50.8505 111.888C50.4386 112.335 49.982 112.716 49.4808 113.032C49.4755 113.035 49.471 113.04 49.4678 113.045C49.4645 113.05 49.4626 113.056 49.4622 113.062C49.4618 113.069 49.4628 113.075 49.4653 113.081C49.4678 113.086 49.4716 113.091 49.4764 113.095ZM47.4989 109.473C47.3673 109.428 47.2896 109.362 47.2655 109.277C47.2636 109.27 47.2638 109.263 47.2662 109.257C47.2685 109.251 47.2729 109.245 47.2787 109.242C47.2844 109.238 47.2912 109.236 47.2982 109.236C47.3052 109.237 47.3119 109.239 47.3174 109.243C47.5661 109.45 47.7908 109.4 47.9915 109.093C48.0156 109.057 48.0253 109.013 48.0188 108.971C47.9987 108.842 48.0568 108.706 48.1931 108.562C48.1957 108.559 48.1993 108.557 48.2034 108.557C48.2076 108.556 48.212 108.556 48.2162 108.558L48.2666 108.58C48.2756 108.583 48.2855 108.583 48.2944 108.579C48.3032 108.575 48.3103 108.568 48.3141 108.56L48.6022 107.91C48.6165 107.877 48.6262 107.841 48.631 107.805C48.7548 106.828 48.8192 106.034 48.824 105.423C48.8297 104.872 48.8293 103.201 48.8225 100.41C48.8211 99.1792 48.6627 98.0049 48.0217 96.9431C47.995 96.8991 47.9615 96.8592 47.9223 96.8248C47.1474 96.1362 46.2237 95.788 45.1512 95.7803C43.9547 95.7716 42.8509 95.7793 41.8398 95.8034C41.821 95.8038 41.803 95.8115 41.7898 95.825C41.7766 95.8385 41.7693 95.8566 41.7693 95.8755C41.7683 99.4457 41.7688 103.614 41.7707 108.381C41.7707 109.018 41.8235 109.642 41.9291 110.25C41.9333 110.275 41.9455 110.297 41.9638 110.313C41.9821 110.33 42.0054 110.34 42.03 110.341C43.4012 110.438 44.7651 110.376 46.1219 110.154C46.1541 110.148 46.1845 110.136 46.2108 110.116C46.2371 110.097 46.2584 110.072 46.2732 110.043C46.3068 109.977 46.3764 109.965 46.482 110.007C46.5161 110.019 46.5539 110.018 46.5872 110.004L47.5046 109.603C47.5174 109.597 47.5281 109.588 47.5354 109.576C47.5428 109.564 47.5463 109.551 47.5457 109.537C47.5451 109.523 47.5403 109.509 47.532 109.498C47.5236 109.486 47.5121 109.478 47.4989 109.473Z" fill="#353536"/>
<path d="M55.4641 128.411C55.4437 128.411 55.4235 128.407 55.4046 128.399C55.3857 128.391 55.3686 128.38 55.3541 128.365C55.3397 128.351 55.3282 128.334 55.3204 128.315C55.3126 128.296 55.3086 128.276 55.3086 128.255C55.3076 115.087 55.3081 103.161 55.31 92.4753C55.31 92.3753 55.3441 92.1805 55.4123 91.891C55.4146 91.8806 55.4191 91.8707 55.4253 91.862C55.4316 91.8533 55.4395 91.846 55.4487 91.8405C55.4578 91.835 55.468 91.8314 55.4786 91.8299C55.4891 91.8284 55.4999 91.8291 55.5102 91.8318C55.6783 91.878 56.0912 91.9006 56.7489 91.8997C61.8573 91.892 65.8119 91.8963 68.6129 91.9126C68.6415 91.9126 68.669 91.924 68.6893 91.9443C68.7095 91.9646 68.7209 91.9921 68.7209 92.0208V95.5164C68.7209 95.5888 68.6921 95.6581 68.6407 95.7092C68.5894 95.7604 68.5198 95.7891 68.4472 95.7891H59.2709C59.2541 95.7891 59.238 95.7959 59.2261 95.8081C59.2142 95.8203 59.2075 95.8368 59.2075 95.854C59.1912 103.661 59.1907 114.324 59.2061 127.842C59.2061 127.874 59.2229 127.98 59.2565 128.158C59.2622 128.189 59.2611 128.221 59.2532 128.251C59.2452 128.282 59.2307 128.31 59.2106 128.334C59.1905 128.358 59.1654 128.378 59.137 128.391C59.1086 128.404 59.0776 128.411 59.0462 128.411H55.4641Z" fill="#353536"/>
<path d="M83.9251 108.177C83.9261 108.178 83.9117 108.213 83.8819 108.279C83.8601 108.326 83.8488 108.378 83.8488 108.429V111.62C83.8488 111.67 83.8292 111.717 83.7943 111.752C83.7595 111.787 83.7122 111.806 83.663 111.806H75.8074C75.8014 111.806 75.7954 111.807 75.7898 111.81C75.7842 111.812 75.7791 111.816 75.7748 111.82C75.7705 111.824 75.7672 111.829 75.7648 111.835C75.7625 111.84 75.7613 111.846 75.7613 111.852V124.355C75.7613 124.393 75.7767 124.43 75.8039 124.458C75.8312 124.485 75.8682 124.5 75.9068 124.5H85.5844C85.6135 124.5 85.6415 124.512 85.6623 124.532C85.683 124.553 85.6949 124.581 85.6952 124.61L85.7269 127.951C85.7269 127.97 85.7294 127.989 85.7341 128.008L85.7673 128.13C85.7737 128.153 85.7751 128.176 85.7713 128.199C85.7676 128.222 85.7588 128.244 85.7456 128.263C85.7324 128.282 85.7152 128.299 85.695 128.31C85.6748 128.322 85.6523 128.33 85.629 128.332C85.1835 128.375 84.5348 128.398 83.6831 128.398C77.7173 128.399 74.6086 128.399 74.357 128.398C73.5475 128.395 72.8456 128.423 72.2513 128.485C72.2216 128.488 72.1917 128.485 72.1634 128.476C72.1351 128.466 72.109 128.451 72.0869 128.431C72.0648 128.411 72.0471 128.387 72.0349 128.36C72.0228 128.332 72.0165 128.303 72.0165 128.273V92.0099C72.0165 91.9785 72.0289 91.9484 72.0511 91.9263C72.0732 91.9041 72.1033 91.8916 72.1346 91.8916H85.5296C85.5789 91.8916 85.6262 91.9112 85.661 91.9461C85.6958 91.981 85.7154 92.0283 85.7154 92.0777V95.5646C85.7154 95.6243 85.6917 95.6816 85.6496 95.7238C85.6075 95.766 85.5503 95.7897 85.4907 95.7897H75.8391C75.8185 95.7897 75.7987 95.7981 75.7841 95.8129C75.7695 95.8278 75.7613 95.848 75.7613 95.8691V107.745C75.7613 107.788 75.7782 107.829 75.8082 107.859C75.8381 107.89 75.8788 107.907 75.9212 107.907L83.6183 107.925C83.6904 107.926 83.7601 107.951 83.816 107.997C83.8718 108.042 83.9103 108.106 83.9251 108.177Z" fill="#353536"/>
<path d="M88.9188 128.428C88.9123 128.428 88.9057 128.427 88.8996 128.425C88.8935 128.422 88.888 128.419 88.8833 128.414C88.8786 128.41 88.8748 128.404 88.8723 128.398C88.8697 128.392 88.8684 128.386 88.8684 128.379V92.018C88.8683 91.988 88.8751 91.9584 88.8883 91.9314C88.9014 91.9045 88.9205 91.8809 88.9442 91.8625C88.9678 91.8441 88.9953 91.8314 89.0247 91.8253C89.054 91.8193 89.0843 91.82 89.1133 91.8275C89.1987 91.8506 89.2554 91.8631 89.2832 91.865C89.9506 91.9112 90.9473 91.9136 92.2733 91.8722C92.3146 91.8713 92.3876 91.8588 92.4923 91.8347C92.5148 91.8297 92.5382 91.83 92.5606 91.8356C92.583 91.8411 92.6037 91.8519 92.6211 91.8669C92.6385 91.882 92.6521 91.9009 92.6607 91.9221C92.6694 91.9433 92.6728 91.9663 92.6709 91.9891C92.6401 92.4152 92.6229 92.9499 92.619 93.5934C92.6113 94.9052 92.6099 99.6146 92.6147 107.721C92.6147 108.063 92.6954 108.202 93.0454 108.202C94.4857 108.2 96.9626 108.199 100.476 108.2C100.492 108.2 100.507 108.194 100.518 108.183C100.529 108.172 100.535 108.157 100.535 108.141C100.536 103.22 100.536 98.2022 100.534 93.0884C100.534 92.7258 100.515 92.4022 100.477 92.1175C100.474 92.0906 100.476 92.0633 100.484 92.0374C100.492 92.0114 100.505 91.9875 100.523 91.9672C100.54 91.9468 100.562 91.9305 100.587 91.9194C100.611 91.9082 100.638 91.9025 100.665 91.9025H104.325C104.351 91.9025 104.376 91.913 104.395 91.9317C104.413 91.9504 104.424 91.9757 104.424 92.0021V128.272C104.424 128.306 104.411 128.338 104.387 128.361C104.364 128.385 104.332 128.398 104.299 128.398H100.583C100.576 128.398 100.57 128.397 100.564 128.394C100.559 128.392 100.553 128.388 100.549 128.384C100.545 128.379 100.541 128.374 100.539 128.368C100.536 128.362 100.535 128.355 100.535 128.349V112.276C100.535 112.229 100.517 112.185 100.484 112.152C100.451 112.119 100.406 112.1 100.359 112.1H92.7242C92.6951 112.1 92.6673 112.112 92.6468 112.132C92.6262 112.153 92.6147 112.181 92.6147 112.21V128.441C92.6146 128.449 92.6124 128.458 92.6083 128.465C92.6042 128.472 92.5983 128.478 92.5913 128.482C92.5843 128.487 92.5762 128.489 92.568 128.489C92.5597 128.49 92.5515 128.488 92.5441 128.484C92.4673 128.444 92.3343 128.421 92.1451 128.417C91.0687 128.389 89.9933 128.393 88.9188 128.428Z" fill="#353536"/>
<path d="M111.827 111.811C111.812 111.811 111.797 111.817 111.786 111.828C111.775 111.839 111.769 111.854 111.769 111.869V124.396C111.769 124.422 111.78 124.447 111.799 124.466C111.817 124.485 111.842 124.495 111.869 124.495H121.366C121.419 124.495 121.47 124.516 121.508 124.554C121.545 124.591 121.566 124.642 121.566 124.694V128.243C121.567 128.277 121.559 128.31 121.545 128.34C121.53 128.37 121.509 128.396 121.483 128.417C121.456 128.437 121.426 128.452 121.393 128.459C121.36 128.466 121.327 128.465 121.294 128.457C121.177 128.427 121.105 128.412 121.077 128.412C119.336 128.391 115.175 128.389 108.593 128.408C108.388 128.408 108.18 128.552 107.987 128.336C107.929 128.271 107.898 128.162 107.892 128.007C107.884 127.795 107.881 127.505 107.881 127.135C107.88 107.184 107.88 95.7148 107.882 92.7275C107.882 92.4717 107.893 92.2515 107.917 92.0668C107.921 92.0363 107.934 92.0079 107.956 91.9858C107.977 91.9638 108.005 91.9492 108.035 91.9442C108.227 91.9134 108.463 91.898 108.745 91.898C116.091 91.898 119.98 91.8975 120.411 91.8966C120.764 91.8956 121.089 91.8749 121.388 91.8345C121.41 91.8314 121.432 91.8331 121.453 91.8393C121.474 91.8456 121.494 91.8563 121.511 91.8708C121.527 91.8853 121.541 91.9033 121.55 91.9234C121.559 91.9435 121.564 91.9653 121.564 91.9875V95.6735C121.564 95.689 121.561 95.7044 121.555 95.7188C121.549 95.7331 121.54 95.7462 121.529 95.7571C121.517 95.7681 121.504 95.7768 121.49 95.7828C121.475 95.7887 121.46 95.7918 121.444 95.7918H111.853C111.842 95.7918 111.831 95.794 111.821 95.7982C111.811 95.8024 111.802 95.8085 111.794 95.8163C111.786 95.8241 111.78 95.8333 111.776 95.8434C111.772 95.8536 111.769 95.8645 111.769 95.8755V107.763C111.769 107.804 111.785 107.843 111.814 107.871C111.843 107.9 111.882 107.916 111.922 107.916H119.626C119.653 107.916 119.679 107.922 119.703 107.933C119.726 107.945 119.747 107.962 119.764 107.982C119.781 108.003 119.792 108.027 119.798 108.053C119.805 108.078 119.805 108.105 119.799 108.131L119.776 108.231C119.774 108.242 119.773 108.254 119.773 108.265C119.841 109.414 119.851 110.234 119.805 110.728C119.77 111.094 119.753 111.437 119.752 111.755C119.752 111.772 119.748 111.79 119.741 111.806C119.733 111.821 119.722 111.835 119.709 111.847C119.696 111.858 119.68 111.866 119.663 111.871C119.646 111.875 119.628 111.876 119.611 111.873C119.365 111.831 119.08 111.809 118.756 111.808C116.083 111.804 113.773 111.805 111.827 111.811Z" fill="#353536"/>
<path d="M140 116.818V120.099C139.893 121.628 139.743 123.072 139.188 124.522C139.125 124.684 139.055 124.817 138.979 124.922C138.962 124.944 138.951 124.969 138.945 124.995C138.938 125.022 138.938 125.049 138.943 125.076C138.943 125.079 138.943 125.081 138.944 125.083C138.946 125.119 138.935 125.153 138.912 125.18L138.096 126.177C138.064 126.216 138.047 126.265 138.047 126.315V126.434C138.047 126.443 138.045 126.453 138.041 126.461C138.037 126.47 138.032 126.478 138.024 126.484C138.017 126.491 138.009 126.496 138 126.498C137.991 126.501 137.981 126.502 137.972 126.501C137.954 126.5 137.938 126.499 137.924 126.499C137.896 126.497 137.867 126.501 137.84 126.512C137.813 126.523 137.79 126.54 137.77 126.562C137.413 126.97 137.189 127.225 137.098 127.328C137.006 127.431 136.908 127.473 136.804 127.454C136.772 127.448 136.74 127.452 136.712 127.465L135.679 127.941C135.578 127.987 135.473 128.023 135.365 128.048C134.315 128.288 133.196 128.406 132.006 128.401C129.115 128.389 126.852 128.396 125.218 128.423C125.177 128.424 125.137 128.432 125.1 128.448C124.881 128.542 124.749 128.473 124.705 128.24C124.658 127.98 124.734 127.513 124.734 127.197C124.73 105.867 124.731 94.3177 124.738 92.5481C124.738 92.4375 124.746 92.3004 124.763 92.1369C124.769 92.0743 124.798 92.0162 124.845 91.9739C124.891 91.9315 124.952 91.9079 125.015 91.9075C125.974 91.9017 128.22 91.8974 131.754 91.8945C132.025 91.8945 132.468 91.9046 133.085 91.9248C133.38 91.9335 133.835 92.0547 134.097 91.9941C134.144 91.9835 134.188 91.9912 134.228 92.0172C134.274 92.046 134.3 92.0628 134.306 92.0677C134.339 92.0936 134.364 92.1085 134.383 92.1124C135.096 92.2422 135.714 92.4567 136.236 92.7558C136.263 92.7715 136.296 92.7757 136.326 92.7676C136.356 92.7595 136.382 92.7397 136.398 92.7125L136.438 92.6433C136.44 92.6392 136.443 92.6357 136.447 92.6329C136.45 92.6301 136.455 92.6281 136.459 92.627C136.464 92.6259 136.468 92.6258 136.473 92.6266C136.477 92.6274 136.482 92.6292 136.485 92.6317C136.522 92.6577 136.517 92.6986 136.47 92.7544C136.46 92.7653 136.454 92.7783 136.451 92.7922C136.447 92.8061 136.447 92.8207 136.451 92.8346C136.454 92.8485 136.461 92.8614 136.47 92.8723C136.479 92.8832 136.491 92.8917 136.504 92.8972L136.843 93.0357C136.862 93.0435 136.882 93.0459 136.902 93.0426C136.923 93.0393 136.941 93.0304 136.956 93.0169C136.966 93.0083 136.976 92.9977 136.987 92.9852C137.014 92.9544 137.04 92.9472 137.067 92.9636C137.075 92.9674 137.087 92.9799 137.102 93.0011C137.105 93.0059 137.107 93.0115 137.108 93.0174C137.109 93.0232 137.108 93.0291 137.106 93.0344C137.104 93.0398 137.1 93.0444 137.096 93.0479C137.091 93.0514 137.086 93.0537 137.08 93.0544C137.036 93.0621 137.011 93.078 137.004 93.1021C137.002 93.1077 137.002 93.1136 137.003 93.1194C137.004 93.1252 137.006 93.1307 137.01 93.1356C137.013 93.1404 137.018 93.1445 137.023 93.1474C137.028 93.1503 137.034 93.1521 137.04 93.1525C137.094 93.1545 137.153 93.1891 137.217 93.2564C137.95 94.0201 138.472 94.8511 138.784 95.7494C138.793 95.773 138.807 95.7943 138.826 95.8114L138.871 95.8532C138.872 95.8537 138.872 95.8544 138.873 95.8552C138.873 95.8559 138.874 95.8568 138.874 95.8576C139.117 96.6982 139.253 97.2685 139.281 97.5686C139.51 100.034 139.517 102.206 139.304 104.087C139.219 104.842 138.978 105.687 138.583 106.624C138.582 106.626 138.582 106.627 138.582 106.628C138.582 106.629 138.582 106.63 138.583 106.631L138.611 106.665C138.612 106.666 138.612 106.667 138.612 106.668C138.612 106.669 138.612 106.67 138.611 106.671C138.611 106.672 138.61 106.672 138.609 106.673C138.608 106.673 138.607 106.673 138.606 106.673L138.552 106.652C138.538 106.646 138.522 106.645 138.507 106.65C138.492 106.655 138.48 106.666 138.472 106.679C138.186 107.169 137.876 107.563 137.54 107.863C137.383 108.005 137.416 108.103 137.492 108.244C137.497 108.253 137.499 108.262 137.5 108.272C137.5 108.281 137.499 108.29 137.495 108.299C137.492 108.308 137.486 108.316 137.479 108.322C137.472 108.329 137.464 108.334 137.455 108.337C137.26 108.403 137.125 108.413 137.05 108.367C137.038 108.36 137.024 108.356 137.009 108.355C136.995 108.355 136.981 108.359 136.968 108.366L135.904 108.982C135.896 108.986 135.89 108.992 135.886 108.999C135.881 109.007 135.879 109.015 135.88 109.024C135.88 109.033 135.883 109.042 135.887 109.049C135.892 109.056 135.899 109.063 135.906 109.067C136.19 109.203 136.405 109.227 136.552 109.137C136.56 109.132 136.569 109.13 136.579 109.129C136.589 109.129 136.598 109.131 136.607 109.136C136.615 109.14 136.623 109.147 136.628 109.155C136.633 109.163 136.636 109.172 136.637 109.182C136.637 109.185 136.627 109.204 136.606 109.238C136.599 109.25 136.597 109.265 136.6 109.278C136.603 109.292 136.612 109.304 136.624 109.312L137.605 109.958C137.646 109.985 137.684 110.016 137.718 110.051C137.722 110.054 137.837 110.205 138.064 110.504C138.14 110.604 138.311 110.733 138.578 110.893C138.593 110.902 138.611 110.906 138.628 110.906C138.646 110.905 138.663 110.899 138.678 110.889C138.718 110.861 138.744 110.85 138.757 110.857C138.765 110.861 138.771 110.867 138.776 110.874C138.781 110.881 138.784 110.889 138.785 110.898C138.785 110.907 138.784 110.915 138.781 110.923C138.777 110.931 138.772 110.938 138.766 110.944C138.66 111.031 138.663 111.153 138.774 111.309C138.865 111.437 139.001 111.658 139.18 111.974C139.216 112.037 139.242 112.105 139.258 112.177C139.341 112.547 139.453 112.944 139.594 113.366C139.686 113.642 139.766 114.145 139.833 114.876C139.891 115.524 139.947 116.171 140 116.818ZM135.559 103.181C135.533 103.148 135.521 103.114 135.523 103.08C135.57 101.644 135.559 100.251 135.49 98.9002C135.486 98.8311 135.475 98.7629 135.456 98.6967C135.388 98.4601 135.305 98.1557 135.205 97.7835C135.135 97.5229 135.044 97.2969 134.931 97.1055C134.38 96.1591 133.14 95.7854 132.077 95.7782C131.42 95.7724 130.282 95.7801 128.663 95.8013C128.652 95.8017 128.641 95.8062 128.633 95.8141C128.626 95.8219 128.621 95.8323 128.621 95.8431V107.204C128.621 107.232 128.631 107.258 128.65 107.278C128.668 107.298 128.694 107.309 128.721 107.311C130.103 107.406 131.414 107.355 132.651 107.158C133.049 107.095 133.455 106.945 133.87 106.711C133.883 106.704 133.893 106.692 133.898 106.678C133.903 106.663 133.902 106.648 133.896 106.634C133.891 106.622 133.888 106.615 133.887 106.614C133.885 106.604 133.886 106.593 133.889 106.583C133.892 106.574 133.898 106.565 133.905 106.557C133.912 106.55 133.921 106.544 133.931 106.541C133.941 106.538 133.952 106.537 133.962 106.539C134.205 106.582 134.437 106.47 134.658 106.202C135.255 105.473 135.418 104.866 135.48 103.993C135.512 103.556 135.54 103.318 135.565 103.277C135.574 103.262 135.578 103.245 135.577 103.228C135.576 103.211 135.57 103.194 135.559 103.181ZM137.233 108.253C137.221 108.25 137.201 108.253 137.173 108.26C137.167 108.262 137.162 108.264 137.159 108.269C137.155 108.273 137.153 108.278 137.153 108.283C137.152 108.289 137.153 108.294 137.156 108.299C137.159 108.303 137.163 108.307 137.168 108.309C137.198 108.324 137.221 108.328 137.237 108.321C137.244 108.318 137.251 108.313 137.255 108.306C137.259 108.3 137.261 108.292 137.261 108.284C137.26 108.277 137.257 108.269 137.252 108.264C137.247 108.258 137.24 108.254 137.233 108.253ZM134.174 111.827C134.185 111.814 134.193 111.805 134.198 111.799C134.204 111.792 134.209 111.784 134.211 111.774C134.214 111.765 134.214 111.756 134.212 111.747C134.211 111.737 134.207 111.729 134.202 111.721C134.196 111.713 134.189 111.707 134.181 111.702C133.764 111.47 133.315 111.324 132.834 111.265C132.14 111.181 131.385 111.122 130.57 111.088C129.968 111.063 129.412 111.137 128.842 111.062C128.814 111.058 128.786 111.061 128.76 111.069C128.734 111.077 128.709 111.091 128.689 111.109C128.668 111.127 128.651 111.15 128.64 111.175C128.629 111.2 128.623 111.228 128.623 111.255V124.187C128.623 124.232 128.632 124.277 128.649 124.318C128.666 124.36 128.691 124.397 128.723 124.429C128.755 124.461 128.793 124.486 128.835 124.503C128.876 124.52 128.921 124.528 128.966 124.528L133.009 124.498C133.107 124.497 133.205 124.482 133.299 124.453C133.976 124.244 134.491 124.111 134.859 123.726C135.059 123.518 135.101 123.288 134.985 123.036C134.983 123.033 134.983 123.029 134.984 123.026C134.985 123.022 134.987 123.019 134.99 123.017L135.025 122.997C135.03 122.994 135.036 122.992 135.042 122.991C135.048 122.991 135.055 122.991 135.061 122.993C135.067 122.995 135.072 122.998 135.077 123.002C135.082 123.007 135.086 123.012 135.088 123.017C135.102 123.044 135.11 123.08 135.113 123.126C135.114 123.147 135.121 123.167 135.133 123.184C135.145 123.202 135.161 123.215 135.18 123.224C135.2 123.232 135.221 123.235 135.241 123.233C135.262 123.23 135.281 123.221 135.297 123.208C135.448 123.086 135.517 122.993 135.505 122.931C135.503 122.924 135.499 122.918 135.494 122.913C135.489 122.908 135.482 122.905 135.475 122.904C135.468 122.903 135.46 122.905 135.454 122.908C135.448 122.912 135.443 122.917 135.44 122.924C135.387 123.042 135.336 123.08 135.286 123.038C135.279 123.032 135.275 123.025 135.273 123.017C135.272 123.009 135.273 123 135.277 122.993L135.446 122.701C135.447 122.699 135.449 122.696 135.451 122.694C135.454 122.692 135.457 122.691 135.46 122.69C135.463 122.69 135.466 122.69 135.47 122.69C135.473 122.691 135.476 122.692 135.479 122.694C135.488 122.702 135.5 122.71 135.515 122.719C135.522 122.723 135.53 122.726 135.538 122.727C135.547 122.728 135.555 122.728 135.564 122.725C135.572 122.722 135.579 122.718 135.586 122.712C135.592 122.706 135.598 122.699 135.601 122.691C135.869 122.09 136.016 121.576 136.042 121.148C136.156 119.326 136.161 117.276 136.058 114.996C136.03 114.381 135.835 113.686 135.474 112.913C135.449 112.858 135.408 112.813 135.356 112.783C135.274 112.735 135.267 112.686 135.336 112.636C135.345 112.629 135.352 112.621 135.356 112.611C135.36 112.601 135.361 112.589 135.359 112.579C135.357 112.568 135.352 112.558 135.345 112.55C135.337 112.542 135.328 112.536 135.317 112.533C135.298 112.529 135.145 112.391 134.858 112.119C134.738 112.006 134.565 111.895 134.339 111.788C134.33 111.783 134.32 111.781 134.309 111.78C134.298 111.78 134.288 111.781 134.278 111.785C134.268 111.789 134.259 111.795 134.252 111.802C134.244 111.809 134.238 111.818 134.234 111.828C134.22 111.864 134.208 111.881 134.198 111.881C134.192 111.882 134.185 111.88 134.179 111.877C134.174 111.874 134.169 111.869 134.166 111.863C134.164 111.857 134.163 111.85 134.164 111.843C134.166 111.837 134.169 111.831 134.174 111.827ZM135.175 123.339C135.147 123.355 135.13 123.376 135.123 123.401C135.122 123.406 135.122 123.411 135.123 123.416C135.124 123.421 135.126 123.425 135.129 123.429C135.132 123.433 135.135 123.436 135.14 123.438C135.144 123.44 135.148 123.441 135.153 123.442C135.174 123.442 135.191 123.434 135.204 123.42C135.21 123.412 135.215 123.401 135.218 123.39C135.22 123.379 135.219 123.368 135.216 123.358C135.212 123.349 135.207 123.342 135.199 123.338C135.192 123.335 135.183 123.335 135.175 123.339Z" fill="#353536"/>
<path d="M86.3203 0C86.6659 0.079828 86.9271 0.453 87.1038 1.11952C87.1141 1.16172 87.1373 1.19916 87.1701 1.22627L87.3141 1.35034C87.3346 1.36769 87.3488 1.39135 87.3543 1.41753C87.3597 1.4437 87.3562 1.47085 87.3443 1.49461L87.3184 1.54943C87.3134 1.56159 87.3114 1.57476 87.3125 1.58787C87.3136 1.60099 87.3179 1.61368 87.3249 1.62492C87.3319 1.63616 87.3415 1.64563 87.3529 1.65257C87.3643 1.6595 87.3771 1.66371 87.3904 1.66485C87.3952 1.66485 87.4053 1.66244 87.4207 1.65763C87.4291 1.6547 87.4382 1.6542 87.4469 1.6562C87.4556 1.6582 87.4636 1.66262 87.4699 1.66894C87.4762 1.67527 87.4806 1.68324 87.4826 1.69196C87.4846 1.70067 87.4841 1.70978 87.4812 1.71823C87.4783 1.72784 87.474 1.7389 87.4682 1.75141C87.4479 1.80043 87.4468 1.85511 87.4653 1.90433C88.196 3.92023 88.5902 4.99454 88.6478 5.12727C88.7775 5.42927 88.8499 5.60287 88.8653 5.64807C88.9037 5.75483 89.0319 6.19244 89.2499 6.96091C89.3747 7.40236 89.4938 7.76544 89.6071 8.05013C89.8289 8.60555 89.8735 8.97344 90.0723 9.49136C90.2759 10.0232 90.4636 10.634 90.6355 11.3236C90.6441 11.3563 90.6758 11.3798 90.7305 11.3942L91.2505 13.0548C91.2572 13.0748 91.2601 13.0958 91.2591 13.1168C91.2462 13.4905 91.4176 13.805 91.5328 14.1959C91.5875 14.3835 91.8814 15.4256 92.4143 17.3222C92.4661 17.5097 92.456 17.6857 92.5569 17.869C92.603 17.9546 92.6342 18.0272 92.6505 18.0868C93.4158 20.801 93.8248 23.2953 93.8777 25.57C93.9314 27.9331 93.5286 30.3539 92.6692 32.8324C92.5377 33.2113 92.3134 33.7042 91.9966 34.3111C91.7306 34.8209 91.4958 35.309 91.2923 35.7754C91.2684 35.83 91.2368 35.8805 91.1986 35.9255C90.7046 36.5069 90.4886 37.1763 89.947 37.6913C89.8193 37.8125 89.7674 37.9577 89.7914 38.127C89.7927 38.1348 89.7918 38.1428 89.789 38.1502C89.7861 38.1576 89.7814 38.1641 89.7752 38.1692C89.7689 38.1743 89.7615 38.1777 89.7535 38.1792C89.7455 38.1806 89.7372 38.18 89.7295 38.1775C89.7141 38.1717 89.7031 38.1645 89.6964 38.1559C89.6942 38.1534 89.6916 38.1514 89.6886 38.1501C89.6856 38.1487 89.6824 38.148 89.6791 38.148C89.6758 38.148 89.6726 38.1487 89.6696 38.1501C89.6666 38.1514 89.664 38.1534 89.6618 38.1559L88.9949 38.9378L88.6752 39.3057C88.6665 39.3153 88.6605 39.3269 88.658 39.3394C88.6554 39.3519 88.6564 39.3647 88.6608 39.3764C88.6675 39.3946 88.6718 39.4076 88.6738 39.4153C88.6762 39.4245 88.6764 39.4342 88.6742 39.4434C88.672 39.4527 88.6676 39.4613 88.6614 39.4684C88.6551 39.4755 88.6471 39.481 88.6383 39.4843C88.6294 39.4877 88.6198 39.4887 88.6104 39.4874C88.5989 39.4865 88.5816 39.4783 88.5585 39.4629C88.5412 39.4518 88.5203 39.4478 88.5001 39.4519C88.48 39.4559 88.4622 39.4676 88.4505 39.4846C88.4476 39.4894 88.4395 39.5076 88.426 39.5394C88.4219 39.5486 88.4203 39.5588 88.4211 39.5691C88.4219 39.5794 88.4252 39.5898 88.4308 39.5994C88.4363 39.6091 88.444 39.6179 88.4534 39.6252C88.4627 39.6325 88.4735 39.6381 88.4851 39.6418C88.4995 39.6466 88.5105 39.6625 88.5182 39.6894C88.5205 39.6968 88.5206 39.7047 88.5186 39.7122C88.5165 39.7197 88.5124 39.7264 88.5066 39.7316C88.5008 39.7368 88.4937 39.7402 88.486 39.7414C88.4784 39.7426 88.4706 39.7416 88.4635 39.7385C88.4404 39.7289 88.4203 39.7159 88.403 39.6995C88.3837 39.6811 88.3582 39.6705 88.3315 39.67C88.3048 39.6695 88.279 39.679 88.2589 39.6966C88.1091 39.8322 88.0429 39.9698 88.0602 40.1092C88.0609 40.1159 88.0599 40.1227 88.0572 40.1289C88.0546 40.1351 88.0504 40.1405 88.045 40.1446C88.0396 40.1487 88.0333 40.1513 88.0266 40.1522C88.0199 40.1531 88.0131 40.1522 88.0069 40.1496C87.9762 40.1371 87.9584 40.129 87.9536 40.1251C87.9459 40.1193 87.9315 40.1232 87.9104 40.1367C87.7769 40.2184 87.6516 40.2973 87.5345 40.3733C87.5159 40.3854 87.5012 40.4025 87.492 40.4227C87.4828 40.4429 87.4796 40.4653 87.4826 40.4872C87.4845 40.4968 87.4855 40.505 87.4855 40.5117C87.4865 40.5209 87.4854 40.5302 87.4822 40.5388C87.4791 40.5475 87.4739 40.5553 87.4672 40.5616C87.4605 40.5679 87.4524 40.5726 87.4436 40.5752C87.4347 40.5778 87.4254 40.5783 87.4163 40.5767C87.401 40.5747 87.3875 40.569 87.376 40.5594C87.3731 40.5565 87.0419 40.7786 86.9655 40.8234C86.9139 40.854 86.8664 40.8919 86.8244 40.9359C86.5488 41.2292 86.2857 41.4735 86.0351 41.6688C85.362 42.1929 84.7037 42.6883 84.0604 43.1547C83.6667 43.4404 83.3129 43.6529 82.9989 43.7924C82.9548 43.8116 82.9133 43.8353 82.875 43.8631C82.464 44.1651 82.0487 44.4175 81.6291 44.6205C81.5629 44.6532 81.5149 44.6945 81.4851 44.7446C81.4582 44.7898 81.415 44.8071 81.3555 44.7965C81.348 44.7947 81.3403 44.7957 81.3339 44.7994L80.5446 45.2553C80.5328 45.2622 80.523 45.2718 80.5157 45.2833C80.5085 45.2949 80.5041 45.308 80.503 45.3215C80.5019 45.3351 80.504 45.3487 80.5092 45.3613C80.5145 45.3739 80.5226 45.385 80.533 45.3938L80.6079 45.4587C80.6115 45.4612 80.6146 45.4645 80.6169 45.4682C80.6193 45.472 80.6208 45.4761 80.6216 45.4805C80.6223 45.4848 80.6222 45.4893 80.6212 45.4936C80.6202 45.4979 80.6184 45.502 80.6159 45.5056C80.6133 45.5092 80.6101 45.5122 80.6063 45.5146C80.6026 45.5169 80.5984 45.5185 80.5941 45.5192C80.5897 45.52 80.5853 45.5199 80.581 45.5189C80.5767 45.5179 80.5726 45.5161 80.569 45.5135C80.5076 45.477 80.4754 45.4563 80.4725 45.4515C80.4422 45.4005 80.3983 45.3605 80.3494 45.3392C80.3004 45.3179 80.2499 45.3168 80.2075 45.3361C79.7965 45.5207 79.3736 45.7261 78.9386 45.9521C78.5996 46.1271 78.1507 46.3171 77.5919 46.5219C77.5853 46.5245 77.5793 46.5285 77.5743 46.5336C77.5694 46.5387 77.5656 46.5449 77.5633 46.5516C77.561 46.5583 77.5601 46.5655 77.5608 46.5726C77.5615 46.5796 77.5638 46.5865 77.5674 46.5926C77.578 46.6109 77.5828 46.6215 77.5818 46.6244C77.5811 46.6309 77.5787 46.6371 77.5749 46.6425C77.5712 46.6479 77.5661 46.6522 77.5602 46.6551C77.5543 46.6579 77.5478 46.6593 77.5412 46.659C77.5347 46.6586 77.5283 46.6567 77.5227 46.6532L77.4623 46.6157C77.4377 46.6006 77.4099 46.5916 77.381 46.5896C77.3522 46.5876 77.3232 46.5926 77.2966 46.6042L75.116 47.5592C75.1102 47.5621 75.1044 47.564 75.0987 47.565C74.3382 47.7439 73.7678 47.9228 73.3876 48.1017C73.353 48.118 73.3204 48.1512 73.2896 48.2012C73.278 48.2188 73.261 48.232 73.2414 48.2385C73.2217 48.2451 73.2006 48.2446 73.1816 48.2373C73.0078 48.1719 72.7452 48.2002 72.3937 48.3224C72.33 48.344 72.2742 48.3843 72.2336 48.4381C72.1931 48.4918 72.1696 48.5566 72.1662 48.6239C72.1595 48.7663 72.1561 48.9567 72.1561 49.1952C72.159 60.298 72.1623 67.307 72.1662 70.2222C72.1662 70.6867 72.1907 71.2383 72.2396 71.8769C72.3333 73.1104 72.5738 74.3526 73.3199 75.3754C73.3746 75.4514 73.4332 75.4553 73.4956 75.387C73.4979 75.3833 73.5015 75.3808 73.5057 75.3798C73.5099 75.3789 73.5143 75.3796 73.5179 75.3819C73.5215 75.3842 73.5241 75.3879 73.5251 75.3921C73.526 75.3962 73.5253 75.4006 73.523 75.4043L73.4625 75.5543C73.4559 75.5707 73.4544 75.5887 73.458 75.606C73.4617 75.6234 73.4704 75.6392 73.483 75.6516C73.4957 75.6639 73.5117 75.6722 73.529 75.6755C73.5464 75.6787 73.5643 75.6767 73.5806 75.6697L73.6411 75.6438C73.6501 75.6399 73.6602 75.6389 73.6698 75.641C73.6794 75.6431 73.6882 75.6482 73.6948 75.6555C73.7015 75.6628 73.7057 75.6719 73.7069 75.6817C73.7081 75.6915 73.7062 75.7014 73.7016 75.7101L73.6785 75.7505C73.6689 75.7674 73.6659 75.7872 73.6702 75.806C73.6745 75.8247 73.6857 75.841 73.7016 75.8515C74.138 76.1343 74.5009 76.3233 74.6075 76.4704C74.6555 76.5358 74.7098 76.5584 74.7703 76.5382C74.898 76.4949 74.9311 76.505 74.8697 76.5685C74.8428 76.5974 74.8274 76.6166 74.8236 76.6262C74.8199 76.6352 74.8186 76.645 74.82 76.6547C74.8213 76.6643 74.8252 76.6734 74.8312 76.681C74.8372 76.6887 74.8452 76.6945 74.8542 76.6981C74.8632 76.7017 74.873 76.7027 74.8826 76.7012C74.923 76.6964 75.0632 76.7565 75.3032 76.8816C75.3877 76.9258 75.5303 76.9715 75.731 77.0186C76.6662 77.2379 77.4877 77.3663 78.1954 77.4038C78.6697 77.4288 79.0231 77.4611 79.2555 77.5005C79.326 77.5127 79.3899 77.5492 79.436 77.6036C79.4821 77.6579 79.5074 77.7267 79.5075 77.7977V78.47C79.5075 78.5503 79.4756 78.6274 79.4189 78.6842C79.3622 78.741 79.2853 78.7729 79.205 78.7729H60.815C60.7875 78.7729 60.7603 78.7799 60.7357 78.7931L60.4534 78.9576C60.4459 78.9616 60.4375 78.9637 60.429 78.9636C60.4204 78.9635 60.4121 78.9612 60.4048 78.957C60.3976 78.9528 60.3916 78.9467 60.3875 78.9395C60.3834 78.9323 60.3813 78.9241 60.3814 78.9157V77.7212C60.3814 77.661 60.4052 77.6032 60.4476 77.5605C60.4899 77.5178 60.5475 77.4937 60.6076 77.4933C62.2322 77.4817 63.7657 77.1865 65.208 76.6075C65.496 76.4921 65.7476 76.3045 65.9627 76.0448C65.9924 76.0093 66.0257 75.9765 66.0621 75.9467C66.354 75.714 66.5167 75.5726 66.5503 75.5226C66.7779 75.1831 66.9676 74.7887 67.1193 74.3396C67.5043 73.2018 67.6964 71.9856 67.6954 70.6911C67.6954 69.4455 67.6959 62.1841 67.6968 48.9067C67.6968 48.8211 67.6901 48.6725 67.6767 48.4609C67.6754 48.4376 67.6679 48.4149 67.6551 48.3952C67.6422 48.3755 67.6243 48.3593 67.6032 48.3484C67.5096 48.3008 67.3584 48.3166 67.2446 48.2791C66.534 48.0502 66.0265 47.891 65.7222 47.8016C65.0409 47.6011 64.1277 47.148 63.4234 46.9706C63.1541 46.9028 62.9092 46.7109 62.6255 46.6229C62.6115 46.6184 62.5967 46.617 62.582 46.6187C62.5673 46.6204 62.5532 46.6253 62.5405 46.633C62.529 46.6407 62.5208 46.645 62.516 46.646C62.5084 46.6488 62.5002 46.6494 62.4924 46.6478C62.4845 46.6461 62.4772 46.6423 62.4714 46.6368C62.4655 46.6312 62.4614 46.6241 62.4593 46.6163C62.4573 46.6085 62.4574 46.6003 62.4598 46.5926C62.4598 46.5907 62.4661 46.5787 62.4785 46.5566C62.4812 46.5517 62.4827 46.5463 62.4831 46.5408C62.4835 46.5353 62.4827 46.5298 62.4808 46.5246C62.4789 46.5194 62.4759 46.5147 62.4721 46.5107C62.4682 46.5068 62.4635 46.5037 62.4584 46.5017L59.8499 45.4342C59.8471 45.4332 59.8442 45.4317 59.8413 45.4298L59.5864 45.2726C59.5783 45.2676 59.5692 45.2642 59.5598 45.2627C59.5504 45.2613 59.5409 45.2617 59.5317 45.264C59.5226 45.2663 59.514 45.2704 59.5066 45.2761C59.4991 45.2818 59.493 45.2889 59.4884 45.2971L59.4625 45.3418C59.4616 45.3435 59.4602 45.3448 59.4586 45.3456C59.4571 45.3464 59.4554 45.3466 59.4539 45.3462C59.4097 45.3298 59.4087 45.3115 59.451 45.2913C59.4625 45.286 59.4721 45.2774 59.4786 45.2666C59.4851 45.2557 59.4882 45.243 59.4876 45.2299C59.487 45.2169 59.4827 45.2041 59.4752 45.193C59.4677 45.1819 59.4573 45.173 59.4452 45.1673C58.5253 44.7518 57.7063 44.306 56.988 43.8299C56.959 43.8106 56.9259 43.7984 56.8914 43.7941C56.8569 43.7899 56.8219 43.7937 56.7893 43.8054C56.7681 43.8131 56.7499 43.8179 56.7345 43.8198C56.7247 43.8209 56.7147 43.8195 56.7056 43.8157C56.6964 43.8119 56.6885 43.8057 56.6824 43.7979C56.6763 43.7901 56.6723 43.7808 56.6709 43.771C56.6694 43.7612 56.6705 43.7512 56.674 43.7419L56.7043 43.6683C56.7068 43.6616 56.7079 43.6544 56.7075 43.6473C56.7071 43.6402 56.7051 43.6334 56.7018 43.6273C56.6985 43.6212 56.6938 43.616 56.6883 43.6121C56.6827 43.6082 56.6764 43.6057 56.6697 43.6048C56.6044 43.5933 56.5497 43.6044 56.5055 43.638C56.4921 43.6481 56.4767 43.6553 56.4604 43.659C56.4441 43.6628 56.4271 43.663 56.4108 43.6598C56.3944 43.6565 56.379 43.6498 56.3655 43.64C56.3521 43.6303 56.3409 43.6178 56.3327 43.6034C56.2991 43.5438 56.2395 43.5192 56.1541 43.5298C56.1453 43.5311 56.1364 43.5298 56.1284 43.5262C56.1203 43.5225 56.1134 43.5166 56.1085 43.5091C56.1036 43.5016 56.1008 43.4929 56.1004 43.4838C56.1001 43.4747 56.1022 43.4657 56.1065 43.4577L56.1267 43.4216C56.1318 43.4135 56.1343 43.404 56.1338 43.3945C56.1332 43.3849 56.1298 43.3757 56.1238 43.3682C55.9471 43.1326 55.7815 42.9855 55.6269 42.9268C55.5491 42.8979 55.4762 42.8455 55.408 42.7695C55.3024 42.6532 55.2179 42.606 55.1545 42.6282C55.1369 42.6341 55.1177 42.6332 55.1006 42.6258C55.0836 42.6183 55.0699 42.6048 55.0623 42.5878C55.0402 42.5358 54.972 42.457 54.8578 42.3512C54.8425 42.3373 54.8233 42.3284 54.8027 42.3259C54.7821 42.3233 54.7611 42.3271 54.7426 42.3367C54.7205 42.3483 54.7089 42.354 54.708 42.354C54.6997 42.353 54.6919 42.3496 54.6855 42.3443C54.679 42.339 54.6741 42.332 54.6713 42.324C54.6685 42.316 54.6679 42.3073 54.6695 42.2989C54.6712 42.2905 54.675 42.2826 54.6806 42.2761L54.7037 42.2516C54.7085 42.2467 54.7119 42.2404 54.7135 42.2337C54.715 42.2269 54.7147 42.2198 54.7124 42.2132C54.7102 42.2066 54.7062 42.2008 54.7008 42.1964C54.6954 42.1919 54.6889 42.1891 54.6821 42.1881C54.4353 42.1497 54.2658 42.0395 54.1736 41.8578C54.1501 41.8115 54.1148 41.7722 54.0714 41.7438C53.8236 41.5851 53.6844 41.486 53.6537 41.4466C53.429 41.1561 53.1539 40.9128 52.8284 40.7166C52.7939 40.6955 52.762 40.6703 52.7333 40.6416L52.2753 40.177C52.2569 40.1588 52.2332 40.147 52.2078 40.1433C52.1823 40.1397 52.1565 40.1444 52.1341 40.1569C52.1332 40.1578 52.1303 40.1607 52.1255 40.1655C52.1213 40.169 52.1161 40.171 52.1107 40.1714C52.1053 40.1718 52.0999 40.1704 52.0953 40.1676C52.0907 40.1647 52.0871 40.1604 52.085 40.1554C52.0829 40.1504 52.0825 40.1448 52.0837 40.1395C52.1116 40.0482 52.0837 39.9914 52.0002 39.9693C51.9766 39.9634 51.9544 39.9527 51.9351 39.9378C51.9158 39.9229 51.8997 39.9042 51.8878 39.8827C51.8398 39.7914 51.7923 39.7265 51.7452 39.688C51.728 39.6738 51.7067 39.6654 51.6845 39.6641C51.6622 39.6628 51.6401 39.6687 51.6214 39.6808C51.4831 39.7683 51.3962 39.8092 51.3607 39.8034C51.3517 39.8019 51.3434 39.7976 51.3369 39.7913C51.3304 39.7849 51.326 39.7767 51.3243 39.7678C51.3226 39.7588 51.3236 39.7496 51.3273 39.7413C51.331 39.7329 51.3371 39.7259 51.3448 39.7212C51.4024 39.6865 51.4749 39.663 51.5623 39.6505C51.5742 39.6488 51.5853 39.6439 51.5946 39.6364C51.6039 39.6289 51.611 39.619 51.6152 39.6077C51.6193 39.5965 51.6203 39.5843 51.6181 39.5725C51.6159 39.5608 51.6106 39.5498 51.6026 39.5408C51.2935 39.1898 50.8321 38.6858 50.2185 38.0289C50.0985 37.9 49.7547 37.4052 49.1872 36.5444C49.1797 36.5331 49.1687 36.5241 49.1555 36.5184C49.1507 36.5155 49.1296 36.5247 49.0922 36.5458C49.0888 36.548 49.085 36.549 49.0811 36.5487C49.0772 36.5483 49.0735 36.5467 49.0704 36.544C49.0674 36.5413 49.0653 36.5377 49.0643 36.5336C49.0632 36.5295 49.0634 36.5252 49.0648 36.5213C49.1214 36.3799 49.0792 36.2472 48.938 36.1231C48.902 36.0918 48.873 36.0529 48.8531 36.0092C48.6063 35.4658 48.3345 34.9853 48.0378 34.5679C48.0129 34.5333 48.0037 34.5088 48.0105 34.4944C48.0162 34.4799 48.022 34.4684 48.0278 34.4597C48.033 34.4528 48.0361 34.4444 48.0369 34.4355C48.0376 34.4266 48.036 34.4175 48.0321 34.4092C47.5424 33.3417 47.2745 32.6997 47.2284 32.4833C47.1477 32.1168 46.9979 31.886 46.9187 31.6003C46.3262 29.4556 46.0588 27.3863 46.1164 25.3925C46.1644 23.7306 46.4141 21.9253 46.8654 19.9767C46.8961 19.8411 46.9072 19.7329 46.8985 19.6521C46.8841 19.5078 47.0094 19.404 47.0483 19.2482C47.2313 18.5196 47.5193 17.6266 47.4747 17.4679C47.4612 17.4189 47.4814 17.3799 47.5352 17.351C47.5582 17.3385 47.5808 17.2982 47.6029 17.2299C47.8496 16.4499 48.0215 15.8069 48.1185 15.301C48.1329 15.226 48.1516 15.1731 48.1747 15.1423C48.2121 15.0933 48.2164 15.0413 48.1876 14.9865C48.1779 14.9688 48.174 14.9485 48.1763 14.9286C48.1786 14.9087 48.1871 14.8901 48.2006 14.8754C48.2678 14.8004 48.3326 14.6609 48.395 14.457C48.5938 13.7992 49.0427 12.3012 49.7417 9.96311C49.9847 9.14752 50.2324 8.38338 50.485 7.6707C50.8911 6.52377 51.1086 5.72742 51.5205 4.62377C51.9834 3.38019 52.3555 2.4035 52.6368 1.6937C52.6723 1.60425 52.6786 1.51625 52.6555 1.42969C52.6495 1.40763 52.6503 1.38427 52.6578 1.36266C52.6652 1.34105 52.679 1.32218 52.6973 1.30851C52.9047 1.15366 53.054 0.873299 53.1452 0.467427C53.2096 0.182739 53.3968 0.0269299 53.707 0H86.3203ZM79.0898 44.3103L80.569 43.5745C80.5792 43.5696 80.5882 43.5625 80.5955 43.5539C80.6027 43.5453 80.6082 43.5352 80.6114 43.5244C80.6147 43.5136 80.6157 43.5022 80.6143 43.4909C80.613 43.4797 80.6093 43.4689 80.6036 43.4591L80.5647 43.3913C80.5638 43.389 80.5635 43.3866 80.564 43.3841C80.5644 43.3817 80.5655 43.3795 80.5672 43.3776C80.5688 43.3758 80.571 43.3745 80.5733 43.3739C80.5757 43.3732 80.5782 43.3733 80.5806 43.374C80.7265 43.4442 80.8403 43.4558 80.9219 43.4086C81.2465 43.2182 81.692 42.9715 82.2585 42.6685C82.3007 42.6455 82.3407 42.619 82.3781 42.5892C82.695 42.3353 82.9648 42.1631 83.1875 42.0727C83.2478 42.0482 83.3002 42.0072 83.3388 41.9544C83.4012 41.8707 83.4698 41.8087 83.5447 41.7683C83.8376 41.6087 84.1007 41.4259 84.334 41.2201C84.3446 41.2108 84.352 41.1985 84.3553 41.1848C84.3587 41.1711 84.3578 41.1568 84.3528 41.1436C84.3432 41.1177 84.3355 41.1018 84.3297 41.096C84.3214 41.0873 84.3183 41.0784 84.3211 41.071C84.3239 41.0637 84.3323 41.0585 84.3446 41.0567C84.3569 41.0548 84.3722 41.0564 84.3871 41.061C84.4021 41.0657 84.4156 41.073 84.4248 41.0816C84.4478 41.1037 84.4603 41.1153 84.4622 41.1162C84.497 41.1172 84.5311 41.1076 84.5602 41.0888L85.0557 40.7527C85.0663 40.7454 85.0736 40.7341 85.0761 40.7214C85.0785 40.7087 85.0758 40.6956 85.0686 40.6849L85.0484 40.6517C85.0467 40.648 85.0461 40.6439 85.0467 40.6398C85.0473 40.6358 85.0492 40.632 85.052 40.629C85.0548 40.6261 85.0584 40.624 85.0624 40.6232C85.0664 40.6223 85.0706 40.6227 85.0744 40.6243C85.0763 40.6252 85.084 40.631 85.0974 40.6416C85.1033 40.6467 85.1101 40.6505 85.1175 40.6528C85.125 40.6551 85.1328 40.6559 85.1406 40.6551C85.1484 40.6543 85.156 40.6519 85.1629 40.6481C85.1698 40.6443 85.176 40.6391 85.181 40.6329C85.3807 40.38 85.6193 40.1838 85.8968 40.0443C85.9104 40.0377 85.9208 40.0261 85.9259 40.012C85.9311 39.998 85.9304 39.9827 85.9242 39.9693L85.8997 39.913C85.8958 39.904 85.8955 39.8939 85.899 39.8847C85.9025 39.8755 85.9095 39.8681 85.9184 39.864C85.9511 39.8476 85.976 39.8529 85.9933 39.8799C85.9998 39.8902 86.0096 39.898 86.0212 39.9019C86.0327 39.9058 86.0452 39.9057 86.0567 39.9015C86.2103 39.8505 86.2612 39.7683 86.2093 39.6548C86.2072 39.6492 86.2066 39.6432 86.2078 39.6373C86.2089 39.6315 86.2116 39.626 86.2157 39.6217C86.2197 39.6173 86.225 39.6142 86.2307 39.6126C86.2365 39.6111 86.2425 39.6112 86.2482 39.613C86.2492 39.6139 86.2569 39.6178 86.2713 39.6245C86.2934 39.6343 86.3179 39.6374 86.3418 39.6333C86.3656 39.6292 86.3877 39.6181 86.4052 39.6014C87.2733 38.7801 88.064 37.8846 88.7775 36.9152C89.1759 36.3737 89.4434 35.9938 89.5797 35.7754C89.6556 35.6533 89.718 35.5691 89.767 35.523C89.8327 35.4608 89.8803 35.4059 89.8995 35.3701L90.7089 33.8899C90.7176 33.874 90.7215 33.856 90.7202 33.8381C90.7189 33.8202 90.7125 33.8031 90.7017 33.7889C90.6873 33.7687 90.6801 33.7581 90.6801 33.7571C90.6738 33.7376 90.675 33.7164 90.6836 33.6977C90.6921 33.679 90.7073 33.6642 90.7262 33.6562C90.9552 33.5581 91.0229 33.1815 91.1065 33.0271C91.116 33.0103 91.1221 32.9917 91.1244 32.9723C91.1266 32.953 91.1249 32.9334 91.1194 32.9146C91.0983 32.8377 91.1127 32.7881 91.1626 32.766C91.2069 32.7476 91.2422 32.7123 91.2606 32.6679C91.5131 32.0735 91.6941 31.4772 91.8036 30.879C91.816 30.813 91.8383 30.7498 91.8698 30.6915C91.8996 30.6366 91.9169 30.5991 91.9217 30.5789C92.349 28.6217 92.5098 26.6765 92.4042 24.7433C92.3466 23.706 92.1997 22.1018 91.9145 20.8149C91.5141 19.0019 91.0042 17.087 90.3849 15.0702C90.3792 15.0504 90.3677 15.0323 90.3517 15.0182L90.2466 14.9288C90.2391 14.9226 90.2335 14.9146 90.2303 14.9054C90.227 14.8963 90.2264 14.8865 90.2283 14.877C90.2302 14.8675 90.2347 14.8587 90.2412 14.8516C90.2477 14.8445 90.2561 14.8392 90.2653 14.8365C90.3239 14.8182 90.3359 14.7812 90.3013 14.7254C90.2139 14.5811 90.1602 14.47 90.14 14.3921C89.8183 13.1533 89.4486 11.9867 89.031 10.8922C88.7904 10.2661 88.6392 9.58657 88.3986 8.91717C88.3951 8.90664 88.3893 8.89699 88.3818 8.8888C88.3742 8.88062 88.365 8.87409 88.3547 8.86962C88.3444 8.86515 88.3333 8.86284 88.322 8.86283C88.3108 8.86282 88.2996 8.86511 88.2892 8.86956C88.2815 8.87341 88.2757 8.87582 88.2719 8.87678C88.2595 8.87928 88.2467 8.87834 88.2348 8.87407C88.2229 8.86979 88.2124 8.86232 88.2043 8.85245C88.1962 8.84258 88.1908 8.83066 88.1888 8.81794C88.1868 8.80522 88.1881 8.79216 88.1927 8.78012L88.2604 8.60555C88.2855 8.54315 88.2875 8.4736 88.2661 8.40935C87.9944 7.56971 87.7764 6.9383 87.6122 6.51512C87.4432 6.07943 87.2987 5.62066 87.1787 5.13881C87.1384 4.97723 86.977 4.52279 86.6947 3.77548C86.398 2.9897 86.2151 2.47323 86.146 2.22605C86.072 1.96348 85.9458 1.77305 85.7672 1.65475C85.7616 1.65112 85.7569 1.64628 85.7534 1.64058C85.7499 1.63489 85.7477 1.62849 85.747 1.62185C85.7464 1.61521 85.7472 1.6085 85.7494 1.60221C85.7516 1.59592 85.7552 1.59021 85.76 1.5855C85.7744 1.57011 85.7825 1.56097 85.7845 1.55809C85.7935 1.53977 85.7978 1.51951 85.797 1.49909C85.7962 1.47867 85.7904 1.45873 85.78 1.44103C85.7696 1.42334 85.7549 1.40844 85.7374 1.39765C85.7198 1.38687 85.6999 1.38053 85.6793 1.3792C84.7028 1.31764 83.8693 1.28735 83.1789 1.28831C75.9667 1.30081 66.3521 1.30322 54.3349 1.29552C54.2878 1.29554 54.2422 1.31287 54.2069 1.34423C54.1716 1.3756 54.149 1.41883 54.1434 1.46576C54.1088 1.73794 54.0229 1.95386 53.8856 2.11352C53.8741 2.12687 53.8653 2.14255 53.8596 2.15968L53.331 3.74086C53.318 3.78084 53.3201 3.82398 53.3368 3.86204L53.3555 3.90532C53.3594 3.91424 53.3607 3.92403 53.3594 3.93366C53.3581 3.94328 53.3542 3.95237 53.3481 3.95994C53.3421 3.96751 53.334 3.97327 53.3249 3.97661C53.3158 3.97995 53.306 3.98074 53.2965 3.9789C53.2513 3.97024 53.224 3.96928 53.2144 3.97601C53.1986 3.98657 53.187 4.00224 53.1815 4.02038C53.176 4.03852 53.1769 4.05801 53.1841 4.07556C53.2417 4.21117 53.2552 4.30638 53.2244 4.36121C53.0891 4.60165 53.0074 4.73582 52.9796 4.76371C52.9653 4.77812 52.9544 4.79563 52.948 4.81489C52.9415 4.83415 52.9395 4.85465 52.9421 4.8748C52.9585 4.98156 52.9249 5.07629 52.8413 5.159C52.8244 5.17595 52.8118 5.19672 52.8045 5.21956C52.7972 5.2424 52.7955 5.26665 52.7996 5.29029C52.824 5.436 52.6354 5.66394 52.5907 5.83706C52.5168 6.12367 52.4414 6.35691 52.3646 6.53676C52.2734 6.75412 52.2009 6.98783 52.1471 7.2379C52.0952 7.48508 51.9848 7.82362 51.8158 8.25354C51.6199 8.75271 51.4956 9.08597 51.4428 9.25331C50.7111 11.5674 50.1508 13.3592 49.7619 14.6287C49.735 14.7143 49.7245 14.7764 49.7302 14.8148C49.7408 14.8927 49.7158 14.9567 49.6553 15.0067C49.6375 15.0218 49.6245 15.0418 49.6179 15.0644L48.8646 17.5905C48.8429 17.664 48.8424 17.742 48.8631 17.8156L48.9251 18.0277C48.928 18.0376 48.9278 18.0482 48.9245 18.058C48.9212 18.0679 48.9149 18.0764 48.9066 18.0826C48.8983 18.0887 48.8882 18.0922 48.8779 18.0924C48.8675 18.0926 48.8574 18.0897 48.8487 18.0839C48.8478 18.083 48.8454 18.081 48.8415 18.0782C48.832 18.0712 48.8209 18.0666 48.8093 18.0649C48.7976 18.0631 48.7857 18.0642 48.7745 18.068C48.7634 18.0718 48.7533 18.0783 48.7452 18.0868C48.737 18.0954 48.731 18.1058 48.7278 18.1171L48.5232 18.8298C48.5185 18.8451 48.516 18.8616 48.516 18.8788C48.5199 19.1491 48.4651 19.4001 48.3518 19.6319C48.3309 19.6758 48.3177 19.7232 48.3129 19.7719C48.2856 20.0532 48.2136 20.5408 48.0897 20.952C47.9793 21.3097 47.9135 21.5877 47.8924 21.7858C47.7992 22.6187 47.7042 23.5319 47.6072 24.5255C47.5428 25.192 47.5448 26.1764 47.6129 27.4786C47.6235 27.6758 47.7387 28.5174 47.9586 30.0033C48.0124 30.3678 48.0892 30.6992 48.1891 30.9973C48.3014 31.332 48.3893 31.6614 48.4526 31.9855C48.4671 32.0625 48.5026 32.1159 48.5592 32.1457C48.6255 32.1813 48.6476 32.2409 48.6255 32.3246C48.6161 32.3603 48.6176 32.3979 48.6298 32.4328C48.7537 32.7732 48.8526 33.0151 48.9265 33.1584C49.1378 33.5643 49.338 33.9764 49.5271 34.3948C49.5982 34.5525 49.7115 34.7444 49.867 34.9704C49.8762 34.9835 49.8893 34.9932 49.9042 34.998C49.9191 35.0027 49.9349 35.0021 49.9491 34.9964C49.9539 34.9945 49.9568 34.9935 49.9578 34.9935C49.9669 34.9924 49.9761 34.9935 49.9846 34.9969C49.9931 35.0003 50.0007 35.0057 50.0066 35.0127C50.0124 35.0198 50.0165 35.0282 50.0183 35.0372C50.02 35.0462 50.0196 35.0555 50.0168 35.0642C49.966 35.2219 50.0308 35.3657 50.2113 35.4956C50.224 35.5044 50.2387 35.5098 50.2541 35.5113C50.2695 35.5128 50.285 35.5104 50.2991 35.5042C50.3625 35.4763 50.398 35.4004 50.4057 35.2763C50.4061 35.2677 50.4098 35.2597 50.4159 35.2537C50.4221 35.2478 50.4303 35.2445 50.4389 35.2445H50.4835C50.4924 35.2446 50.5012 35.2466 50.5092 35.2504C50.5172 35.2543 50.5243 35.2598 50.53 35.2667C50.5356 35.2736 50.5396 35.2817 50.5418 35.2903C50.544 35.2989 50.5443 35.3079 50.5426 35.3167C50.5214 35.4388 50.4629 35.5273 50.3668 35.5821C50.3556 35.5885 50.3458 35.5971 50.338 35.6074C50.3302 35.6177 50.3246 35.6295 50.3215 35.6421C50.3184 35.6546 50.3179 35.6677 50.32 35.6805C50.3221 35.6932 50.3267 35.7054 50.3337 35.7163C50.665 36.2342 51.0179 36.5588 51.2325 37.0652C51.2436 37.0915 51.2621 37.1141 51.2858 37.1305C51.3095 37.1468 51.3374 37.1562 51.3664 37.1575C51.3943 37.1585 51.413 37.1556 51.4226 37.1489C51.4288 37.1446 51.4358 37.1417 51.4432 37.1404C51.4506 37.1391 51.4582 37.1394 51.4654 37.1413C51.4727 37.1432 51.4794 37.1467 51.4852 37.1515C51.491 37.1563 51.4957 37.1623 51.4989 37.1691L51.6617 37.5182C51.6754 37.5482 51.6985 37.5729 51.7274 37.5885C51.7562 37.6041 51.7893 37.6098 51.8216 37.6048C51.8293 37.6038 51.8379 37.6024 51.8475 37.6004C51.8555 37.5989 51.8637 37.5996 51.8713 37.6025C51.8789 37.6053 51.8855 37.6103 51.8905 37.6168C51.8956 37.6234 51.8988 37.6312 51.8998 37.6395C51.9009 37.6478 51.8997 37.6562 51.8965 37.6639C51.8926 37.6735 51.8902 37.6812 51.8893 37.687C51.8875 37.7054 51.8897 37.7241 51.896 37.7415C51.9022 37.759 51.9122 37.7749 51.9253 37.788C52.2441 38.1063 52.4774 38.3732 52.6253 38.5887C52.7107 38.7118 52.8005 38.7642 52.8946 38.7459C52.8999 38.745 52.9053 38.7453 52.9104 38.7468C52.9155 38.7483 52.9202 38.751 52.9241 38.7547C52.928 38.7583 52.931 38.7628 52.9329 38.7678C52.9348 38.7728 52.9355 38.7781 52.9349 38.7834C52.934 38.7921 52.933 38.8017 52.9321 38.8123C52.9303 38.835 52.9342 38.8577 52.9432 38.8786C52.9522 38.8994 52.9662 38.9178 52.9839 38.932C53.1635 39.0753 53.3109 39.2393 53.4261 39.424C53.4405 39.4469 53.4621 39.4644 53.4875 39.4741C53.513 39.4837 53.5409 39.4848 53.5672 39.4774C53.5903 39.4716 53.6023 39.4682 53.6033 39.4673C53.6119 39.4669 53.6205 39.469 53.6281 39.4734C53.6356 39.4777 53.6418 39.4841 53.6458 39.4918C53.6499 39.4995 53.6517 39.5082 53.651 39.5168C53.6504 39.5255 53.6473 39.5338 53.6421 39.5408L53.6162 39.5769C53.6102 39.5846 53.6075 39.5943 53.6086 39.604C53.6097 39.6137 53.6145 39.6226 53.622 39.6288L54.8189 40.6546C54.8237 40.6575 54.828 40.6604 54.8319 40.6632C55.5078 41.0893 55.9207 41.3749 56.0705 41.5202C56.326 41.7664 56.4709 41.9015 56.5055 41.9256C56.509 41.9277 56.513 41.9289 56.517 41.9289C56.5211 41.9289 56.5251 41.9277 56.5286 41.9256C56.542 41.9169 56.5511 41.9054 56.5559 41.8909C56.56 41.8779 56.5591 41.8638 56.5535 41.8516C56.5479 41.8393 56.538 41.8297 56.5257 41.8246C56.374 41.7573 56.3096 41.6808 56.3327 41.5952C56.3342 41.5899 56.3371 41.5851 56.341 41.5811C56.3449 41.5772 56.3497 41.5743 56.355 41.5728C56.3603 41.5712 56.3659 41.571 56.3713 41.5721C56.3767 41.5732 56.3818 41.5757 56.386 41.5793L57.2113 42.2848C57.2356 42.3064 57.2658 42.32 57.2977 42.3237C57.495 42.3512 57.5944 42.5733 57.7716 42.6743C58.3866 43.0234 59.2565 43.5991 60.0487 43.9511C60.9523 44.3541 61.6038 44.6561 62.0032 44.8571C62.0114 44.8612 62.0204 44.8632 62.0295 44.8629C62.0386 44.8626 62.0475 44.8601 62.0553 44.8555C62.0632 44.8509 62.0698 44.8444 62.0745 44.8366C62.0793 44.8289 62.082 44.82 62.0825 44.8109C62.0825 44.7975 62.0829 44.7902 62.0839 44.7893C62.0909 44.7789 62.1006 44.7708 62.112 44.7657C62.1234 44.7607 62.136 44.759 62.1484 44.7608C62.1607 44.7626 62.1723 44.7679 62.1818 44.776C62.1913 44.7841 62.1983 44.7947 62.202 44.8066C62.2039 44.8133 62.1905 44.8306 62.1617 44.8585C62.1547 44.8653 62.1497 44.8737 62.147 44.883C62.1442 44.8923 62.1439 44.9021 62.1461 44.9115C62.1483 44.9209 62.1528 44.9296 62.1593 44.9368C62.1659 44.9439 62.1741 44.9493 62.1833 44.9523C62.3398 45.0042 62.9899 45.2793 64.1335 45.7775C64.434 45.9083 64.7413 46.0194 65.0553 46.1108C65.545 46.2531 65.8494 46.3637 65.9685 46.4426C65.9899 46.4562 66.0158 46.4608 66.0406 46.4554C66.0654 46.45 66.0871 46.435 66.101 46.4137C66.1202 46.3839 66.1307 46.3685 66.1326 46.3676C66.1416 46.3637 66.1514 46.3626 66.161 46.3643C66.1706 46.3661 66.1794 46.3707 66.1863 46.3775C66.1933 46.3843 66.1981 46.393 66.2 46.4026C66.202 46.4121 66.2011 46.422 66.1975 46.431C66.1869 46.4551 66.1672 46.4743 66.1384 46.4887C66.1339 46.4912 66.1302 46.4948 66.1278 46.4993C66.1254 46.5038 66.1244 46.5089 66.1248 46.514C66.1253 46.5191 66.1272 46.5239 66.1304 46.5279C66.1336 46.5318 66.1379 46.5348 66.1427 46.5364L67.5946 46.9706C67.5991 46.9719 67.6039 46.9721 67.6085 46.971C67.6131 46.97 67.6173 46.9677 67.6208 46.9645C67.6243 46.9613 67.6269 46.9573 67.6284 46.9528C67.6298 46.9483 67.6301 46.9435 67.6292 46.9389C67.6253 46.9244 67.6176 46.9066 67.6061 46.8855C67.5992 46.8743 67.5957 46.8613 67.5959 46.848C67.5962 46.8347 67.6002 46.8217 67.6075 46.8105C67.6748 46.7076 67.7079 46.4811 67.7069 46.131C67.6935 39.6274 67.6906 32.0856 67.6983 23.5055C67.6983 23.4711 67.6846 23.438 67.6603 23.4137C67.636 23.3893 67.603 23.3757 67.5687 23.3757C62.9923 23.3622 59.0136 23.3684 55.6327 23.3944C55.3052 23.3973 55.1314 23.4411 55.1113 23.5257C55.1088 23.5364 55.1036 23.5463 55.0961 23.5544C55.0887 23.5624 55.0793 23.5684 55.0688 23.5718C55.0584 23.5751 55.0472 23.5757 55.0365 23.5734C55.0258 23.5712 55.0158 23.5662 55.0076 23.5589C54.9423 23.5012 54.7699 23.5257 54.4905 23.6325C54.1842 23.7508 53.9057 23.8748 53.6551 24.0047C53.6502 24.0073 53.646 24.011 53.6428 24.0156C53.6396 24.0201 53.6376 24.0254 53.6369 24.0309C53.6362 24.0364 53.6368 24.042 53.6387 24.0473C53.6406 24.0525 53.6438 24.0572 53.6479 24.0609C53.6537 24.0657 53.6565 24.0686 53.6565 24.0696C53.6597 24.08 53.6603 24.091 53.6585 24.1018C53.6566 24.1125 53.6523 24.1227 53.6459 24.1315C53.6395 24.1403 53.6311 24.1475 53.6215 24.1525C53.6118 24.1575 53.6012 24.1603 53.5903 24.1605C53.5884 24.1605 53.5768 24.1557 53.5557 24.146C53.5423 24.1399 53.5275 24.1376 53.5128 24.1394C53.498 24.1412 53.484 24.147 53.4722 24.1561C53.1131 24.4476 52.8341 24.7669 52.6354 25.1141C52.6314 25.1206 52.6297 25.1282 52.6303 25.1357C52.6309 25.1433 52.634 25.1505 52.6389 25.1562C52.6439 25.162 52.6505 25.166 52.6579 25.1678C52.6653 25.1696 52.673 25.1689 52.68 25.166L52.7117 25.1213C52.7152 25.1161 52.7201 25.112 52.7258 25.1095C52.7315 25.107 52.7378 25.1061 52.7439 25.107C52.7501 25.108 52.7559 25.1106 52.7606 25.1146C52.7654 25.1187 52.7689 25.124 52.7707 25.13C52.7746 25.1434 52.7717 25.1588 52.7621 25.1761C52.5758 25.5243 52.4462 25.7465 52.3732 25.8426C52.3354 25.8928 52.3107 25.9523 52.3012 26.0158L52.0909 27.4252C52.0792 27.5047 52.0394 27.5773 51.9788 27.6298C51.9182 27.6822 51.841 27.711 51.7611 27.7109H51.3405C51.3033 27.7109 51.2664 27.7034 51.2321 27.6888C51.1979 27.6741 51.167 27.6526 51.1412 27.6257C51.1155 27.5987 51.0955 27.5667 51.0825 27.5318C51.0695 27.4969 51.0636 27.4596 51.0654 27.4224C51.1633 25.1756 51.1648 22.6981 51.0697 19.9897C51.0693 19.9789 51.0711 19.968 51.075 19.9579C51.0789 19.9478 51.0848 19.9385 51.0923 19.9307C51.0998 19.9229 51.1089 19.9167 51.1188 19.9124C51.1288 19.9082 51.1395 19.906 51.1504 19.906H88.8336C88.8447 19.906 88.8553 19.9106 88.8632 19.9187C88.871 19.9268 88.8754 19.9378 88.8754 19.9493V27.3488C88.8753 27.4018 88.8639 27.4541 88.8418 27.5023C88.8198 27.5504 88.7877 27.5932 88.7477 27.6279C88.7076 27.6625 88.6606 27.6881 88.6099 27.7029C88.5591 27.7177 88.5057 27.7214 88.4534 27.7138L88.0544 27.6546C87.9588 27.6401 87.872 27.5903 87.811 27.5151C87.75 27.4399 87.7192 27.3446 87.7246 27.2478C87.7678 26.5005 87.4279 25.7041 87.1398 24.9612C87.0995 24.8563 86.8522 24.5899 86.398 24.1619C86.3845 24.1491 86.3668 24.1416 86.3481 24.1408C86.3293 24.14 86.3107 24.1459 86.2958 24.1576C86.2775 24.1711 86.2636 24.1783 86.254 24.1792C86.2452 24.1804 86.2363 24.1792 86.2281 24.1759C86.22 24.1725 86.2128 24.167 86.2074 24.16C86.202 24.153 86.1986 24.1447 86.1974 24.1359C86.1962 24.1271 86.1973 24.1182 86.2007 24.11C86.2094 24.0888 86.2142 24.0778 86.2151 24.0768C86.2233 24.0524 86.2241 24.0261 86.2174 24.0012C86.2108 23.9763 86.1969 23.9539 86.1777 23.9369C85.9914 23.7657 85.8262 23.7397 85.6822 23.859C85.5843 23.9407 85.5118 23.9609 85.4647 23.9195C85.4032 23.8666 85.3557 23.7863 85.3221 23.6786C85.3149 23.6567 85.3028 23.6367 85.2868 23.6204C85.2708 23.6042 85.2513 23.592 85.2299 23.5848C84.915 23.4762 84.6428 23.4252 84.4133 23.4319C83.8919 23.4478 83.5001 23.367 82.8937 23.3684C76.8309 23.3713 73.2901 23.3728 72.2713 23.3728C72.2404 23.3728 72.2107 23.3849 72.1888 23.4066C72.1669 23.4282 72.1547 23.4576 72.1547 23.4882V46.9259C72.1546 46.94 72.1579 46.9539 72.1643 46.9664C72.1708 46.979 72.1801 46.9899 72.1916 46.9982C72.2031 47.0065 72.2165 47.012 72.2306 47.0142C72.2447 47.0164 72.2591 47.0153 72.2728 47.011L75.417 45.9694C75.422 45.9676 75.4265 45.9647 75.4302 45.9609C75.4339 45.9572 75.4366 45.9526 75.4381 45.9477C75.4397 45.9427 75.44 45.9375 75.4391 45.9325C75.4382 45.9275 75.436 45.9228 75.4328 45.9189C75.4251 45.9083 75.4194 45.8973 75.4155 45.8857C75.4135 45.878 75.4136 45.8699 75.416 45.8624C75.4183 45.8548 75.4228 45.848 75.4288 45.8429C75.4348 45.8377 75.4422 45.8344 75.4501 45.8333C75.4579 45.8322 75.4659 45.8334 75.4732 45.8367C75.478 45.8386 75.489 45.8472 75.5063 45.8626C75.5197 45.8743 75.5361 45.882 75.5537 45.8848C75.5713 45.8876 75.5893 45.8854 75.6057 45.8785L76.4094 45.5265C76.4141 45.5245 76.4185 45.5215 76.4221 45.5177C76.4257 45.514 76.4285 45.5096 76.4304 45.5048C76.4323 45.4999 76.4331 45.4948 76.433 45.4896C76.4329 45.4844 76.4317 45.4793 76.4295 45.4745L76.4094 45.4313C76.4057 45.4224 76.4042 45.4127 76.405 45.4031C76.4057 45.3935 76.4088 45.3843 76.4139 45.3761C76.4189 45.3679 76.4259 45.3611 76.4341 45.3561C76.4423 45.3512 76.4516 45.3482 76.4612 45.3476C76.6802 45.337 76.9101 45.2884 77.1511 45.2019C77.2875 45.1528 77.3763 45.1182 77.4176 45.098C77.8132 44.8989 78.1507 44.7551 78.4302 44.6666C78.4361 44.6648 78.4414 44.6618 78.4459 44.6579C78.4504 44.6539 78.4539 44.649 78.4561 44.6436C78.4599 44.634 78.459 44.6205 78.4532 44.6032C78.4509 44.5965 78.4503 44.5893 78.4513 44.5823C78.4523 44.5753 78.4549 44.5687 78.459 44.5629C78.4631 44.5571 78.4685 44.5524 78.4747 44.5491C78.481 44.5459 78.4879 44.5441 78.495 44.544C78.7005 44.5469 78.8987 44.469 79.0898 44.3103ZM53.0977 4.34101C53.0603 4.33235 53.0473 4.35063 53.0588 4.39583C53.0655 4.42276 53.079 4.43093 53.0991 4.42036C53.1073 4.41626 53.1143 4.4098 53.1193 4.40189C53.1242 4.39398 53.1268 4.38501 53.1266 4.37625C53.1264 4.36748 53.1236 4.35937 53.1184 4.35305C53.1132 4.34673 53.106 4.34252 53.0977 4.34101ZM85.6707 23.7118C85.5794 23.6656 85.5137 23.6469 85.4733 23.6555C85.4605 23.6583 85.4492 23.6651 85.4408 23.675C85.4324 23.6848 85.4275 23.6974 85.4265 23.7109C85.4256 23.7243 85.4287 23.7381 85.4356 23.7504C85.4424 23.7627 85.4525 23.7729 85.4647 23.7796C85.5098 23.8037 85.5761 23.8046 85.6635 23.7825C85.6711 23.7807 85.678 23.7766 85.6832 23.7708C85.6884 23.7649 85.6916 23.7575 85.6924 23.7497C85.6932 23.7419 85.6915 23.7341 85.6876 23.7273C85.6837 23.7205 85.6778 23.7151 85.6707 23.7118ZM56.445 43.501C56.4277 43.4596 56.3989 43.4409 56.3586 43.4447C56.3475 43.446 56.3375 43.451 56.3302 43.459C56.3228 43.4671 56.3185 43.4777 56.3178 43.4894C56.3172 43.5011 56.3203 43.5131 56.3266 43.5238C56.3329 43.5344 56.3421 43.5431 56.3528 43.5486C56.3711 43.5592 56.3956 43.5582 56.4263 43.5457C56.4346 43.5422 56.4413 43.5355 56.4448 43.5272C56.4483 43.5188 56.4484 43.5094 56.445 43.501Z" fill="#353536"/>
</svg>
