<svg width="24" height="24" viewBox="0 0 24 24" fill="none" xmlns="http://www.w3.org/2000/svg">
<path d="M18.346 4.5H5.654C5.025 4.5 4.5 5.025 4.5 5.654V11.424C4.5 12.052 5.025 12.577 5.654 12.577H18.346C18.975 12.577 19.5 12.052 19.5 11.423V5.653C19.5 5.025 18.975 4.5 18.346 4.5Z" stroke="#B2B2B2" stroke-width="1.5" stroke-linecap="round" stroke-linejoin="round"/>
<path d="M16.6151 12.577V10.269C16.6151 9.64099 16.0901 9.11499 15.4621 9.11499H8.53713C7.90913 9.11499 7.38413 9.64099 7.38413 10.269V12.577M6.80713 18.347C8.44713 18.347 8.53713 16.743 8.53713 15.461M17.1911 18.346C15.5511 18.346 15.4611 16.743 15.4611 15.461M12.0001 19.5V15.461" stroke="#B2B2B2" stroke-width="1.5" stroke-linecap="round" stroke-linejoin="round"/>
</svg>
