<svg width="10" height="9" viewBox="0 0 10 9" fill="none" xmlns="http://www.w3.org/2000/svg">
<g clip-path="url(#clip0_62_138)">
<path fill-rule="evenodd" clip-rule="evenodd" d="M10.0004 4.49015C9.99784 4.32454 9.92228 4.1692 9.79515 4.06835L6.10821 0.164873C6.01081 0.061841 5.8778 0.00298702 5.73834 0.00126036C5.59899 -0.000478625 5.46454 0.0550333 5.3648 0.155599C5.26502 0.256164 5.20801 0.393508 5.20633 0.53751C5.20466 0.681501 5.25843 0.8202 5.35581 0.923221L8.22066 3.95602H0.548606C0.40801 3.95393 0.272344 4.01025 0.172228 4.11216C0.072014 4.2142 0.0156369 4.35337 0.015625 4.49861C0.015625 4.64386 0.072014 4.78312 0.17224 4.88506C0.272344 4.98706 0.40801 5.04331 0.548594 5.04131H8.22068L5.35581 8.0741C5.25841 8.17713 5.20466 8.31584 5.20633 8.45983C5.20801 8.60379 5.26493 8.74116 5.36478 8.84173C5.46454 8.94229 5.5989 8.99787 5.73834 8.99608C5.87779 8.99433 6.01081 8.93547 6.10821 8.83237L9.79716 4.92703C9.92755 4.82247 10.0029 4.66076 10.0004 4.49034V4.49015Z" fill="#353536"/>
</g>
<defs>
<clipPath id="clip0_62_138">
<rect width="10" height="9" fill="white"/>
</clipPath>
</defs>
</svg>
