<svg width="24" height="24" viewBox="0 0 24 24" fill="none" xmlns="http://www.w3.org/2000/svg">
<path d="M20.5763 7.29434C20.4617 4.88586 18.4835 3 16.0728 3H7.92664C5.51646 3 3.53828 4.88646 3.42368 7.29434L3.00068 16.1716C2.99288 16.3354 3.05228 16.4956 3.16568 16.6139C3.27848 16.7327 3.43568 16.7999 3.60008 16.7999H6.17105L6.00065 20.3718C5.99285 20.5356 6.05225 20.6958 6.16565 20.814C6.27845 20.9328 6.43565 21 6.60005 21H17.4C17.5637 21 17.7209 20.9328 17.8343 20.814C17.9477 20.6952 18.0071 20.5356 17.9993 20.3718L17.8295 16.7999H20.3999C20.5637 16.7999 20.7209 16.7327 20.8343 16.6139C20.9477 16.495 21.0071 16.3354 20.9993 16.1716L20.5763 7.29434ZM10.542 4.20004H13.4574L11.9994 7.32434L10.542 4.20004ZM4.22947 15.6004L4.62247 7.35135C4.70647 5.58429 6.15845 4.20004 7.92724 4.20004H9.21843L12.8586 12.0003H7.60144L7.80004 7.82836C7.81564 7.49775 7.56004 7.21634 7.22884 7.20074C6.90605 7.19414 6.61685 7.44075 6.60125 7.77196L6.40025 12.0003H6.00065C5.66946 12.0003 5.40066 12.2691 5.40066 12.6003C5.40066 12.9315 5.66946 13.2003 6.00065 13.2003H6.34265L6.22865 15.6004H4.22947ZM12.6 19.8006H7.22944L7.54384 13.2003H13.2V19.8006H12.6ZM14.4 19.8006V13.2003H16.4562L16.7706 19.8006H14.4ZM17.7719 15.6004L17.6579 13.2003H17.9999C18.3311 13.2003 18.5999 12.9315 18.5999 12.6003C18.5999 12.2691 18.3311 12.0003 17.9999 12.0003H17.6009L17.3994 7.77196C17.3832 7.44075 17.0994 7.18514 16.7718 7.20074C16.4406 7.21634 16.185 7.49775 16.2006 7.82836L16.3992 12.0003H14.1822L12.6624 8.74279L14.7822 4.20004H16.0734C17.8421 4.20004 19.2941 5.58429 19.3781 7.35135L19.7711 15.6004H17.7719Z" fill="#B2B2B2"/>
</svg>
