<svg width="24" height="24" viewBox="0 0 24 24" fill="none" xmlns="http://www.w3.org/2000/svg">
<path d="M10.1264 1.5C9.69233 1.49948 9.27155 1.64955 8.93581 1.92462C8.60007 2.19969 8.37016 2.58273 8.28529 3.00839C8.20042 3.43404 8.26586 3.87596 8.47044 4.25876C8.67502 4.64156 9.00607 4.94153 9.40712 5.1075C9.24962 5.961 8.64212 6.639 7.73087 7.521C7.40978 7.78321 7.11352 8.07444 6.84587 8.391C5.77949 9.64775 5.21156 11.2522 5.24987 12.9V19.5C5.24994 20.0652 5.40965 20.6188 5.71061 21.0972C6.01158 21.5756 6.44155 21.9592 6.951 22.2039C7.46045 22.4486 8.02865 22.5444 8.59017 22.4803C9.15169 22.4162 9.68368 22.1947 10.1249 21.8415C10.6569 22.2676 11.3182 22.4999 11.9999 22.5C12.7094 22.5 13.3619 22.2525 13.8749 21.8415C14.316 22.1947 14.848 22.4162 15.4096 22.4803C15.9711 22.5444 16.5393 22.4486 17.0487 22.2039C17.5582 21.9592 17.9882 21.5756 18.2891 21.0972C18.5901 20.6188 18.7498 20.0652 18.7499 19.5V12.7493C18.7505 11.6831 18.4983 10.632 18.0139 9.68224C17.5296 8.73246 16.8269 7.91107 15.9636 7.2855C15.1919 6.522 14.6826 5.89275 14.5326 5.1315C14.9435 4.97702 15.2872 4.68333 15.5038 4.30157C15.7205 3.9198 15.7964 3.47414 15.7183 3.04218C15.6403 2.61022 15.4132 2.21932 15.0766 1.93753C14.7401 1.65573 14.3153 1.50091 13.8764 1.5H10.1264ZM9.75137 3.375C9.75137 3.27555 9.79087 3.18016 9.8612 3.10984C9.93153 3.03951 10.0269 3 10.1264 3H13.8764C13.9758 3 14.0712 3.03951 14.1415 3.10984C14.2119 3.18016 14.2514 3.27555 14.2514 3.375C14.2514 3.47446 14.2119 3.56984 14.1415 3.64017C14.0712 3.71049 13.9758 3.75 13.8764 3.75H10.1264C10.0269 3.75 9.93153 3.71049 9.8612 3.64017C9.79087 3.56984 9.75137 3.47446 9.75137 3.375ZM14.8064 8.25H9.12962C9.89762 7.48125 10.6499 6.59325 10.8779 5.4H13.0574C13.2861 6.5985 14.0414 7.4835 14.8064 8.25ZM7.69037 9.75H16.3094C16.9449 10.6604 17.274 11.7495 17.2491 12.8595L17.2499 12.9V16.5H6.74987V12.75C6.74987 11.634 7.09712 10.6005 7.69037 9.75ZM6.74987 18H17.2499V19.5C17.2499 19.8223 17.1461 20.136 16.9538 20.3946C16.7616 20.6533 16.4912 20.8432 16.1826 20.9362C15.8741 21.0292 15.5438 21.0203 15.2406 20.9109C14.9375 20.8015 14.6777 20.5974 14.4996 20.3288C14.4312 20.2257 14.3383 20.1412 14.2293 20.0828C14.1203 20.0243 13.9986 19.9937 13.8749 19.9937C13.7512 19.9937 13.6294 20.0243 13.5204 20.0828C13.4114 20.1412 13.3185 20.2257 13.2501 20.3288C12.9801 20.7345 12.5211 21 11.9999 21C11.7523 21 11.5085 20.9387 11.2903 20.8216C11.0722 20.7044 10.8864 20.5351 10.7496 20.3288C10.6812 20.2257 10.5883 20.1412 10.4793 20.0828C10.3703 20.0243 10.2486 19.9937 10.1249 19.9937C10.0012 19.9937 9.87941 20.0243 9.77041 20.0828C9.6614 20.1412 9.56855 20.2257 9.50012 20.3288C9.32205 20.5974 9.06222 20.8015 8.75909 20.9109C8.45596 21.0203 8.12565 21.0292 7.81708 20.9362C7.50852 20.8432 7.2381 20.6533 7.04589 20.3946C6.85367 20.136 6.74987 19.8223 6.74987 19.5V18Z" fill="#B2B2B2"/>
</svg>
