<svg width="32" height="32" viewBox="0 0 32 32" fill="none" xmlns="http://www.w3.org/2000/svg">
<path d="M6 4V26H18V4H6ZM5 2H19C19.2652 2 19.5196 2.10536 19.7071 2.29289C19.8946 2.48043 20 2.73478 20 3V27C20 27.2652 19.8946 27.5196 19.7071 27.7071C19.5196 27.8946 19.2652 28 19 28H5C4.73478 28 4.48043 27.8946 4.29289 27.7071C4.10536 27.5196 4 27.2652 4 27V3C4 2.73478 4.10536 2.48043 4.29289 2.29289C4.48043 2.10536 4.73478 2 5 2Z" fill="white"/>
<path d="M8 8H16V10H8V8ZM8 14H16V16H8V14ZM8 20H16V22H8V20ZM20 16H24V18H20V16ZM20 20H24V22H20V20ZM2 26H30V28H2V26Z" fill="white"/>
<path d="M20 12V26H26V12H20ZM19 10H27C27.2652 10 27.5196 10.1054 27.7071 10.2929C27.8946 10.4804 28 10.7348 28 11V27C28 27.2652 27.8946 27.5196 27.7071 27.7071C27.5196 27.8946 27.2652 28 27 28H19C18.7348 28 18.4804 27.8946 18.2929 27.7071C18.1054 27.5196 18 27.2652 18 27V11C18 10.7348 18.1054 10.4804 18.2929 10.2929C18.4804 10.1054 18.7348 10 19 10Z" fill="white"/>
</svg>
