<svg width="39" height="27" viewBox="0 0 39 27" fill="none" xmlns="http://www.w3.org/2000/svg">
<path d="M21.0314 12.4412C18.2063 15.2054 15.483 18.2736 13.1549 18.5136C11.0263 18.7336 11.4763 16.2215 12.1141 15.0614C14.1839 11.2732 17.0638 7.33697 18.3667 5.05684C18.9719 3.99278 19.3958 3.04606 19.6384 2.21668C19.6667 2.11896 19.6752 2.01639 19.6635 1.9152C19.6518 1.81401 19.6201 1.7163 19.5703 1.62801C19.5206 1.53972 19.4538 1.4627 19.374 1.40161C19.2942 1.34052 19.2031 1.29664 19.1063 1.27263C18.4411 1.10462 16.9268 1.19263 16.2499 1.34864C11.1137 2.51137 7.04566 5.26752 4.04584 9.61709C1.5612 13.2173 1.23252 18.4456 5.74009 20.6417C5.795 20.6687 5.83953 20.7137 5.86664 20.7695C5.89375 20.8253 5.90189 20.8887 5.88977 20.9497C5.87764 21.0108 5.84595 21.066 5.79971 21.1065C5.75346 21.1471 5.69531 21.1707 5.63444 21.1737C5.08143 21.1977 4.50755 21.0324 3.9128 20.6777C1.45816 19.219 0.157801 16.9562 0.0117229 13.8893C-0.281738 7.81699 4.98491 3.20474 10.1459 1.48064C13.6909 0.293911 17.3338 -0.179449 21.0744 0.0605641C21.797 0.108567 22.4439 0.339247 23.0152 0.752603C25.0851 2.25669 21.9509 7.03295 20.7692 8.91705C18.8467 11.9786 17.6755 13.816 17.2555 14.4294C17.244 14.4475 17.2391 14.4691 17.2416 14.4905C17.2441 14.512 17.2539 14.5318 17.2693 14.5466C17.2847 14.5614 17.3047 14.5701 17.3258 14.5714C17.3469 14.5726 17.3677 14.5662 17.3846 14.5534C18.1463 13.9213 19.1376 12.9679 20.3584 11.6932C23.366 8.5597 25.8102 6.19157 27.691 4.58881C29.9682 2.65271 33.8889 -0.0674427 37.0504 1.17263C38.6312 1.79266 39.3316 3.37675 38.8503 5.07684C38.7095 5.57553 38.4382 5.97156 38.0365 6.26491C38.0076 6.28487 37.9732 6.29514 37.9382 6.29423C37.9032 6.29332 37.8695 6.28127 37.842 6.25984C37.8145 6.2384 37.7946 6.20871 37.7852 6.17508C37.7759 6.14146 37.7775 6.10565 37.79 6.0729C38.7916 3.32074 36.6631 1.76066 34.2371 2.77671C31.8307 3.78477 29.6591 6.33691 28.1644 8.47703C24.6742 13.4773 21.7239 18.7096 19.3136 24.1739C18.9771 24.9339 18.7737 25.69 18.5115 26.31C18.2637 26.8887 17.8163 27.1034 17.1694 26.954C12.9592 25.982 15.2952 21.6178 16.7586 19.1136C18.0498 16.9028 19.5315 14.7187 21.2035 12.5613C21.2099 12.554 21.2148 12.5455 21.2179 12.5363C21.221 12.527 21.2222 12.5173 21.2214 12.5075C21.2207 12.4978 21.218 12.4883 21.2136 12.4797C21.2092 12.471 21.2031 12.4634 21.1957 12.4572L21.1801 12.4412C21.1598 12.4221 21.1333 12.4115 21.1057 12.4115C21.0782 12.4115 21.0516 12.4221 21.0314 12.4412Z" fill="#F5D6B0"/>
</svg>
