<svg width="24" height="24" viewBox="0 0 24 24" fill="none" xmlns="http://www.w3.org/2000/svg">
<path d="M2.3151 12.698C2.2651 12.271 2.2401 12.057 2.2511 11.881C2.27784 11.4326 2.45476 11.0062 2.75336 10.6706C3.05195 10.335 3.45484 10.1097 3.8971 10.031C4.0711 10 4.2861 10 4.7171 10H15.2841C15.7141 10 15.9291 10 16.1031 10.03C16.5454 10.1087 16.9482 10.334 17.2468 10.6696C17.5454 11.0052 17.7224 11.4316 17.7491 11.88C17.7591 12.057 17.7351 12.27 17.6851 12.698L17.2841 16.126C17.127 17.4684 16.4824 18.7064 15.4728 19.6049C14.4631 20.5034 13.1587 20.9998 11.8071 21H8.1931C6.84153 20.9998 5.53708 20.5034 4.52742 19.6049C3.51776 18.7064 2.87319 17.4684 2.7161 16.126L2.3151 12.698Z" stroke="#B2B2B2" stroke-width="1.5"/>
<path d="M17 17H19C19.394 17 19.7841 16.9224 20.1481 16.7716C20.512 16.6209 20.8427 16.3999 21.1213 16.1213C21.3999 15.8427 21.6209 15.512 21.7716 15.1481C21.9224 14.7841 22 14.394 22 14C22 13.606 21.9224 13.2159 21.7716 12.8519C21.6209 12.488 21.3999 12.1573 21.1213 11.8787C20.8427 11.6001 20.512 11.3791 20.1481 11.2284C19.7841 11.0776 19.394 11 19 11H17.5" stroke="#B2B2B2" stroke-width="1.5"/>
<path d="M10.0001 2C9.86874 2.13131 9.76454 2.2872 9.69346 2.45879C9.62237 2.63037 9.58578 2.81427 9.58578 3C9.58578 3.18573 9.62237 3.36963 9.69346 3.54121C9.76454 3.7128 9.86874 3.86869 10.0001 4C10.1314 4.13131 10.2356 4.2872 10.3067 4.45879C10.3778 4.63037 10.4144 4.81427 10.4144 5C10.4144 5.18573 10.3778 5.36963 10.3067 5.54121C10.2356 5.7128 10.1314 5.86869 10.0001 6M5.00009 7.5L5.11609 7.384C5.36169 7.13882 5.51049 6.8132 5.53511 6.46704C5.55973 6.12088 5.45852 5.77747 5.25009 5.5C5.04165 5.22253 4.94044 4.87912 4.96506 4.53296C4.98968 4.1868 5.13848 3.86118 5.38409 3.616L5.50009 3.5M14.5001 7.5L14.6161 7.384C14.8617 7.13882 15.0105 6.8132 15.0351 6.46704C15.0597 6.12088 14.9585 5.77747 14.7501 5.5C14.5417 5.22253 14.4404 4.87912 14.4651 4.53296C14.4897 4.1868 14.6385 3.86118 14.8841 3.616L15.0001 3.5" stroke="#B2B2B2" stroke-width="1.5" stroke-linecap="round" stroke-linejoin="round"/>
</svg>
