<svg width="18" height="18" viewBox="0 0 18 18" fill="none" xmlns="http://www.w3.org/2000/svg">
<path d="M9.52753 8.11517C9.64919 8.23682 9.81418 8.30516 9.98623 8.30516C10.1583 8.30516 10.3233 8.23682 10.4449 8.11517L14.0778 4.48229V6.89198C14.0837 7.05995 14.1546 7.21907 14.2756 7.33581C14.3965 7.45255 14.558 7.51779 14.7261 7.51779C14.8942 7.51779 15.0557 7.45255 15.1766 7.33581C15.2976 7.21907 15.3685 7.05995 15.3744 6.89197L15.3744 2.9166C15.3743 2.7447 15.3059 2.57987 15.1844 2.45831C15.0628 2.33676 14.898 2.26842 14.7261 2.26831L10.7507 2.26831C10.6637 2.26524 10.5769 2.27973 10.4955 2.31093C10.4142 2.34213 10.34 2.38938 10.2773 2.44989C10.2146 2.51039 10.1648 2.5829 10.1307 2.66308C10.0967 2.74327 10.0791 2.82949 10.0791 2.9166C10.0791 3.00372 10.0967 3.08994 10.1307 3.17013C10.1648 3.25031 10.2146 3.32282 10.2773 3.38332C10.34 3.44382 10.4142 3.49108 10.4955 3.52228C10.5769 3.55348 10.6637 3.56797 10.7507 3.5649L13.1604 3.5649L9.52753 7.19777C9.27433 7.45097 9.27433 7.86197 9.52753 8.11517Z" fill="white"/>
<path d="M8.11468 9.52704C8.23633 9.6487 8.30468 9.8137 8.30468 9.98574C8.30468 10.1578 8.23633 10.3228 8.11468 10.4444L4.4818 14.0773H6.89149C7.05947 14.0832 7.21858 14.1541 7.33532 14.2751C7.45206 14.396 7.5173 14.5575 7.5173 14.7256C7.5173 14.8937 7.45206 15.0552 7.33532 15.1761C7.21858 15.2971 7.05946 15.368 6.89149 15.3739L2.91612 15.3739C2.74421 15.3738 2.57938 15.3055 2.45782 15.1839C2.33627 15.0623 2.26793 14.8975 2.26783 14.7256L2.26783 10.7502C2.26475 10.6632 2.27925 10.5764 2.31044 10.4951C2.34164 10.4137 2.3889 10.3395 2.4494 10.2768C2.5099 10.2141 2.58241 10.1643 2.6626 10.1302C2.74278 10.0962 2.829 10.0787 2.91612 10.0787C3.00323 10.0787 3.08945 10.0962 3.16964 10.1302C3.24982 10.1643 3.32233 10.2141 3.38283 10.2768C3.44334 10.3395 3.4906 10.4137 3.52179 10.4951C3.55299 10.5764 3.56748 10.6632 3.56441 10.7502L3.56441 13.1599L7.19729 9.52704C7.45049 9.27384 7.86148 9.27384 8.11468 9.52704Z" fill="white"/>
</svg>
