<svg width="32" height="32" viewBox="0 0 32 32" fill="none" xmlns="http://www.w3.org/2000/svg">
<path d="M16 2.66406C23.3653 2.66406 29.336 8.63473 29.336 16.0001C29.336 23.3641 23.3653 29.3334 16 29.3334C8.63463 29.3334 2.66663 23.3641 2.66663 16.0001C2.66529 8.63473 8.63463 2.66406 16 2.66406ZM19.92 22.0001H12.0813C12.9506 25.2201 14.4626 27.3361 16.0013 27.3361C17.54 27.3361 19.0506 25.2187 19.92 22.0001ZM10.012 22.0001H6.37996C7.66771 24.0598 9.58111 25.6532 11.84 26.5467C11.144 25.4534 10.5693 24.0854 10.1466 22.5267L10.012 22.0001ZM25.6186 22.0001H21.9893C21.5573 23.7801 20.9333 25.3334 20.1586 26.5481C22.2743 25.711 24.0903 24.2587 25.372 22.3787L25.6186 22.0001ZM9.45863 13.3334H4.98129L4.97463 13.3561C4.76846 14.2222 4.66508 15.1097 4.66663 16.0001C4.66534 17.3662 4.91107 18.7213 5.39196 20.0001H9.62263C9.42592 18.6759 9.3292 17.3388 9.33329 16.0001C9.33329 15.0881 9.37596 14.1947 9.45996 13.3321M20.5306 13.3321H11.4706C11.2366 15.5525 11.2971 17.7941 11.6506 19.9987H20.3493C20.7028 17.7941 20.7647 15.5525 20.5306 13.3321ZM27.02 13.3321H22.5426C22.6253 14.1947 22.6693 15.0881 22.6693 15.9987C22.6729 17.3375 22.5758 18.6746 22.3786 19.9987H26.6093C27.0906 18.7201 27.3368 17.365 27.336 15.9987C27.336 15.0801 27.2266 14.1867 27.02 13.3321ZM11.84 5.45073L11.8093 5.4614C9.07995 6.55154 6.87858 8.65592 5.66663 11.3334H9.73063C10.1493 8.9974 10.8773 6.96273 11.8413 5.4534M16.0013 4.6654L15.8453 4.67206C14.16 4.82673 12.5293 7.49473 11.7733 11.3334H20.2293C19.4746 7.50673 17.852 4.8414 16.1693 4.6734L16.0013 4.6654ZM20.1613 5.45206L20.3026 5.6854C21.196 7.16806 21.872 9.11473 22.2693 11.3347H26.3333C25.1761 8.77996 23.1157 6.74285 20.548 5.61473L20.1613 5.45206Z" fill="white"/>
</svg>
