<svg width="24" height="24" viewBox="0 0 24 24" fill="none" xmlns="http://www.w3.org/2000/svg">
<path d="M2 18V15C2 13.9 2.39167 12.9583 3.175 12.175C3.95833 11.3917 4.9 11 6 11H15V10C15 9.71667 14.904 9.47933 14.712 9.288C14.52 9.09667 14.2827 9.00067 14 9H10C9.71667 9 9.47933 9.096 9.288 9.288C9.09667 9.48 9.00067 9.71733 9 10H7C7 9.16667 7.29167 8.45833 7.875 7.875C8.45833 7.29167 9.16667 7 10 7H14C14.8333 7 15.5417 7.29167 16.125 7.875C16.7083 8.45833 17 9.16667 17 10V14C17.2833 14 17.521 13.904 17.713 13.712C17.905 13.52 18.0007 13.2827 18 13V9C18 8.16667 18.2917 7.45833 18.875 6.875C19.4583 6.29167 20.1667 6 21 6H22V8H21C20.7167 8 20.4793 8.096 20.288 8.288C20.0967 8.48 20.0007 8.71733 20 9V13C20 13.8333 19.7083 14.5417 19.125 15.125C18.5417 15.7083 17.8333 16 17 16V18H2ZM4 16H15V13H6C5.45 13 4.97933 13.196 4.588 13.588C4.19667 13.98 4.00067 14.4507 4 15V16Z" fill="#B2B2B2"/>
</svg>
