<svg width="222" height="62" viewBox="0 0 222 62" fill="none" xmlns="http://www.w3.org/2000/svg">
<path d="M134.239 43.7271L134.241 43.7299C134.245 43.7356 134.25 43.7405 134.257 43.7442C134.263 43.7479 134.27 43.7503 134.277 43.7513C134.284 43.7523 134.292 43.7519 134.299 43.7501C134.306 43.7483 134.312 43.7452 134.318 43.7409C136.281 42.3055 138.334 40.9274 140.476 39.6065C142.605 38.2925 144.768 37.054 147.102 36.3015C147.953 36.0269 148.816 35.961 149.693 36.1038C151.019 36.3208 151.309 37.7639 151.091 38.8884C150.9 39.877 150.567 40.813 150.092 41.6964C149.241 43.2772 148.146 44.8444 146.807 46.3978C143.739 49.9577 140.248 52.9794 136.334 55.4628C134.2 56.8167 131.847 57.9948 129.436 58.7857C128.736 59.0163 127.796 59.2196 126.615 59.3953C125.251 59.5985 123.652 59.5587 122.536 58.8296C121.009 57.8355 121.11 55.8404 121.741 54.2092C122.134 53.1922 122.639 52.2265 123.254 51.312C124.725 49.1302 126.359 47.2614 128 45.4819C132.995 40.061 138.608 34.9587 144.411 29.984C148.704 26.3051 153.067 22.8774 157.501 19.701C162.846 15.872 168.418 12.3963 174.219 9.27389C176.493 8.04911 178.824 6.91724 181.212 5.87827C181.26 5.85727 181.302 5.82437 181.334 5.78276C181.365 5.74116 181.385 5.69224 181.392 5.64073C181.479 4.97754 181.766 3.22412 182.722 3.22274C183.498 3.22137 183.845 4.04247 183.775 4.69194C183.773 4.70504 183.775 4.71832 183.781 4.73044C183.786 4.74257 183.794 4.75311 183.805 4.76103C183.815 4.76895 183.828 4.77396 183.841 4.77557C183.854 4.77718 183.868 4.77533 183.88 4.7702C188.569 2.83965 193.459 1.29494 198.391 0.468351C199.157 0.340197 200.347 0.211129 201.962 0.0811443C204.387 -0.11246 206.858 0.0536815 209.165 0.438143C214.546 1.33476 219.675 4.26216 221.462 9.67483C221.973 11.2227 222.12 12.9148 221.903 14.7511C221.499 18.1646 219.934 21.048 217.208 23.4015C216.158 24.3086 214.856 25.1114 213.305 25.8099C211.591 26.5815 209.724 27.1353 207.705 27.4713C204.18 28.058 200.696 27.9381 197.254 27.1115C196.363 26.8973 195.332 26.5582 194.16 26.0941C190.5 24.6455 187.298 22.0133 184.984 18.8717C182.982 16.1558 181.781 12.8933 181.366 9.58695C181.272 8.83725 181.237 8.11593 181.262 7.42298C181.263 7.40567 181.259 7.38845 181.251 7.37294C181.244 7.35744 181.232 7.34418 181.217 7.33441C181.203 7.32464 181.186 7.31869 181.168 7.31713C181.151 7.31557 181.133 7.31845 181.117 7.3255C180.404 7.63947 179.289 8.19786 177.774 9.00065C175.371 10.274 172.91 11.6974 170.393 13.2709C168.054 14.7328 165.708 16.3324 163.353 18.0698C157.85 22.1286 152.824 26.3687 147.683 30.9314C144.919 33.3847 142.366 35.7491 140.026 38.0247C139.721 38.3213 137.794 40.196 134.246 43.6489C134.236 43.6594 134.229 43.673 134.228 43.6874C134.227 43.7017 134.231 43.7158 134.239 43.7271ZM183.349 6.39455C183.028 7.61384 183.007 8.97456 183.151 10.2611C183.333 11.8942 183.77 13.5611 184.461 15.2619C185.693 18.2936 187.599 20.7968 190.179 22.7712C194.548 26.1133 200.263 27.2722 205.692 26.7779C208.986 26.4772 212.238 25.4103 214.807 23.4605C218.38 20.7487 220.668 16.3095 220.057 11.8333C219.596 8.45096 217.909 5.82244 214.997 3.94773C212.798 2.53163 210.41 1.65698 207.834 1.32378C206.315 1.12789 205.322 1.02536 204.853 1.01621C202.609 0.973186 200.363 1.15031 198.117 1.54759C196.472 1.83777 195.226 2.09865 194.378 2.33024C190.614 3.35914 186.966 4.67958 183.436 6.29157C183.415 6.30149 183.396 6.31584 183.381 6.33362C183.366 6.35141 183.355 6.3722 183.349 6.39455ZM148.916 37.7666C148.483 36.6091 145.528 37.8655 144.877 38.173C143.313 38.9145 141.812 39.7365 140.375 40.6391C137.964 42.1522 135.722 43.675 133.648 45.2073C132.01 46.4165 130.661 47.52 129.602 48.5178C128.354 49.6941 127.166 50.9655 126.038 52.3322C125.641 52.8137 125.299 53.2691 125.01 53.6984C124.321 54.7255 123.883 55.4065 123.596 56.3924C123.421 56.9883 123.466 57.8671 123.993 58.2557C125.693 59.512 128.873 57.5623 130.315 56.5009C131.641 55.5251 132.828 54.5763 133.878 53.6545C137.619 50.3692 141.197 47.0884 144.614 43.8123C145.483 42.9784 146.337 42.0991 147.177 41.1746C147.566 40.7453 147.986 40.1915 148.437 39.5132C148.808 38.9557 148.979 38.4225 148.948 37.9135C148.944 37.8634 148.934 37.814 148.916 37.7666Z" fill="white"/>
<path d="M70.5231 30.2504L70.5218 30.249C70.5133 30.2382 70.5009 30.2311 70.4873 30.229C70.4737 30.227 70.4598 30.2302 70.4484 30.238C68.9706 31.2834 67.0523 32.5997 64.6936 34.187C61.3265 36.4544 57.7722 38.7191 54.0306 40.981C53.6773 41.1943 52.7 41.7211 51.0985 42.5614C49.6161 43.3395 48.1388 43.9331 46.6665 44.3423C45.6379 44.6279 44.625 44.7386 43.6278 44.6746C40.6404 44.4823 43.228 40.1489 43.9655 38.9173C45.1951 36.864 46.7504 34.5975 48.6314 32.1178C52.0768 27.5765 54.7806 23.9914 56.7427 21.3625C58.7039 18.7353 60.3902 16.3347 61.8016 14.1607C62.141 13.6389 62.4021 13.1707 62.5848 12.756C62.5897 12.7444 62.592 12.7318 62.5915 12.7191C62.5909 12.7065 62.5876 12.6941 62.5816 12.683C62.5756 12.6718 62.5672 12.6621 62.557 12.6545C62.5468 12.647 62.535 12.6418 62.5225 12.6393C59.7385 12.0928 57.3031 11.8772 53.9531 11.6411C51.8637 11.4928 49.9141 11.4424 48.1042 11.49C43.8866 11.6008 39.6985 12.0759 35.54 12.9153C33.6623 13.2943 31.5618 13.8517 29.7519 14.4765C22.1184 17.1091 15.4226 21.1899 9.66451 26.7188C8.13504 28.1871 6.72596 29.8403 5.43726 31.6784C3.57754 34.3321 2.34834 37.2174 1.74965 40.3343C1.50889 41.5883 1.45538 42.9166 1.58914 44.3189C1.80039 46.5479 2.42214 48.5215 3.45439 50.2396C4.32336 51.6859 5.47462 52.8737 6.90815 53.8028C7.32188 54.0705 6.93997 54.5607 6.55115 54.4673C6.35005 54.4188 6.14018 54.319 5.92156 54.168C3.0199 52.1674 1.26535 49.1274 0.446191 45.7758C-0.509957 41.8639 0.134855 37.5263 1.76764 33.808C3.09232 30.7918 4.85148 28.075 7.04514 25.6574C10.081 22.3117 13.609 19.5088 17.6292 17.2487C20.582 15.5882 23.5247 14.2769 26.4573 13.3149C29.7801 12.2256 33.1582 11.4585 36.5916 11.0136C42.4462 10.2543 48.3671 10.0497 54.4195 10.4946C57.3898 10.7133 60.2546 11.0406 63.0137 11.4763C63.0285 11.4787 63.0436 11.4757 63.0565 11.4679C63.0694 11.4601 63.0792 11.448 63.0843 11.4337C63.3241 10.7655 63.4311 10.1019 63.4053 9.44278C63.4045 9.41828 63.4097 9.39394 63.4206 9.37191C63.4314 9.34989 63.4476 9.33084 63.4676 9.31646C63.6668 9.17457 63.8389 9.13888 63.9837 9.20936C64.962 9.68856 65.3896 10.7925 65.4034 11.8553C65.4037 11.8849 65.4142 11.9136 65.4333 11.9368C65.4524 11.9599 65.4789 11.9762 65.5086 11.983C67.7889 12.4924 69.9143 13.032 71.8474 14.184C72.1463 14.3625 72.4069 14.5699 72.6292 14.806C72.6583 14.8376 72.6791 14.8753 72.69 14.9159C72.7186 15.0294 72.7214 15.1159 72.6984 15.1754C72.6848 15.2108 72.6639 15.2431 72.637 15.27C72.6101 15.2969 72.5778 15.3179 72.5421 15.3316C72.5065 15.3453 72.4684 15.3515 72.4302 15.3496C72.3921 15.3478 72.3547 15.338 72.3206 15.3209C71.4415 14.8861 70.5411 14.5255 69.6196 14.2389C68.0993 13.7666 66.705 13.3977 65.4366 13.1322C65.424 13.1296 65.4111 13.1294 65.3985 13.1317C65.3859 13.134 65.3739 13.1388 65.3632 13.1457C65.3525 13.1526 65.3433 13.1615 65.3362 13.1719C65.3291 13.1823 65.3242 13.1941 65.3218 13.2064C64.9149 15.1864 63.9284 16.7462 62.7453 18.5326C60.202 22.3671 57.8843 25.6044 55.7921 28.2443C52.4647 32.4404 50.6331 34.7518 50.2974 35.1784C48.9478 36.8965 47.9427 38.211 47.2822 39.1218C46.6789 39.9521 46.1886 40.7247 45.8113 41.4396C45.6453 41.7527 45.53 42.095 45.4654 42.4667C45.0863 44.6375 50.5091 41.8131 51.4334 41.3517C52.5394 40.7979 54.0113 39.9475 55.8488 38.8005C61.547 35.2443 66.9684 31.3173 72.5918 27.1651C77.6368 23.4399 81.8599 20.3505 86.6628 17.3393C86.8529 17.2203 87.6577 16.7659 89.0774 15.9759C89.868 15.5365 90.6913 15.1163 91.5473 14.7154C94.5002 13.3323 97.537 12.1546 100.658 11.1825C101.172 11.0223 102.314 10.7262 104.082 10.2941C106.206 9.77507 108.263 9.48993 110.254 9.43867C111.165 9.41487 112.157 9.47345 113.229 9.61442C116.009 9.97966 118.066 11.4337 119.552 13.7021C119.887 14.2119 120.116 14.6463 120.239 15.0051C120.358 15.3539 119.995 15.5557 119.723 15.336C119.195 14.9131 118.632 14.3488 118.059 13.9451C116.693 12.9867 115.197 12.2992 113.572 11.8827C112.073 11.4997 110.297 11.2745 108.622 11.3527C104.975 11.523 101.424 12.443 97.9816 13.6828C96.7972 14.1099 95.5961 14.6962 94.5611 15.1301C93.7198 15.4825 92.9749 15.8482 92.3264 16.2272C91.3024 16.8258 90.4113 17.2501 89.4261 17.8542C87.2592 19.1834 85.1772 20.7089 83.18 22.4307C79.2101 25.8511 76.2379 28.8526 71.644 33.4346C69.275 35.7981 66.4656 38.628 63.2157 41.9243C60.3994 44.7803 57.6979 47.8546 55.1113 51.1472C53.0468 53.7753 51.2221 56.3695 49.6373 58.9298C49.0783 59.8333 48.6221 60.6874 48.2688 61.492C48.1028 61.8723 47.7887 62.1717 47.4165 61.8875C46.9958 61.5689 46.9654 60.5322 47.0027 60.0297C47.1162 58.4767 47.6987 56.9526 48.3781 55.5919C48.8182 54.7104 49.2623 53.903 49.7107 53.1698C51.3531 50.4854 53.2433 47.8834 55.3576 45.4572C57.1103 43.4452 58.625 41.8002 59.9017 40.5224C62.4635 37.9611 64.4025 36.0526 65.7189 34.7966C67.1118 33.4684 68.7114 31.9777 70.5176 30.3245C70.5277 30.3151 70.5339 30.3023 70.535 30.2885C70.536 30.2748 70.5318 30.2612 70.5231 30.2504Z" fill="white"/>
<path d="M91.3979 50.1751L91.3965 50.1724C91.3905 50.1662 91.3832 50.1615 91.3751 50.1583C91.3671 50.1552 91.3584 50.1538 91.3497 50.1542C91.341 50.1545 91.3324 50.1567 91.3245 50.1606C91.3166 50.1644 91.3095 50.1698 91.3038 50.1765C90.9994 50.5289 90.6779 50.8571 90.3394 51.161C89.5294 51.8869 88.4418 52.8558 87.0766 54.0678C85.3045 55.6413 83.4826 57.0263 81.6109 58.2227C80.3918 59.0012 78.8697 59.5752 77.3476 59.5615C76.8929 59.5578 76.5423 59.4837 76.296 59.339C75.3911 58.8063 75.0147 57.4002 76.1424 56.8222C76.2164 56.784 76.2989 56.7655 76.3821 56.7684C76.4653 56.7713 76.5462 56.7955 76.617 56.8386C77.2369 57.2162 77.7323 57.5677 78.3771 57.6213C79.8314 57.7435 81.3895 56.9636 82.5393 56.2249C85.8132 54.1199 88.672 51.5729 91.3924 48.8075C92.5897 47.5891 93.5874 46.4861 94.3853 45.4984C95.3706 44.28 96.4558 42.8163 97.6412 41.1073C97.9798 40.6185 98.2865 40.0702 98.5614 39.4624C98.9724 38.5506 99.0637 37.5181 97.8405 37.3272C97.0255 37.2009 95.9102 37.7268 95.1464 38.1868C94.1796 38.7699 93.4048 39.3049 92.8217 39.7919C91.6096 40.8039 90.6023 41.6167 89.5617 42.6012C87.8348 44.2361 86.6416 45.3968 85.982 46.0833C85.0148 47.0898 84.3576 47.8093 83.6947 48.2459C83.6546 48.2731 83.6207 48.3086 83.5951 48.3503C83.2243 48.9682 82.6653 49.3787 82.1118 49.8868C79.5436 52.2457 76.7462 54.4262 73.7195 56.4281C72.4484 57.2693 71.2081 57.9609 69.9987 58.5028C68.2995 59.2649 66.5173 59.6686 64.659 59.4997C64.3573 59.4722 63.9454 59.3633 63.4233 59.1729C61.8625 58.6058 61.1637 57.0817 61.3339 55.5095C61.5318 53.6751 62.3371 51.9066 63.3361 50.344C65.1322 47.5374 67.401 45.0407 70.1426 42.8539C72.221 41.1952 74.4349 39.7214 76.7845 38.4326C78.9223 37.2586 81.2802 36.178 83.7072 36.0022C83.983 35.9821 84.3225 36.0191 84.7256 36.1134C86.1107 36.4375 86.3293 37.9684 85.8699 39.1108C85.1712 40.845 83.7224 42.2511 82.1478 43.2369C79.8757 44.6567 77.4362 45.5675 74.8293 45.9694C74.1531 46.0728 73.2477 46.0966 72.113 46.0408C72.0895 46.0395 72.066 46.0431 72.0441 46.0514C72.0222 46.0596 72.0023 46.0724 71.9857 46.0888C71.0586 46.9841 69.8876 48.2372 68.4725 49.8483C67.1155 51.3926 66.0044 52.908 65.1391 54.3946C64.6354 55.2596 64.0598 56.6121 64.302 57.5417C64.4818 58.2374 64.9911 58.5944 65.8296 58.6127C67.1676 58.6415 68.4573 58.2543 69.65 57.6845C71.2671 56.911 72.661 56.1182 73.8316 55.3063C76.5686 53.4087 79.4098 51.1509 82.3553 48.5329C83.0075 47.9535 83.6422 47.3406 84.2593 46.6944C87.1015 43.7134 89.9893 40.7407 93.3088 38.287C94.8932 37.1171 96.7294 36.1189 98.6873 36.0118C100.445 35.9171 101.737 36.8521 101.438 38.7552C101.339 39.3827 101.018 40.2642 100.683 40.9041C100.108 42.0007 99.4336 43.0411 98.6596 44.0251C98.6514 44.0357 98.6476 44.049 98.6489 44.0625C98.6502 44.0759 98.6565 44.0886 98.6666 44.0979L98.668 44.0992C98.6788 44.1094 98.6933 44.1151 98.7084 44.1151C98.7235 44.1151 98.7382 44.1094 98.7496 44.0992C99.7514 43.1701 100.501 42.4941 101 42.0712C102.551 40.7521 103.979 39.5933 105.282 38.5946C106.962 37.3066 110.013 35.3967 112.228 36.1313C113.179 36.4471 113.51 37.3835 112.908 38.2335C112.682 38.5506 112.231 38.8733 111.841 38.5877C111.596 38.4092 111.392 38.265 111.228 38.1552C109.693 37.1254 107.488 38.6646 106.182 39.461C105.795 39.6962 105.389 39.9795 104.964 40.3109C104.177 40.9247 103.321 41.4931 102.545 42.1193C101.243 43.172 99.8035 44.4453 98.2279 45.9392C97.4005 46.7255 96.7229 47.4509 96.1952 48.1155C95.5827 48.889 94.9868 49.6826 94.4075 50.4964C94.2756 50.6822 93.7654 51.4905 92.8771 52.9213C92.248 53.9337 91.771 54.915 91.4463 55.8651C91.0949 56.8922 91.1295 58.0868 92.6419 57.863C93.8429 57.6858 95.2585 56.9183 96.1468 56.3388C98.8243 54.5964 101.303 52.578 103.59 50.5788C103.846 50.355 104.034 50.1669 104.218 49.8813C107.502 44.7775 112.262 40.7448 117.69 38.0687C119.414 37.2192 121.17 36.5954 122.958 36.1972C123.996 35.9665 125.026 35.9454 126.046 36.134C126.354 36.1917 126.675 36.3436 127.009 36.5899C128.652 37.7982 126.858 41.2913 126.002 42.685C125.259 43.8942 124.692 44.7482 124.299 45.2471C123.564 46.1822 122.548 47.4647 121.591 48.4697C120.343 49.7769 119.19 50.907 118.131 51.8599C117.895 52.0732 117.402 52.5002 116.652 53.1409C115.216 54.3671 113.471 55.699 112.163 56.5791C110.315 57.8218 108.311 59.0205 106.086 59.4763C105.555 59.5848 104.655 59.5972 104.085 59.4214C102.372 58.8928 101.785 57.4249 101.86 55.7141C101.909 54.606 102.249 53.5501 102.693 52.5093C102.696 52.5023 102.697 52.4944 102.695 52.4871C102.693 52.4797 102.688 52.4733 102.682 52.4687C102.676 52.4641 102.668 52.4617 102.66 52.4619C102.652 52.462 102.644 52.4647 102.638 52.4695C99.9299 54.7447 97.4101 56.7178 94.3355 58.4191C93.0145 59.1495 91.6396 59.4804 90.2107 59.4118C89.6747 59.3862 89.2042 59.15 88.7993 58.7033C87.4211 57.1847 88.9114 54.3836 89.7236 52.9364C90.2485 52.0008 90.8094 51.1102 91.4062 50.2644C91.4156 50.2509 91.4198 50.2345 91.4183 50.2182C91.4168 50.2019 91.4096 50.1867 91.3979 50.1751ZM72.715 45.46C73.4686 45.4902 74.226 45.3968 74.987 45.1799C77.8153 44.3725 80.4485 42.6383 82.5698 40.6363C83.3659 39.8848 83.9669 39.1763 84.3728 38.5108C84.6883 37.9918 85.1393 36.8288 84.0296 36.8645C83.198 36.892 82.4107 37.3355 81.698 37.8147C80.8761 38.3666 80.1843 38.8587 79.6225 39.2907C77.1742 41.1737 74.8625 43.2077 72.6873 45.3927C72.6819 45.3982 72.6783 45.4052 72.6769 45.4128C72.6754 45.4203 72.6762 45.4281 72.6792 45.4352C72.6821 45.4423 72.687 45.4484 72.6934 45.4528C72.6997 45.4572 72.7072 45.4597 72.715 45.46ZM104.193 58.2776C106.132 60.215 112.125 54.7598 113.62 53.3922C116.999 50.3065 120.25 46.9081 123.374 43.1971C124.189 42.2287 124.918 41.2345 125.56 40.2148C126.017 39.4912 127.17 37.1721 125.609 36.9524C124.597 36.8096 123.6 37.2339 122.745 37.6966C121.806 38.2064 120.858 38.8454 119.902 39.6134C115.718 42.9783 111.903 46.6033 108.458 50.4882C107.849 51.1747 107.25 51.891 106.662 52.637C105.526 54.076 104.69 55.0756 104.132 56.4391C103.933 56.9265 103.767 57.852 104.193 58.2776Z" fill="white"/>
</svg>
