<svg width="1057" height="298" viewBox="0 0 1057 298" fill="none" xmlns="http://www.w3.org/2000/svg">
<path d="M639.148 210.172L639.154 210.186C639.175 210.213 639.201 210.237 639.231 210.254C639.261 210.272 639.294 210.284 639.328 210.288C639.362 210.293 639.397 210.292 639.43 210.283C639.464 210.274 639.496 210.259 639.523 210.238C648.87 203.34 658.642 196.716 668.841 190.367C678.98 184.051 689.278 178.098 700.392 174.482C704.442 173.162 708.553 172.845 712.725 173.531C719.043 174.574 720.42 181.51 719.386 186.915C718.477 191.667 716.891 196.166 714.629 200.411C710.575 208.01 705.362 215.542 698.989 223.009C684.38 240.119 667.758 254.643 649.122 266.579C638.963 273.087 627.757 278.749 616.28 282.55C612.946 283.659 608.468 284.636 602.846 285.481C596.35 286.457 588.741 286.266 583.424 282.762C576.158 277.984 576.638 268.394 579.643 260.554C581.514 255.666 583.914 251.024 586.844 246.629C593.847 236.142 601.628 227.16 609.441 218.607C633.225 192.551 659.947 168.027 687.578 144.117C708.019 126.434 728.794 109.959 749.902 94.6921C775.351 76.2879 801.884 59.5821 829.502 44.5745C840.328 38.6876 851.427 33.2474 862.799 28.2536C863.028 28.1527 863.227 27.9946 863.377 27.7946C863.527 27.5946 863.623 27.3595 863.655 27.1119C864.07 23.9243 865.434 15.4966 869.986 15.49C873.682 15.4834 875.336 19.4299 875 22.5516C874.993 22.6146 875.002 22.6784 875.027 22.7366C875.052 22.7949 875.092 22.8456 875.143 22.8836C875.193 22.9217 875.253 22.9458 875.316 22.9535C875.379 22.9613 875.442 22.9524 875.501 22.9277C897.828 13.6487 921.111 6.22408 944.591 2.25111C948.237 1.63514 953.905 1.01478 961.596 0.390016C973.138 -0.540531 984.905 0.258018 995.888 2.10591C1021.51 6.41547 1045.93 20.4859 1054.44 46.5016C1056.87 53.9416 1057.57 62.0745 1056.54 70.9004C1054.62 87.3071 1047.16 101.166 1034.18 112.478C1029.18 116.838 1022.99 120.697 1015.6 124.054C1007.44 127.763 998.551 130.425 988.937 132.039C972.155 134.86 955.568 134.283 939.176 130.31C934.938 129.281 930.027 127.651 924.445 125.42C907.019 118.457 891.774 105.806 880.758 90.7059C871.225 77.6518 865.506 61.9711 863.53 46.0792C863.082 42.4758 862.917 39.0088 863.036 35.6782C863.04 35.595 863.023 35.5122 862.985 35.4377C862.948 35.3632 862.892 35.2994 862.823 35.2525C862.754 35.2055 862.673 35.1769 862.589 35.1694C862.505 35.1619 862.421 35.1758 862.344 35.2096C858.949 36.7188 853.643 39.4026 846.427 43.2612C834.985 49.3813 823.271 56.2229 811.285 63.786C800.151 70.8124 788.977 78.501 777.764 86.8517C751.563 106.36 727.634 126.74 703.159 148.67C689.996 160.462 677.843 171.826 666.7 182.764C665.246 184.19 656.073 193.2 639.181 209.796C639.131 209.847 639.101 209.912 639.094 209.981C639.088 210.05 639.107 210.118 639.148 210.172ZM872.971 30.7351C871.442 36.5956 871.343 43.1358 872.029 49.3196C872.898 57.1688 874.978 65.1808 878.268 73.3555C884.131 87.9275 893.205 99.9586 905.49 109.449C926.296 125.512 953.505 131.082 979.351 128.707C995.038 127.261 1010.52 122.133 1022.75 112.762C1039.77 99.7276 1050.66 78.391 1047.75 56.8762C1045.55 40.6191 1037.52 27.9853 1023.66 18.9746C1013.19 12.1682 1001.82 7.96419 989.55 6.36268C982.32 5.42113 977.59 4.92836 975.359 4.88436C964.672 4.67757 953.982 5.52892 943.287 7.43841C935.456 8.83313 929.522 10.0871 925.486 11.2002C907.561 16.1455 890.195 22.4922 873.386 30.2401C873.285 30.2878 873.195 30.3568 873.123 30.4423C873.052 30.5277 873 30.6277 872.971 30.7351ZM709.029 181.523C706.967 175.96 692.894 181.999 689.798 183.477C682.349 187.041 675.203 190.992 668.36 195.33C656.883 202.603 646.208 209.922 636.334 217.287C628.534 223.099 622.113 228.403 617.07 233.198C611.128 238.852 605.471 244.963 600.099 251.532C598.211 253.846 596.579 256.035 595.204 258.099C591.923 263.035 589.841 266.309 588.471 271.047C587.641 273.912 587.852 278.135 590.362 280.003C598.459 286.042 613.598 276.67 620.463 271.569C626.775 266.879 632.43 262.318 637.428 257.888C655.238 242.097 672.278 226.328 688.546 210.582C692.684 206.573 696.751 202.347 700.748 197.904C702.601 195.84 704.602 193.178 706.75 189.918C708.515 187.239 709.326 184.676 709.181 182.23C709.163 181.989 709.112 181.751 709.029 181.523Z" fill="#F3EBD8" fill-opacity="0.25"/>
<path d="M335.779 145.397L335.773 145.39C335.732 145.339 335.673 145.304 335.608 145.294C335.543 145.285 335.477 145.3 335.423 145.338C328.387 150.362 319.254 156.689 308.023 164.318C291.991 175.216 275.069 186.101 257.254 196.973C255.572 197.998 250.918 200.53 243.293 204.569C236.235 208.309 229.201 211.162 222.191 213.129C217.294 214.502 212.471 215.034 207.724 214.726C193.5 213.802 205.82 192.974 209.331 187.054C215.186 177.185 222.591 166.291 231.547 154.373C247.951 132.545 260.825 115.314 270.167 102.678C279.505 90.0504 287.533 78.512 294.253 68.0626C295.87 65.5547 297.113 63.3043 297.982 61.3112C298.006 61.2552 298.017 61.1947 298.014 61.1339C298.012 61.0732 297.996 61.0138 297.967 60.9601C297.939 60.9064 297.899 60.8597 297.85 60.8233C297.802 60.787 297.745 60.7621 297.686 60.7502C284.43 58.1236 272.835 57.0874 256.885 55.9523C246.937 55.2395 237.654 54.9975 229.036 55.2263C208.956 55.7587 189.015 58.0422 169.215 62.0767C160.275 63.8982 150.274 66.5777 141.657 69.5805C105.312 82.2342 73.4311 101.848 46.0153 128.423C38.7331 135.48 32.024 143.426 25.8882 152.261C17.0336 165.016 11.1811 178.884 8.33055 193.865C7.1842 199.892 6.92945 206.276 7.56631 213.017C8.57212 223.73 11.5324 233.216 16.4473 241.474C20.5847 248.426 26.0661 254.135 32.8915 258.6C34.8614 259.887 33.043 262.243 31.1917 261.795C30.2342 261.561 29.235 261.082 28.1941 260.356C14.3785 250.74 6.02467 236.129 2.12443 220.019C-2.42804 201.217 0.64208 180.368 8.4162 162.497C14.7233 147.999 23.0992 134.941 33.5437 123.321C47.9983 107.24 64.7961 93.7681 83.9372 82.9052C97.9965 74.924 112.007 68.6214 125.97 63.9972C141.791 58.7615 157.875 55.0745 174.222 52.9363C202.097 49.2867 230.288 48.3033 259.105 50.4416C273.248 51.4931 286.888 53.0661 300.025 55.1603C300.095 55.1716 300.167 55.1573 300.229 55.1199C300.29 55.0825 300.337 55.0244 300.361 54.9557C301.503 51.7439 302.012 48.5541 301.889 45.3863C301.885 45.2685 301.91 45.1515 301.962 45.0457C302.014 44.9398 302.09 44.8482 302.186 44.7791C303.134 44.0972 303.954 43.9256 304.643 44.2643C309.301 46.5676 311.337 51.8737 311.403 56.9818C311.404 57.1242 311.454 57.2621 311.545 57.3735C311.636 57.4848 311.762 57.5631 311.903 57.5956C322.761 60.0441 332.88 62.6377 342.084 68.1748C343.507 69.0328 344.748 70.0293 345.806 71.1644C345.945 71.3163 346.044 71.4974 346.096 71.6924C346.232 72.238 346.246 72.6537 346.136 72.9397C346.071 73.1101 345.972 73.265 345.844 73.3944C345.716 73.5238 345.562 73.6247 345.392 73.6907C345.222 73.7567 345.041 73.7862 344.859 73.7773C344.677 73.7685 344.5 73.7214 344.337 73.6393C340.152 71.5494 335.865 69.8159 331.477 68.4388C324.239 66.1685 317.6 64.3954 311.561 63.1195C311.501 63.1068 311.439 63.1059 311.379 63.117C311.319 63.1281 311.262 63.1509 311.211 63.1841C311.16 63.2172 311.117 63.2601 311.083 63.3102C311.049 63.3603 311.026 63.4166 311.014 63.4759C309.077 72.9925 304.38 80.4897 298.747 89.0758C286.637 107.506 275.602 123.066 265.641 135.755C249.798 155.923 241.078 167.033 239.479 169.083C233.053 177.341 228.268 183.659 225.123 188.037C222.251 192.028 219.916 195.741 218.12 199.177C217.329 200.682 216.78 202.328 216.473 204.114C214.668 214.548 240.487 200.973 244.888 198.755C250.154 196.093 257.162 192.006 265.911 186.493C293.041 169.4 318.854 150.525 345.629 130.568C369.649 112.663 389.757 97.8137 412.624 83.3407C413.529 82.7688 417.361 80.5843 424.121 76.7873C427.885 74.6754 431.805 72.6559 435.881 70.7289C449.94 64.0808 464.399 58.4205 479.258 53.748C481.709 52.978 487.144 51.5547 495.564 49.478C505.674 46.9834 515.469 45.6129 524.947 45.3665C529.287 45.2521 534.008 45.5337 539.112 46.2112C552.348 47.9667 562.144 54.9557 569.22 65.8583C570.815 68.309 571.904 70.3967 572.488 72.1214C573.055 73.7977 571.328 74.7678 570.031 73.7119C567.52 71.6792 564.839 68.9667 562.111 67.0265C555.607 62.4199 548.485 59.1157 540.746 57.1138C533.611 55.2725 525.151 54.1902 517.18 54.5664C499.813 55.3847 482.908 59.8065 466.516 65.7659C460.877 67.8184 455.158 70.6365 450.23 72.7219C446.224 74.4158 442.678 76.1736 439.59 77.995C434.715 80.8725 430.472 82.9118 425.781 85.8156C415.464 92.204 405.551 99.5362 396.042 107.812C377.14 124.252 362.989 138.679 341.116 160.702C329.837 172.062 316.46 185.664 300.987 201.507C287.577 215.234 274.715 230.011 262.399 245.837C252.57 258.468 243.882 270.937 236.336 283.243C233.675 287.586 231.503 291.691 229.82 295.558C229.03 297.386 227.534 298.825 225.762 297.459C223.759 295.928 223.614 290.945 223.792 288.53C224.332 281.066 227.106 273.74 230.341 267.2C232.436 262.963 234.551 259.082 236.685 255.558C244.506 242.656 253.505 230.149 263.572 218.488C271.917 208.817 279.129 200.911 285.208 194.769C297.405 182.458 306.637 173.285 312.905 167.248C319.537 160.864 327.153 153.699 335.753 145.753C335.801 145.708 335.83 145.646 335.835 145.58C335.84 145.514 335.82 145.449 335.779 145.397Z" fill="#F3EBD8" fill-opacity="0.25"/>
<path d="M435.169 241.164L435.163 241.151C435.134 241.122 435.099 241.099 435.061 241.084C435.022 241.069 434.981 241.062 434.94 241.064C434.898 241.065 434.857 241.076 434.82 241.094C434.782 241.113 434.749 241.139 434.721 241.171C433.272 242.865 431.741 244.442 430.129 245.903C426.273 249.392 421.095 254.049 414.594 259.874C406.157 267.437 397.482 274.094 388.571 279.845C382.766 283.587 375.519 286.345 368.272 286.279C366.107 286.262 364.438 285.905 363.265 285.21C358.957 282.65 357.165 275.891 362.534 273.113C362.886 272.93 363.279 272.841 363.675 272.855C364.071 272.869 364.456 272.985 364.794 273.192C367.745 275.007 370.104 276.697 373.174 276.954C380.098 277.541 387.517 273.793 392.991 270.242C408.579 260.125 422.19 247.883 435.143 234.591C440.844 228.735 445.594 223.433 449.393 218.686C454.084 212.83 459.251 205.795 464.895 197.58C466.507 195.231 467.968 192.595 469.277 189.674C471.233 185.292 471.668 180.329 465.844 179.411C461.964 178.804 456.654 181.332 453.017 183.543C448.414 186.346 444.724 188.917 441.949 191.258C436.177 196.122 431.381 200.029 426.427 204.761C418.205 212.619 412.523 218.198 409.383 221.497C404.778 226.335 401.648 229.793 398.493 231.892C398.301 232.022 398.14 232.193 398.018 232.393C396.253 235.363 393.591 237.336 390.956 239.778C378.728 251.116 365.409 261.597 350.998 271.219C344.946 275.262 339.04 278.586 333.282 281.191C325.192 284.854 316.706 286.794 307.858 285.982C306.422 285.85 304.461 285.327 301.975 284.412C294.543 281.686 291.216 274.36 292.027 266.804C292.969 257.987 296.803 249.486 301.56 241.976C310.111 228.486 320.914 216.486 333.967 205.975C343.863 198.003 354.404 190.919 365.591 184.724C375.77 179.082 386.996 173.888 398.552 173.043C399.865 172.946 401.481 173.124 403.401 173.577C409.996 175.135 411.037 182.494 408.849 187.984C405.522 196.32 398.624 203.078 391.127 207.816C380.309 214.64 368.694 219.018 356.282 220.95C353.062 221.447 348.751 221.561 343.349 221.293C343.237 221.286 343.125 221.304 343.021 221.344C342.916 221.383 342.822 221.445 342.743 221.524C338.329 225.827 332.753 231.85 326.015 239.594C319.554 247.016 314.264 254.3 310.144 261.445C307.746 265.603 305.005 272.103 306.158 276.571C307.015 279.915 309.439 281.631 313.432 281.719C319.803 281.858 325.943 279.996 331.622 277.258C339.321 273.54 345.958 269.73 351.532 265.827C364.563 256.706 378.091 245.854 392.115 233.271C395.22 230.486 398.242 227.54 401.181 224.434C414.713 210.106 428.462 195.818 444.268 184.025C451.811 178.402 460.554 173.604 469.876 173.089C478.243 172.634 484.397 177.128 482.973 186.275C482.499 189.291 480.971 193.528 479.376 196.604C476.64 201.874 473.429 206.875 469.744 211.604C469.705 211.655 469.687 211.719 469.693 211.784C469.699 211.849 469.729 211.909 469.777 211.954L469.784 211.961C469.836 212.01 469.904 212.037 469.976 212.037C470.048 212.037 470.118 212.01 470.173 211.961C474.942 207.495 478.513 204.246 480.885 202.213C488.273 195.873 495.07 190.303 501.276 185.503C509.274 179.312 523.801 170.132 534.349 173.663C538.875 175.181 540.449 179.682 537.583 183.767C536.51 185.292 534.362 186.843 532.504 185.47C531.34 184.612 530.367 183.919 529.585 183.391C522.279 178.441 511.777 185.84 505.558 189.667C503.718 190.798 501.785 192.16 499.76 193.752C496.012 196.703 491.94 199.435 488.244 202.444C482.042 207.504 475.191 213.624 467.689 220.804C463.749 224.584 460.523 228.071 458.011 231.265C455.094 234.983 452.257 238.797 449.499 242.709C448.871 243.602 446.442 247.487 442.212 254.363C439.217 259.23 436.946 263.946 435.4 268.513C433.726 273.45 433.891 279.191 441.092 278.116C446.811 277.264 453.55 273.575 457.78 270.79C470.528 262.415 482.328 252.714 493.218 243.105C494.437 242.029 495.333 241.125 496.209 239.752C511.843 215.221 534.507 195.838 560.352 182.975C568.561 178.892 576.922 175.894 585.434 173.98C590.379 172.871 595.281 172.77 600.139 173.676C601.606 173.954 603.134 174.684 604.724 175.867C612.544 181.675 604.006 198.465 599.928 205.163C596.392 210.975 593.689 215.08 591.818 217.478C588.319 221.973 583.484 228.137 578.925 232.967C572.986 239.25 567.496 244.682 562.454 249.262C561.33 250.287 558.982 252.34 555.411 255.419C548.573 261.313 540.265 267.715 534.039 271.945C525.237 277.918 515.697 283.679 505.103 285.87C502.574 286.391 498.291 286.451 495.577 285.606C487.421 283.065 484.627 276.01 484.983 267.787C485.213 262.461 486.834 257.386 488.949 252.384C488.964 252.35 488.967 252.312 488.957 252.277C488.947 252.241 488.926 252.21 488.896 252.188C488.865 252.166 488.828 252.155 488.79 252.155C488.752 252.156 488.715 252.169 488.685 252.192C475.792 263.128 463.795 272.611 449.156 280.788C442.866 284.299 436.32 285.89 429.517 285.56C426.965 285.437 424.725 284.302 422.797 282.155C416.235 274.855 423.33 261.392 427.197 254.436C429.697 249.94 432.367 245.659 435.209 241.593C435.253 241.528 435.274 241.45 435.267 241.372C435.259 241.293 435.225 241.22 435.169 241.164ZM346.215 218.501C349.803 218.646 353.409 218.198 357.033 217.155C370.499 213.274 383.037 204.939 393.136 195.317C396.927 191.704 399.788 188.299 401.721 185.1C403.223 182.606 405.371 177.016 400.087 177.187C396.127 177.319 392.379 179.451 388.986 181.754C385.072 184.407 381.778 186.772 379.103 188.849C367.447 197.899 356.44 207.676 346.083 218.178C346.058 218.204 346.04 218.238 346.034 218.274C346.027 218.31 346.031 218.348 346.044 218.382C346.058 218.416 346.082 218.446 346.112 218.467C346.142 218.488 346.178 218.5 346.215 218.501ZM496.091 280.109C505.321 289.421 533.854 263.2 540.976 256.627C557.06 241.796 572.541 225.462 587.417 207.625C591.295 202.97 594.765 198.192 597.826 193.291C600 189.812 605.488 178.666 598.057 177.61C593.241 176.923 588.491 178.963 584.419 181.187C579.948 183.637 575.437 186.708 570.887 190.4C550.964 206.573 532.8 223.996 516.396 242.669C513.497 245.969 510.646 249.412 507.844 252.997C502.435 259.914 498.456 264.718 495.801 271.272C494.852 273.615 494.062 278.063 496.091 280.109Z" fill="#F3EBD8" fill-opacity="0.25"/>
</svg>
