<svg width="32" height="32" viewBox="0 0 32 32" fill="none" xmlns="http://www.w3.org/2000/svg">
<path d="M26.9998 24.502H4.99984C4.26346 24.502 3.6665 25.0989 3.6665 25.8353V27.1686C3.6665 27.905 4.26346 28.502 4.99984 28.502H26.9998C27.7362 28.502 28.3332 27.905 28.3332 27.1686V25.8353C28.3332 25.0989 27.7362 24.502 26.9998 24.502Z" stroke="white" stroke-width="1.5" stroke-linecap="round" stroke-linejoin="round"/>
<path d="M6.99984 13.1657V24.5123M24.9998 13.1657V24.5123M19.3332 13.1657V24.5123M12.6665 13.1657V24.5123M14.7198 4.20033L4.35984 9.867C4.15001 9.9818 3.97494 10.1509 3.85295 10.3567C3.73097 10.5624 3.66657 10.7972 3.6665 11.0363V12.3657C3.6665 12.5778 3.75079 12.7813 3.90082 12.9313C4.05085 13.0814 4.25433 13.1657 4.4665 13.1657H27.5332C27.7453 13.1657 27.9488 13.0814 28.0989 12.9313C28.2489 12.7813 28.3332 12.5778 28.3332 12.3657V11.0363C28.3331 10.7972 28.2687 10.5624 28.1467 10.3567C28.0247 10.1509 27.8497 9.9818 27.6398 9.867L17.2798 4.20033C16.8874 3.9856 16.4472 3.87305 15.9998 3.87305C15.5525 3.87305 15.1123 3.9856 14.7198 4.20033Z" stroke="white" stroke-width="1.5" stroke-linecap="round" stroke-linejoin="round"/>
</svg>
