<svg width="32" height="32" viewBox="0 0 32 32" fill="none" xmlns="http://www.w3.org/2000/svg">
<g clip-path="url(#clip0_163_227)">
<path d="M8.00021 1.14258H24.0002C25.8188 1.14258 27.563 1.86503 28.8489 3.15099C30.1349 4.43695 30.8574 6.18109 30.8574 7.99972V23.9997C30.8574 25.8184 30.1349 27.5625 28.8489 28.8485C27.563 30.1344 25.8188 30.8569 24.0002 30.8569H8.00021C6.18158 30.8569 4.43744 30.1344 3.15148 28.8485C1.86551 27.5625 1.14307 25.8184 1.14307 23.9997V7.99972C1.14307 6.18109 1.86551 4.43695 3.15148 3.15099C4.43744 1.86503 6.18158 1.14258 8.00021 1.14258Z" stroke="white" stroke-width="1.5" stroke-linecap="round" stroke-linejoin="round"/>
<path d="M11.9065 24.0318V17.3392M11.9065 17.3392V7.96777H19.1865C20.0958 7.96777 20.9679 8.329 21.6109 8.97198C22.2538 9.61496 22.6151 10.487 22.6151 11.3963V13.9106C22.6151 14.8199 22.2538 15.692 21.6109 16.335C20.9679 16.978 20.0958 17.3392 19.1865 17.3392H11.9065Z" stroke="white" stroke-width="1.5" stroke-linecap="round" stroke-linejoin="round"/>
</g>
<defs>
<clipPath id="clip0_163_227">
<rect width="32" height="32" fill="white"/>
</clipPath>
</defs>
</svg>
