<svg width="24" height="24" viewBox="0 0 24 24" fill="none" xmlns="http://www.w3.org/2000/svg">
<path d="M20.9999 6.00002L16.9999 9.00002M6.99991 15L2.99991 18M21.0399 12.283L21.6389 16.473C21.6818 16.7733 21.6559 17.0795 21.563 17.3683C21.4701 17.6571 21.3127 17.921 21.1028 18.14C20.8928 18.359 20.6358 18.5274 20.3512 18.6324C20.0666 18.7374 19.7618 18.7762 19.4599 18.746L12.1999 18.02C12.0676 18.0068 11.9342 18.0068 11.8019 18.02L4.54091 18.746C4.23904 18.7762 3.93426 18.7374 3.64963 18.6324C3.365 18.5274 3.10799 18.359 2.89805 18.14C2.6881 17.921 2.53073 17.6571 2.43785 17.3683C2.34496 17.0795 2.31899 16.7733 2.36191 16.473L2.96091 12.283C2.98774 12.0953 2.98774 11.9047 2.96091 11.717L2.36191 7.52702C2.31902 7.22678 2.34497 6.92073 2.43781 6.632C2.53064 6.34328 2.68792 6.07945 2.89774 5.86047C3.10757 5.64149 3.36445 5.4731 3.64895 5.36803C3.93345 5.26296 4.23812 5.22398 4.53991 5.25402L11.8009 5.98002C11.9332 5.99325 12.0666 5.99325 12.1989 5.98002L19.4599 5.25402C19.7618 5.22381 20.0666 5.26268 20.3512 5.36767C20.6358 5.47267 20.8928 5.64103 21.1028 5.86003C21.3127 6.07903 21.4701 6.34293 21.563 6.63173C21.6559 6.92054 21.6818 7.22669 21.6389 7.52702L21.0399 11.717C21.0131 11.9047 21.0131 12.0953 21.0399 12.283Z" stroke="#B2B2B2" stroke-width="1.5" stroke-linecap="round" stroke-linejoin="round"/>
</svg>
