<svg width="40" height="22" viewBox="0 0 40 22" fill="none" xmlns="http://www.w3.org/2000/svg">
<path d="M39.8117 16.3192C39.6506 16.1164 39.4057 15.9996 39.147 15.9996H34.5479C34.0974 9.05746 28.1947 3.48827 20.8513 3.08619V1.70806H22.5814C23.0507 1.70806 23.4327 1.32658 23.4327 0.854031C23.4327 0.383201 23.0524 0 22.5814 0H17.4187C16.9494 0 16.5674 0.381481 16.5674 0.854031C16.5674 1.32486 16.9477 1.70806 17.4187 1.70806H19.1488V3.08619C11.8054 3.48829 5.90257 9.05746 5.45222 15.9996H0.851312C0.592658 15.9996 0.349431 16.1164 0.186698 16.3192C0.0256796 16.522 -0.0359844 16.7866 0.0205402 17.0392C0.551539 19.4243 2.65163 22 5.12179 22H34.8773C37.3473 22 39.4492 19.4259 39.9785 17.0392C40.0367 16.7849 39.9751 16.5202 39.8123 16.3192H39.8117ZM19.9995 4.76819C26.793 4.76819 32.374 9.73252 32.8415 15.9976L7.1576 15.9994C7.62524 9.73247 13.206 4.76819 19.9995 4.76819ZM34.8766 20.292H5.12245C3.88229 20.292 2.66948 19.072 2.03916 17.7075H37.9615C37.3294 19.072 36.1185 20.292 34.8766 20.292Z" fill="white"/>
</svg>
