<svg width="40" height="40" viewBox="0 0 40 40" fill="none" xmlns="http://www.w3.org/2000/svg">
<path d="M20 28.3333C22.5 28.3333 22.5 26.6667 25 26.6667C27.5 26.6667 27.5 28.3333 30 28.3333C32.5 28.3333 32.5 26.6667 35 26.6667L33.0483 19.835C32.3833 17.5083 32.05 16.345 31.16 15.6717C30.2683 15 29.0583 15 26.6383 15H13.3617C10.9417 15 9.73333 15 8.84 15.6717C7.95 16.345 7.61833 17.5083 6.95167 19.835L5 26.6667C7.5 26.6667 7.5 28.3333 10 28.3333C12.5 28.3333 12.5 26.6667 15 26.6667C17.5 26.6667 17.5 28.3333 20 28.3333ZM20 28.3333V35M13.3333 15V13.3333C13.3333 11.5652 14.0357 9.86953 15.286 8.61929C16.5362 7.36905 18.2319 6.66667 20 6.66667M20 6.66667C21.7681 6.66667 23.4638 7.36905 24.714 8.61929C25.9643 9.86953 26.6667 11.5652 26.6667 13.3333V15M20 6.66667V5M20 35H23.3333M20 35H16.6667" stroke="white" stroke-width="1.5" stroke-linecap="round" stroke-linejoin="round"/>
</svg>
