<svg width="24" height="24" viewBox="0 0 24 24" fill="none" xmlns="http://www.w3.org/2000/svg">
<path d="M4.89453 18.3158V5.78947C4.89453 5.31488 5.08307 4.85972 5.41866 4.52412C5.75425 4.18853 6.20941 4 6.68402 4H19.2104C19.685 4 20.1402 4.18853 20.4758 4.52412C20.8114 4.85972 20.9999 5.31488 20.9999 5.78947V18.3158C20.9999 18.7904 20.8114 19.2455 20.4758 19.5811C20.1402 19.9167 19.685 20.1053 19.2104 20.1053H6.68402C6.20941 20.1053 5.75425 19.9167 5.41866 19.5811C5.08307 19.2455 4.89453 18.7904 4.89453 18.3158Z" stroke="#B2B2B2" stroke-width="1.5"/>
<path d="M18.3159 13.842V10.2631M13.3948 9.81572L14.2895 8.92099M8.92108 9.81572L8.02634 8.92099M8.02634 15.1841L8.92108 14.2894M14.2895 15.1841L13.3948 14.2894M4 8.47362H4.89474M4 6.68414H4.89474M4.89474 15.6315H4M4.89474 17.421H4M11.1579 14.7368C10.446 14.7368 9.76329 14.454 9.2599 13.9506C8.75651 13.4472 8.47371 12.7645 8.47371 12.0526C8.47371 11.3407 8.75651 10.6579 9.2599 10.1545C9.76329 9.65115 10.446 9.36835 11.1579 9.36835C11.8698 9.36835 12.5526 9.65115 13.056 10.1545C13.5594 10.6579 13.8422 11.3407 13.8422 12.0526C13.8422 12.7645 13.5594 13.4472 13.056 13.9506C12.5526 14.454 11.8698 14.7368 11.1579 14.7368Z" stroke="#B2B2B2" stroke-width="1.5" stroke-linecap="round" stroke-linejoin="round"/>
</svg>
