<svg width="24" height="24" viewBox="0 0 24 24" fill="none" xmlns="http://www.w3.org/2000/svg">
<path d="M8 18C7.71667 18 7.47933 17.904 7.288 17.712C7.09667 17.52 7.00067 17.2827 7 17C6.99933 16.7173 7.09533 16.48 7.288 16.288C7.48067 16.096 7.718 16 8 16C8.282 16 8.51967 16.096 8.713 16.288C8.90633 16.48 9.002 16.7173 9 17C8.998 17.2827 8.902 17.5203 8.712 17.713C8.522 17.9057 8.28467 18.0013 8 18ZM12 18C11.7167 18 11.4793 17.904 11.288 17.712C11.0967 17.52 11.0007 17.2827 11 17C10.9993 16.7173 11.0953 16.48 11.288 16.288C11.4807 16.096 11.718 16 12 16C12.282 16 12.5197 16.096 12.713 16.288C12.9063 16.48 13.002 16.7173 13 17C12.998 17.2827 12.902 17.5203 12.712 17.713C12.522 17.9057 12.2847 18.0013 12 18ZM16 18C15.7167 18 15.4793 17.904 15.288 17.712C15.0967 17.52 15.0007 17.2827 15 17C14.9993 16.7173 15.0953 16.48 15.288 16.288C15.4807 16.096 15.718 16 16 16C16.282 16 16.5197 16.096 16.713 16.288C16.9063 16.48 17.002 16.7173 17 17C16.998 17.2827 16.902 17.5203 16.712 17.713C16.522 17.9057 16.2847 18.0013 16 18ZM5 14V12C5 10.2333 5.56667 8.7 6.7 7.4C7.83333 6.1 9.26667 5.33333 11 5.1V3H13V5.1C14.7333 5.33333 16.1667 6.1 17.3 7.4C18.4333 8.7 19 10.2333 19 12V14H5ZM7 12H17C17 10.6167 16.5123 9.43767 15.537 8.463C14.5617 7.48833 13.3827 7.00067 12 7C10.6173 6.99933 9.43833 7.487 8.463 8.463C7.48767 9.439 7 10.618 7 12ZM8 21C7.71667 21 7.47933 20.904 7.288 20.712C7.09667 20.52 7.00067 20.2827 7 20C6.99933 19.7173 7.09533 19.48 7.288 19.288C7.48067 19.096 7.718 19 8 19C8.282 19 8.51967 19.096 8.713 19.288C8.90633 19.48 9.002 19.7173 9 20C8.998 20.2827 8.902 20.5203 8.712 20.713C8.522 20.9057 8.28467 21.0013 8 21ZM12 21C11.7167 21 11.4793 20.904 11.288 20.712C11.0967 20.52 11.0007 20.2827 11 20C10.9993 19.7173 11.0953 19.48 11.288 19.288C11.4807 19.096 11.718 19 12 19C12.282 19 12.5197 19.096 12.713 19.288C12.9063 19.48 13.002 19.7173 13 20C12.998 20.2827 12.902 20.5203 12.712 20.713C12.522 20.9057 12.2847 21.0013 12 21ZM16 21C15.7167 21 15.4793 20.904 15.288 20.712C15.0967 20.52 15.0007 20.2827 15 20C14.9993 19.7173 15.0953 19.48 15.288 19.288C15.4807 19.096 15.718 19 16 19C16.282 19 16.5197 19.096 16.713 19.288C16.9063 19.48 17.002 19.7173 17 20C16.998 20.2827 16.902 20.5203 16.712 20.713C16.522 20.9057 16.2847 21.0013 16 21Z" fill="#B2B2B2"/>
</svg>
