<svg width="32" height="32" viewBox="0 0 32 32" fill="none" xmlns="http://www.w3.org/2000/svg">
<path d="M12 10C12.2652 10 12.5196 10.1054 12.7071 10.2929C12.8946 10.4804 13 10.7348 13 11V25C13 25.2652 12.8946 25.5196 12.7071 25.7071C12.5196 25.8946 12.2652 26 12 26C11.7348 26 11.4804 25.8946 11.2929 25.7071C11.1054 25.5196 11 25.2652 11 25V11C11 10.7348 11.1054 10.4804 11.2929 10.2929C11.4804 10.1054 11.7348 10 12 10ZM16 10C16.2652 10 16.5196 10.1054 16.7071 10.2929C16.8946 10.4804 17 10.7348 17 11V25C17 25.2652 16.8946 25.5196 16.7071 25.7071C16.5196 25.8946 16.2652 26 16 26C15.7348 26 15.4804 25.8946 15.2929 25.7071C15.1054 25.5196 15 25.2652 15 25V11C15 10.7348 15.1054 10.4804 15.2929 10.2929C15.4804 10.1054 15.7348 10 16 10ZM20 10C20.2652 10 20.5196 10.1054 20.7071 10.2929C20.8946 10.4804 21 10.7348 21 11V25C21 25.2652 20.8946 25.5196 20.7071 25.7071C20.5196 25.8946 20.2652 26 20 26C19.7348 26 19.4804 25.8946 19.2929 25.7071C19.1054 25.5196 19 25.2652 19 25V11C19 10.7348 19.1054 10.4804 19.2929 10.2929C19.4804 10.1054 19.7348 10 20 10Z" fill="white"/>
<path d="M13 0C12.7348 0 12.4804 0.105357 12.2929 0.292893C12.1054 0.48043 12 0.734784 12 1V6H10C8.93913 6 7.92172 6.42143 7.17157 7.17157C6.42143 7.92172 6 8.93913 6 10V26C5.99985 26.7144 6.19102 27.4157 6.55363 28.0312C6.91625 28.6467 7.43708 29.1539 8.062 29.5C7.9869 29.7956 7.98017 30.1044 8.04235 30.403C8.10452 30.7015 8.23395 30.982 8.4208 31.223C8.60765 31.4641 8.84699 31.6593 9.12064 31.7939C9.39429 31.9286 9.69503 31.9991 10 32C10.5304 32 11.0391 31.7893 11.4142 31.4142C11.7893 31.0391 12 30.5304 12 30H20C20.0008 30.2834 20.0619 30.5634 20.1791 30.8214C20.2964 31.0795 20.4671 31.3096 20.6801 31.4967C20.893 31.6837 21.1432 31.8234 21.4142 31.9064C21.6852 31.9894 21.9707 32.0139 22.2519 31.9782C22.5331 31.9425 22.8034 31.8474 23.0451 31.6993C23.2867 31.5512 23.4941 31.3535 23.6536 31.1191C23.813 30.8848 23.9208 30.6193 23.9698 30.3401C24.0189 30.061 24.008 29.7746 23.938 29.5C24.5629 29.1539 25.0838 28.6467 25.4464 28.0312C25.809 27.4157 26.0001 26.7144 26 26V10C26 8.93913 25.5786 7.92172 24.8284 7.17157C24.0783 6.42143 23.0609 6 22 6H20V1C20 0.734784 19.8946 0.48043 19.7071 0.292893C19.5196 0.105357 19.2652 0 19 0L13 0ZM18 6H14V2H18V6ZM24 26C24 26.5304 23.7893 27.0391 23.4142 27.4142C23.0391 27.7893 22.5304 28 22 28H10C9.46957 28 8.96086 27.7893 8.58579 27.4142C8.21071 27.0391 8 26.5304 8 26V10C8 9.46957 8.21071 8.96086 8.58579 8.58579C8.96086 8.21071 9.46957 8 10 8H22C22.5304 8 23.0391 8.21071 23.4142 8.58579C23.7893 8.96086 24 9.46957 24 10V26Z" fill="white"/>
</svg>
