<svg width="24" height="24" viewBox="0 0 24 24" fill="none" xmlns="http://www.w3.org/2000/svg">
<path d="M4 12V22M20 12V22M3 12H21M4 17H20M11 14.5H13M12 7V12M14.386 3.355C14.2827 3.18433 14.1893 3.026 14.106 2.88C13.856 2.437 13.73 2.216 13.53 2.108C13.33 2 13.064 2 12.531 2H11.47C10.937 2 10.67 2 10.47 2.108C10.27 2.216 10.146 2.438 9.895 2.88C9.80424 3.03984 9.71089 3.19819 9.615 3.355C8.413 5.324 7.812 6.308 8.052 6.654C8.292 7 9.42 7 11.676 7H12.324C14.58 7 15.708 7 15.948 6.654C16.188 6.308 15.588 5.324 14.386 3.355Z" stroke="#B2B2B2" stroke-width="1.5" stroke-linecap="round" stroke-linejoin="round"/>
</svg>
