<svg width="24" height="24" viewBox="0 0 24 24" fill="none" xmlns="http://www.w3.org/2000/svg">
<path d="M20.3669 6.85645H10.2331V6.21384C10.2331 5.50643 9.66308 4.92785 8.96616 4.92785H7.06616L7.0669 3.64261C7.0669 3.28929 6.7819 3 6.43382 3C6.08574 3 5.80074 3.28929 5.80074 3.64261L5.8 4.92785C5.10308 4.92785 4.53308 5.50643 4.53308 6.21384V6.85645H2.63308C2.285 6.85645 2 7.14574 2 7.49905V20.3566C2 20.71 2.285 20.9992 2.63308 20.9992L20.3669 21C20.715 21 21 20.7107 21 20.3574V7.49981C21 7.14649 20.715 6.8572 20.3669 6.8572V6.85645ZM5.8 6.21384H8.96692V17.1428H5.8V6.21384ZM19.7331 19.714H3.26692V8.14244H4.53384V17.1428C4.53384 17.8502 5.10384 18.4288 5.80076 18.4288H8.96768C9.6646 18.4288 10.2346 17.8502 10.2346 17.1428L10.2331 8.14244H19.7331L19.7331 19.714ZM12.1331 13.2856H17.8331C18.1812 13.2856 18.4662 12.9963 18.4662 12.643V10.0718C18.4662 9.71849 18.1812 9.4292 17.8331 9.4292H12.1331C11.785 9.4292 11.5 9.71849 11.5 10.0718V12.643C11.5 12.9963 11.785 13.2856 12.1331 13.2856ZM12.7662 10.7144H17.1992V12.0004H12.7662V10.7144ZM15.9331 15.2142C15.9331 15.5675 15.6481 15.8568 15.3 15.8568C14.9519 15.8568 14.6669 15.5675 14.6669 15.2142C14.6669 14.8609 14.9519 14.5716 15.3 14.5716C15.6481 14.5716 15.9331 14.8609 15.9331 15.2142ZM13.4 15.2142C13.4 15.5675 13.115 15.8568 12.7669 15.8568C12.4188 15.8568 12.1338 15.5675 12.1338 15.2142C12.1338 14.8609 12.4188 14.5716 12.7669 14.5716C13.115 14.5716 13.4 14.8609 13.4 15.2142ZM15.9331 17.7854C15.9331 18.1387 15.6481 18.428 15.3 18.428C14.9519 18.428 14.6669 18.1387 14.6669 17.7854C14.6669 17.4321 14.9519 17.1428 15.3 17.1428C15.6481 17.1428 15.9331 17.4321 15.9331 17.7854ZM13.4 17.7854C13.4 18.1387 13.115 18.428 12.7669 18.428C12.4188 18.428 12.1338 18.1387 12.1338 17.7854C12.1338 17.4321 12.4188 17.1428 12.7669 17.1428C13.115 17.1428 13.4 17.4321 13.4 17.7854ZM18.4669 15.2142V17.7854C18.4669 18.1387 18.1819 18.428 17.8338 18.428C17.4858 18.428 17.2008 18.1387 17.2008 17.7854V15.2142C17.2008 14.8609 17.4858 14.5716 17.8338 14.5716C18.1819 14.5716 18.4669 14.8609 18.4669 15.2142Z" fill="#B2B2B2"/>
</svg>
