<svg width="24" height="24" viewBox="0 0 24 24" fill="none" xmlns="http://www.w3.org/2000/svg">
<path d="M4.50349 3.42859C3.76467 3.42859 3.05611 3.72208 2.53369 4.24451C2.01127 4.76693 1.71777 5.47549 1.71777 6.2143V15.2143C1.71777 15.9531 2.01127 16.6617 2.53369 17.1841C3.05611 17.7065 3.76467 18 4.50349 18H19.5009C20.2397 18 20.9483 17.7065 21.4707 17.1841C21.9931 16.6617 22.2866 15.9531 22.2866 15.2143V6.2143C22.2866 5.47549 21.9931 4.76693 21.4707 4.24451C20.9483 3.72208 20.2397 3.42859 19.5009 3.42859H4.50349ZM3.00349 6.2143C3.00349 5.3863 3.67549 4.7143 4.50349 4.7143H19.5009C20.3289 4.7143 21.0009 5.3863 21.0009 6.2143V15.2143C21.0009 15.6121 20.8429 15.9937 20.5616 16.275C20.2803 16.5563 19.8987 16.7143 19.5009 16.7143H4.50349C4.10566 16.7143 3.72413 16.5563 3.44283 16.275C3.16152 15.9937 3.00349 15.6121 3.00349 15.2143V6.2143ZM5.78577 19.7143C5.61528 19.7143 5.45176 19.782 5.3312 19.9026C5.21065 20.0231 5.14292 20.1867 5.14292 20.3572C5.14292 20.5277 5.21065 20.6912 5.3312 20.8117C5.45176 20.9323 5.61528 21 5.78577 21H18.2143C18.3848 21 18.5484 20.9323 18.6689 20.8117C18.7895 20.6912 18.8572 20.5277 18.8572 20.3572C18.8572 20.1867 18.7895 20.0231 18.6689 19.9026C18.5484 19.782 18.3848 19.7143 18.2143 19.7143H5.78577Z" fill="#B2B2B2"/>
</svg>
