<svg width="24" height="24" viewBox="0 0 24 24" fill="none" xmlns="http://www.w3.org/2000/svg">
<path d="M13.09 21H10.91C5.45 21 5 19.85 5 19.85C5.00266 19.1723 5.10372 18.4986 5.3 17.85C5.72 16.85 5.99 16.43 7.79 15.77C9.59 15.11 10.21 14.21 10.3 13.89V12.68C9.22865 11.531 8.61349 10.0304 8.57 8.46C8.57 5.49 10.27 4 12 4C13.73 4 15.43 5.53 15.43 8.46C15.3865 10.0304 14.7714 11.531 13.7 12.68V13.85C13.78 14.17 14.44 15.08 16.21 15.73C17.98 16.38 18.28 16.84 18.7 17.81C18.8963 18.4586 18.9973 19.1323 19 19.81C19 19.81 18.52 21 13.09 21Z" fill="#E9E5DE"/>
</svg>
