<svg width="32" height="32" viewBox="0 0 32 32" fill="none" xmlns="http://www.w3.org/2000/svg">
<path d="M4 7.89022L6.352 6.70755C7.27677 6.24169 8.29785 5.99902 9.33333 5.99902C10.3688 5.99902 11.3899 6.24169 12.3147 6.70755L13.0187 7.06222C13.9434 7.52808 14.9645 7.77075 16 7.77075C17.0355 7.77075 18.0566 7.52808 18.9813 7.06222L19.6853 6.70755C20.6101 6.24169 21.6312 5.99902 22.6667 5.99902C23.7022 5.99902 24.7232 6.24169 25.648 6.70755L28 7.89022M4 13.9276L6.352 12.7436C7.27677 12.2777 8.29785 12.035 9.33333 12.035C10.3688 12.035 11.3899 12.2777 12.3147 12.7436L13.0187 13.0982C13.9434 13.5641 14.9645 13.8067 16 13.8067C17.0355 13.8067 18.0566 13.5641 18.9813 13.0982L19.6853 12.7436C20.6101 12.2777 21.6312 12.035 22.6667 12.035C23.7022 12.035 24.7232 12.2777 25.648 12.7436L28 13.9276M4 19.9636L6.352 18.7796C7.27677 18.3137 8.29785 18.071 9.33333 18.071C10.3688 18.071 11.3899 18.3137 12.3147 18.7796L13.0187 19.1342C13.9434 19.6001 14.9645 19.8427 16 19.8427C17.0355 19.8427 18.0566 19.6001 18.9813 19.1342L19.6853 18.7796C20.6101 18.3137 21.6312 18.071 22.6667 18.071C23.7022 18.071 24.7232 18.3137 25.648 18.7796L28 19.9636M4 25.9996L6.352 24.8169C7.27677 24.351 8.29785 24.1084 9.33333 24.1084C10.3688 24.1084 11.3899 24.351 12.3147 24.8169L13.0187 25.1702C13.9434 25.6361 14.9645 25.8787 16 25.8787C17.0355 25.8787 18.0566 25.6361 18.9813 25.1702L19.6853 24.8169C20.6101 24.351 21.6312 24.1084 22.6667 24.1084C23.7022 24.1084 24.7232 24.351 25.648 24.8169L28 25.9996" stroke="white" stroke-width="1.5" stroke-linecap="round" stroke-linejoin="round"/>
</svg>
