<svg width="295" height="295" viewBox="0 0 295 295" fill="none" xmlns="http://www.w3.org/2000/svg">
<path d="M91.6725 90.5682L88.1483 85.8062L89.0262 85.1565C89.1243 84.6584 89.1209 84.0604 89.0162 83.3625C88.9125 82.6569 88.6421 81.8139 88.2049 80.8337C87.7688 79.8457 87.0994 78.6769 86.1967 77.3274L82.2367 71.3645L90.3241 65.3792L99.3218 77.537L100.891 76.3754L104.396 81.1108L102.826 82.2724L100.405 79.0002L90.8008 86.1077L93.2422 89.4066L91.6725 90.5682ZM90.9949 83.6995L97.7522 78.6986L89.8374 68.004L84.8093 71.7251L87.7664 76.1658C88.4482 77.1984 89.0212 78.1674 89.4854 79.0728C89.9463 79.9738 90.3023 80.8118 90.5533 81.5867C90.801 82.3573 90.9482 83.0615 90.9949 83.6995Z" fill="#CEAE7A"/>
<path d="M121.27 59.6627C121.879 61.3432 122.101 62.9054 121.937 64.3491C121.773 65.7928 121.282 67.0381 120.464 68.0849C119.646 69.1318 118.558 69.9011 117.199 70.3929C115.84 70.8847 114.511 70.9901 113.213 70.7091C111.915 70.4281 110.74 69.7854 109.691 68.7809C108.641 67.7764 107.812 66.4339 107.203 64.7534C106.595 63.0728 106.373 61.5107 106.537 60.067C106.701 58.6232 107.192 57.3779 108.01 56.3311C108.827 55.2842 109.916 54.5149 111.275 54.0231C112.634 53.5313 113.962 53.4259 115.261 53.7069C116.559 53.9879 117.733 54.6306 118.783 55.6351C119.833 56.6396 120.662 57.9821 121.27 59.6627ZM119.403 60.3384C118.904 58.9587 118.252 57.8778 117.446 57.0956C116.646 56.3116 115.767 55.8176 114.807 55.6134C113.852 55.4074 112.893 55.479 111.928 55.8281C110.963 56.1773 110.178 56.7374 109.571 57.5084C108.969 58.2775 108.609 59.2202 108.491 60.3365C108.378 61.4509 108.571 62.6979 109.071 64.0776C109.57 65.4573 110.22 66.5392 111.02 67.3232C111.825 68.1053 112.705 68.5994 113.659 68.8054C114.619 69.0095 115.581 68.937 116.546 68.5879C117.511 68.2387 118.294 67.6796 118.895 66.9105C119.502 66.1395 119.862 65.1968 119.975 64.0824C120.093 62.9661 119.902 61.7181 119.403 60.3384Z" fill="#CEAE7A"/>
<path d="M132.686 65.5002L131.206 48.6195L141.394 47.7261L141.553 49.5394L133.409 50.2536L133.872 55.5288L138.158 55.1529C139.367 55.0469 140.403 55.1554 141.268 55.4782C142.138 55.8006 142.819 56.3029 143.31 56.9852C143.808 57.667 144.099 58.4969 144.185 59.475C144.271 60.4531 144.129 61.3349 143.761 62.1203C143.398 62.9052 142.817 63.5458 142.019 64.0422C141.226 64.5381 140.225 64.839 139.017 64.945L132.686 65.5002ZM134.574 63.5406L138.86 63.1647C139.63 63.0972 140.267 62.8862 140.773 62.5318C141.284 62.1713 141.656 61.7345 141.888 61.2214C142.125 60.7022 142.219 60.1679 142.171 59.6184C142.1 58.8107 141.729 58.1428 141.057 57.6148C140.384 57.0813 139.471 56.8651 138.317 56.9663L134.031 57.3422L134.574 63.5406Z" fill="#CEAE7A"/>
<path d="M152.574 64.3956L155.113 47.6415L160.774 48.4995C162.089 48.6987 163.127 49.0988 163.889 49.6998C164.658 50.2961 165.184 51.0257 165.466 51.8886C165.748 52.7515 165.814 53.6765 165.664 54.6636C165.515 55.6507 165.177 56.5173 164.651 57.2633C164.131 58.0101 163.417 58.5603 162.51 58.9137C161.603 59.2617 160.498 59.337 159.195 59.1394L155.137 58.5244L155.41 56.7246L159.402 57.3297C160.302 57.4661 161.048 57.4202 161.641 57.192C162.233 56.9638 162.692 56.6038 163.018 56.112C163.35 55.6155 163.567 55.0319 163.668 54.3611C163.77 53.6902 163.736 53.0713 163.565 52.5043C163.4 51.938 163.064 51.4632 162.559 51.0798C162.054 50.6909 161.347 50.4274 160.436 50.2893L156.869 49.7487L154.603 64.7031L152.574 64.3956Z" fill="#CEAE7A"/>
<path d="M188.634 65.7769C187.922 67.4163 187.011 68.7045 185.901 69.6415C184.79 70.5786 183.578 71.1469 182.265 71.3463C180.952 71.5458 179.632 71.3578 178.306 70.7822C176.981 70.2066 175.942 69.3709 175.191 68.2751C174.441 67.1792 174.028 65.9058 173.955 64.4546C173.881 63.0035 174.2 61.4583 174.912 59.8189C175.624 58.1795 176.535 56.8913 177.646 55.9543C178.756 55.0172 179.968 54.4489 181.281 54.2495C182.595 54.05 183.914 54.238 185.24 54.8136C186.566 55.3892 187.604 56.2249 188.355 57.3207C189.106 58.4165 189.518 59.69 189.592 61.1412C189.665 62.5923 189.346 64.1375 188.634 65.7769ZM186.813 64.986C187.397 63.6401 187.665 62.4064 187.617 61.285C187.574 60.1657 187.273 59.2024 186.716 58.3951C186.163 57.5899 185.416 56.983 184.475 56.5744C183.534 56.1658 182.578 56.0334 181.608 56.1773C180.642 56.3234 179.734 56.7616 178.881 57.492C178.034 58.2246 177.318 59.2639 176.734 60.6098C176.149 61.9557 175.879 63.1882 175.922 64.3075C175.97 65.429 176.271 66.3923 176.823 67.1974C177.381 68.0048 178.13 68.6128 179.071 69.0214C180.012 69.43 180.965 69.5613 181.931 69.4152C182.901 69.2713 183.81 68.8331 184.658 68.1005C185.51 67.3701 186.228 66.3319 186.813 64.986Z" fill="#CEAE7A"/>
<path d="M222.14 81.3145L209.904 93.038L208.485 91.5563L219.406 81.0922L213.498 74.9266L202.577 85.3907L201.158 83.9091L213.393 72.1856L222.14 81.3145Z" fill="#CEAE7A"/>
<path d="M230.458 109.262C228.886 110.113 227.374 110.564 225.922 110.617C224.47 110.669 223.166 110.368 222.009 109.715C220.853 109.061 219.93 108.099 219.242 106.828C218.554 105.557 218.253 104.259 218.338 102.933C218.423 101.608 218.884 100.351 219.722 99.1638C220.56 97.9765 221.764 96.9574 223.336 96.1065C224.907 95.2556 226.419 94.804 227.871 94.7518C229.323 94.6996 230.628 95.0002 231.784 95.6536C232.941 96.307 233.863 97.2692 234.552 98.5401C235.24 99.811 235.541 101.109 235.456 102.435C235.371 103.761 234.909 105.017 234.072 106.205C233.234 107.392 232.03 108.411 230.458 109.262ZM229.513 107.516C230.803 106.817 231.775 106.012 232.429 105.099C233.086 104.192 233.444 103.248 233.503 102.269C233.565 101.295 233.352 100.356 232.863 99.454C232.375 98.5518 231.704 97.8578 230.852 97.3722C230.002 96.8914 229.016 96.6755 227.895 96.7244C226.776 96.7781 225.572 97.1542 224.281 97.8528C222.991 98.5513 222.017 99.3543 221.361 100.262C220.707 101.174 220.349 102.118 220.287 103.092C220.227 104.071 220.442 105.012 220.93 105.914C221.419 106.817 222.088 107.508 222.938 107.989C223.79 108.475 224.776 108.69 225.895 108.637C227.016 108.588 228.222 108.214 229.513 107.516Z" fill="#CEAE7A"/>
<path d="M244.906 126.906L228.273 130.143L227.881 128.129L244.514 124.892L244.906 126.906ZM226.085 118.902L235.809 122.607L242.807 116.12L243.281 118.557L236.748 124.313L237.93 130.388L246.146 133.273L246.62 135.71L237.661 132.295L230.069 139.369L229.62 137.063L236.115 131.112L234.788 124.29L226.528 121.177L226.085 118.902Z" fill="#CEAE7A"/>
<path d="M230.353 148.94L230.58 146.8L246.776 154.773L246.553 156.879L229.046 161.282L229.273 159.142L243.991 155.609L244.005 155.478L230.353 148.94ZM236.852 150.427L235.939 159.05L234.129 158.858L235.042 150.235L236.852 150.427Z" fill="#CEAE7A"/>
<path d="M228.106 167.919L229.865 168.601L229.685 169.064C229.43 169.722 229.442 170.316 229.722 170.845C230.002 171.373 230.582 171.9 231.461 172.425C232.338 172.954 233.542 173.549 235.074 174.208L242.587 177.443L238.851 187.07L223.054 180.94L223.796 179.027L237.897 184.498L240.184 178.605L233.985 175.916C232.353 175.211 231.003 174.513 229.934 173.82C228.866 173.128 228.144 172.359 227.767 171.515C227.391 170.671 227.428 169.667 227.879 168.505L228.106 167.919Z" fill="#CEAE7A"/>
<path d="M216.811 206.69C215.386 205.612 214.349 204.422 213.701 203.122C213.053 201.821 212.787 200.51 212.903 199.186C213.019 197.863 213.513 196.625 214.386 195.473C215.258 194.321 216.315 193.509 217.558 193.038C218.8 192.567 220.134 192.467 221.562 192.738C222.989 193.009 224.416 193.684 225.841 194.763C227.265 195.842 228.302 197.031 228.95 198.332C229.599 199.632 229.865 200.944 229.749 202.267C229.632 203.591 229.138 204.828 228.266 205.981C227.393 207.133 226.336 207.945 225.094 208.416C223.852 208.887 222.517 208.987 221.09 208.715C219.662 208.444 218.236 207.769 216.811 206.69ZM218.01 205.107C219.179 205.993 220.315 206.545 221.416 206.762C222.514 206.985 223.521 206.92 224.437 206.569C225.35 206.222 226.116 205.64 226.735 204.822C227.354 204.004 227.709 203.106 227.798 202.129C227.884 201.157 227.673 200.17 227.164 199.169C226.653 198.173 225.812 197.232 224.642 196.346C223.472 195.461 222.338 194.907 221.24 194.685C220.139 194.467 219.132 194.531 218.219 194.878C217.303 195.229 216.536 195.813 215.916 196.631C215.297 197.449 214.944 198.345 214.858 199.317C214.769 200.295 214.98 201.281 215.492 202.278C216.001 203.278 216.84 204.221 218.01 205.107Z" fill="#CEAE7A"/>
<path d="M203.96 208.126L214.378 221.49L209.706 225.133C208.775 225.858 207.881 226.296 207.026 226.445C206.173 226.599 205.389 226.522 204.673 226.213C203.96 225.908 203.349 225.43 202.84 224.777C202.393 224.203 202.125 223.649 202.038 223.115C201.947 222.585 201.981 222.082 202.142 221.607C202.299 221.135 202.528 220.698 202.83 220.295L202.728 220.165C202.299 220.457 201.776 220.634 201.159 220.695C200.542 220.756 199.905 220.652 199.246 220.382C198.588 220.111 197.984 219.624 197.435 218.919C196.913 218.249 196.595 217.528 196.483 216.755C196.37 215.983 196.52 215.184 196.933 214.359C197.346 213.533 198.079 212.71 199.131 211.89L203.96 208.126ZM203.461 210.823L200.25 213.325C199.193 214.15 198.602 214.939 198.477 215.694C198.351 216.456 198.517 217.131 198.975 217.719C199.328 218.171 199.768 218.499 200.298 218.702C200.83 218.91 201.399 218.962 202.005 218.861C202.615 218.763 203.211 218.487 203.794 218.033L207.083 215.469L203.461 210.823ZM208.182 216.879L205.18 219.219C204.693 219.598 204.328 220.037 204.085 220.533C203.839 221.033 203.736 221.547 203.776 222.075C203.813 222.606 204.014 223.107 204.38 223.577C204.838 224.164 205.431 224.503 206.159 224.593C206.89 224.687 207.699 224.389 208.587 223.697L211.641 221.316L208.182 216.879Z" fill="#CEAE7A"/>
<path d="M187.068 220.215L189.027 219.325L190.363 237.328L188.435 238.203L175.766 225.344L177.725 224.455L188.231 235.351L188.351 235.297L187.068 220.215ZM189.08 226.57L181.184 230.154L180.431 228.496L188.327 224.913L189.08 226.57Z" fill="#CEAE7A"/>
<path d="M174.112 241.876L174.46 243.663L161.984 246.087L161.637 244.3L166.867 243.284L163.982 228.436L165.997 228.045L168.882 242.892L174.112 241.876Z" fill="#CEAE7A"/>
<path d="M148.659 240.131L143.832 239.9C142.62 239.842 141.607 239.595 140.794 239.158C139.976 238.722 139.369 238.132 138.974 237.39C138.573 236.647 138.396 235.785 138.443 234.805C138.49 233.824 138.749 232.969 139.221 232.241C139.686 231.512 140.348 230.956 141.206 230.571C142.058 230.187 143.09 230.024 144.302 230.082L150.65 230.386L149.839 247.312L147.789 247.214L148.514 232.073L144.217 231.867C143.445 231.83 142.785 231.953 142.236 232.236C141.681 232.524 141.254 232.907 140.955 233.384C140.65 233.867 140.485 234.383 140.458 234.934C140.42 235.744 140.697 236.456 141.292 237.07C141.886 237.689 142.762 238.027 143.919 238.082L148.746 238.313L148.659 240.131Z" fill="#CEAE7A"/>
<path d="M111.851 222.232L114.058 231.695L115.967 232.533L119.094 225.412L120.973 226.237L114.16 241.753L112.281 240.928L115.235 234.2L114.417 233.841L105.251 237.841L103.008 236.856L112.275 232.792L109.609 221.247L111.851 222.232Z" fill="#CEAE7A"/>
<path d="M94.1117 211.388L82.0068 223.247L80.5709 221.781L85.9613 216.5L79.6383 210.046L74.2479 215.326L72.8119 213.861L84.9167 202.002L86.3527 203.468L80.9387 208.772L87.2616 215.226L92.6757 209.922L94.1117 211.388Z" fill="#CEAE7A"/>
<path d="M78.5486 194.106L79.6013 195.983L61.7786 198.848L60.7421 197.001L72.4752 183.283L73.528 185.159L63.5659 196.555L63.6306 196.671L78.5486 194.106ZM72.3873 196.653L68.144 189.091L69.7315 188.2L73.9748 195.762L72.3873 196.653Z" fill="#CEAE7A"/>
<path d="M52.2623 179.57L51.7274 177.18L64.196 168.488L64.1527 168.295L49.1684 165.747L48.6335 163.357L65.1698 159.656L65.5891 161.529L53.0253 164.341L53.0615 164.503L66.7818 166.858L67.1866 168.667L55.7795 176.647L55.8156 176.808L68.3794 173.996L68.7986 175.869L52.2623 179.57Z" fill="#CEAE7A"/>
<path d="M63.1741 114.533L59.8713 112.996L60.4738 116.591L58.8843 116.782L58.59 113.138L55.774 115.47L54.802 114.198L57.7977 112.121L54.392 110.827L55.0096 109.364L58.3124 110.901L57.7098 107.306L59.2994 107.115L59.5936 110.759L62.4097 108.427L63.3816 109.699L60.3859 111.776L63.7917 113.069L63.1741 114.533Z" fill="#CEAE7A"/>
<circle cx="146.831" cy="147.442" r="75.5" fill="#353536"/>
<path d="M163.335 153.332L163.336 153.334C163.338 153.337 163.341 153.34 163.345 153.342C163.349 153.344 163.353 153.346 163.357 153.346C163.361 153.347 163.365 153.347 163.369 153.346C163.373 153.345 163.377 153.343 163.381 153.34C164.521 152.507 165.714 151.707 166.959 150.94C168.196 150.177 169.453 149.458 170.809 149.021C171.304 148.861 171.805 148.823 172.315 148.906C173.086 149.032 173.254 149.87 173.127 150.523C173.016 151.097 172.823 151.64 172.547 152.153C172.052 153.071 171.416 153.981 170.638 154.883C168.855 156.95 166.827 158.705 164.552 160.147C163.312 160.933 161.945 161.617 160.544 162.076C160.137 162.21 159.591 162.328 158.905 162.43C158.112 162.548 157.183 162.525 156.534 162.102C155.647 161.524 155.706 160.366 156.073 159.419C156.301 158.828 156.594 158.267 156.952 157.736C157.806 156.47 158.756 155.385 159.709 154.351C162.612 151.204 165.873 148.241 169.245 145.352C171.74 143.216 174.276 141.226 176.852 139.382C179.958 137.158 183.196 135.14 186.566 133.327C187.888 132.616 189.242 131.959 190.63 131.356C190.658 131.343 190.682 131.324 190.701 131.3C190.719 131.276 190.731 131.248 190.735 131.218C190.785 130.833 190.952 129.814 191.507 129.814C191.958 129.813 192.16 130.29 192.119 130.667C192.118 130.674 192.119 130.682 192.122 130.689C192.125 130.696 192.13 130.702 192.137 130.707C192.143 130.711 192.15 130.714 192.158 130.715C192.165 130.716 192.173 130.715 192.18 130.712C194.905 129.591 197.747 128.694 200.612 128.214C201.057 128.14 201.749 128.065 202.688 127.989C204.096 127.877 205.532 127.974 206.873 128.197C210 128.717 212.98 130.417 214.018 133.56C214.315 134.459 214.401 135.441 214.275 136.508C214.04 138.49 213.131 140.164 211.547 141.53C210.936 142.057 210.18 142.523 209.278 142.929C208.282 143.377 207.198 143.698 206.024 143.893C203.976 144.234 201.952 144.165 199.951 143.685C199.434 143.56 198.835 143.363 198.154 143.094C196.027 142.253 194.166 140.724 192.822 138.9C191.658 137.323 190.961 135.429 190.719 133.509C190.665 133.074 190.645 132.655 190.659 132.253C190.659 132.242 190.657 132.232 190.653 132.223C190.648 132.214 190.641 132.207 190.633 132.201C190.625 132.195 190.615 132.192 190.604 132.191C190.594 132.19 190.584 132.192 190.575 132.196C190.16 132.378 189.513 132.702 188.632 133.169C187.236 133.908 185.806 134.734 184.343 135.648C182.984 136.497 181.621 137.426 180.252 138.435C177.054 140.791 174.134 143.253 171.147 145.903C169.541 147.327 168.057 148.7 166.697 150.021C166.52 150.193 165.4 151.282 163.339 153.287C163.333 153.293 163.329 153.301 163.328 153.309C163.328 153.318 163.33 153.326 163.335 153.332ZM191.871 131.655C191.685 132.363 191.673 133.153 191.757 133.9C191.863 134.849 192.116 135.817 192.518 136.804C193.234 138.564 194.341 140.018 195.84 141.164C198.379 143.105 201.7 143.778 204.855 143.491C206.769 143.316 208.658 142.697 210.152 141.565C212.228 139.99 213.557 137.412 213.202 134.813C212.934 132.849 211.954 131.323 210.262 130.235C208.984 129.412 207.596 128.904 206.099 128.711C205.217 128.597 204.64 128.538 204.367 128.532C203.063 128.507 201.758 128.61 200.453 128.841C199.497 129.009 198.773 129.161 198.281 129.295C196.093 129.893 193.974 130.66 191.922 131.596C191.91 131.601 191.899 131.61 191.89 131.62C191.881 131.63 191.875 131.642 191.871 131.655ZM171.863 149.871C171.612 149.199 169.894 149.929 169.516 150.107C168.607 150.538 167.735 151.015 166.9 151.539C165.499 152.418 164.197 153.302 162.992 154.192C162.04 154.894 161.256 155.535 160.641 156.114C159.915 156.797 159.225 157.535 158.569 158.329C158.339 158.608 158.14 158.873 157.972 159.122C157.571 159.718 157.317 160.114 157.15 160.686C157.049 161.032 157.075 161.543 157.381 161.768C158.369 162.498 160.217 161.366 161.055 160.749C161.825 160.183 162.515 159.632 163.125 159.097C165.299 157.189 167.378 155.284 169.364 153.382C169.869 152.898 170.365 152.387 170.853 151.85C171.079 151.601 171.323 151.279 171.585 150.886C171.801 150.562 171.9 150.252 171.882 149.957C171.88 149.928 171.874 149.899 171.863 149.871Z" fill="white"/>
<path d="M163.335 153.332L163.336 153.334C163.338 153.337 163.341 153.34 163.345 153.342C163.349 153.344 163.353 153.346 163.357 153.346C163.361 153.347 163.365 153.347 163.369 153.346C163.373 153.345 163.377 153.343 163.381 153.34C164.521 152.507 165.714 151.707 166.959 150.94C168.196 150.177 169.453 149.458 170.809 149.021C171.304 148.861 171.805 148.823 172.315 148.906C173.086 149.032 173.254 149.87 173.127 150.523C173.016 151.097 172.823 151.64 172.547 152.153C172.052 153.071 171.416 153.981 170.638 154.883C168.855 156.95 166.827 158.705 164.552 160.147C163.312 160.933 161.945 161.617 160.544 162.076C160.137 162.21 159.591 162.328 158.905 162.43C158.112 162.548 157.183 162.525 156.534 162.102C155.647 161.524 155.706 160.366 156.073 159.419C156.301 158.828 156.594 158.267 156.952 157.736C157.806 156.47 158.756 155.385 159.709 154.351C162.612 151.204 165.873 148.241 169.245 145.352C171.74 143.216 174.276 141.226 176.852 139.382C179.958 137.158 183.196 135.14 186.566 133.327C187.888 132.616 189.242 131.959 190.63 131.356C190.658 131.343 190.682 131.324 190.701 131.3C190.719 131.276 190.731 131.248 190.735 131.218C190.785 130.833 190.952 129.814 191.507 129.814C191.958 129.813 192.16 130.29 192.119 130.667C192.118 130.674 192.119 130.682 192.122 130.689C192.125 130.696 192.13 130.702 192.137 130.707C192.143 130.711 192.15 130.714 192.158 130.715C192.165 130.716 192.173 130.715 192.18 130.712C194.905 129.591 197.747 128.694 200.612 128.214C201.057 128.14 201.749 128.065 202.688 127.989C204.096 127.877 205.532 127.974 206.873 128.197C210 128.717 212.98 130.417 214.018 133.56C214.315 134.459 214.401 135.441 214.275 136.508C214.04 138.49 213.131 140.164 211.547 141.53C210.936 142.057 210.18 142.523 209.278 142.929C208.282 143.377 207.198 143.698 206.024 143.893C203.976 144.234 201.952 144.165 199.951 143.685C199.434 143.56 198.835 143.363 198.154 143.094C196.027 142.253 194.166 140.724 192.822 138.9C191.658 137.323 190.961 135.429 190.719 133.509C190.665 133.074 190.645 132.655 190.659 132.253C190.659 132.242 190.657 132.232 190.653 132.223C190.648 132.214 190.641 132.207 190.633 132.201C190.625 132.195 190.615 132.192 190.604 132.191C190.594 132.19 190.584 132.192 190.575 132.196C190.16 132.378 189.513 132.702 188.632 133.169C187.236 133.908 185.806 134.734 184.343 135.648C182.984 136.497 181.621 137.426 180.252 138.435C177.054 140.791 174.134 143.253 171.147 145.903C169.541 147.327 168.057 148.7 166.697 150.021C166.52 150.193 165.4 151.282 163.339 153.287C163.333 153.293 163.329 153.301 163.328 153.309C163.328 153.318 163.33 153.326 163.335 153.332ZM191.871 131.655C191.685 132.363 191.673 133.153 191.757 133.9C191.863 134.849 192.116 135.817 192.518 136.804C193.234 138.564 194.341 140.018 195.84 141.164C198.379 143.105 201.7 143.778 204.855 143.491C206.769 143.316 208.658 142.697 210.152 141.565C212.228 139.99 213.557 137.412 213.202 134.813C212.934 132.849 211.954 131.323 210.262 130.235C208.984 129.412 207.596 128.904 206.099 128.711C205.217 128.597 204.64 128.538 204.367 128.532C203.063 128.507 201.758 128.61 200.453 128.841C199.497 129.009 198.773 129.161 198.281 129.295C196.093 129.893 193.974 130.66 191.922 131.596C191.91 131.601 191.899 131.61 191.89 131.62C191.881 131.63 191.875 131.642 191.871 131.655ZM171.863 149.871C171.612 149.199 169.894 149.929 169.516 150.107C168.607 150.538 167.735 151.015 166.9 151.539C165.499 152.418 164.197 153.302 162.992 154.192C162.04 154.894 161.256 155.535 160.641 156.114C159.915 156.797 159.225 157.535 158.569 158.329C158.339 158.608 158.14 158.873 157.972 159.122C157.571 159.718 157.317 160.114 157.15 160.686C157.049 161.032 157.075 161.543 157.381 161.768C158.369 162.498 160.217 161.366 161.055 160.749C161.825 160.183 162.515 159.632 163.125 159.097C165.299 157.189 167.378 155.284 169.364 153.382C169.869 152.898 170.365 152.387 170.853 151.85C171.079 151.601 171.323 151.279 171.585 150.886C171.801 150.562 171.9 150.252 171.882 149.957C171.88 149.928 171.874 149.899 171.863 149.871Z" fill="url(#paint0_linear_188_599)"/>
<path d="M126.311 145.507L126.31 145.506C126.305 145.5 126.298 145.496 126.29 145.495C126.282 145.494 126.274 145.495 126.267 145.5C125.409 146.107 124.294 146.871 122.923 147.793C120.967 149.109 118.901 150.424 116.727 151.738C116.522 151.862 115.954 152.168 115.023 152.655C114.162 153.107 113.304 153.452 112.448 153.69C111.85 153.855 111.262 153.92 110.682 153.882C108.946 153.771 110.45 151.255 110.879 150.539C111.593 149.347 112.497 148.031 113.59 146.591C115.592 143.955 117.163 141.873 118.303 140.346C119.443 138.821 120.423 137.427 121.243 136.165C121.44 135.862 121.592 135.59 121.698 135.349C121.701 135.342 121.702 135.335 121.702 135.328C121.701 135.32 121.699 135.313 121.696 135.307C121.693 135.3 121.688 135.295 121.682 135.29C121.676 135.286 121.669 135.283 121.662 135.281C120.044 134.964 118.629 134.839 116.682 134.702C115.468 134.616 114.335 134.586 113.283 134.614C110.833 134.678 108.399 134.954 105.983 135.442C104.892 135.662 103.671 135.985 102.619 136.348C98.1837 137.877 94.2928 140.246 90.9469 143.457C90.0582 144.309 89.2394 145.269 88.4905 146.336C87.4099 147.877 86.6956 149.552 86.3477 151.362C86.2078 152.09 86.1767 152.862 86.2545 153.676C86.3772 154.97 86.7385 156.116 87.3383 157.114C87.8433 157.954 88.5123 158.643 89.3452 159.183C89.5857 159.338 89.3637 159.623 89.1378 159.569C89.0209 159.54 88.899 159.482 88.772 159.395C87.0859 158.233 86.0663 156.468 85.5903 154.522C85.0347 152.25 85.4094 149.732 86.3582 147.573C87.1279 145.822 88.1502 144.244 89.4249 142.84C91.1889 140.898 93.239 139.27 95.575 137.958C97.2909 136.994 99.0008 136.232 100.705 135.674C102.636 135.041 104.599 134.596 106.594 134.337C109.996 133.896 113.436 133.778 116.953 134.036C118.679 134.163 120.344 134.353 121.947 134.606C121.956 134.607 121.965 134.606 121.972 134.601C121.979 134.597 121.985 134.59 121.988 134.581C122.128 134.193 122.19 133.808 122.175 133.425C122.174 133.411 122.177 133.397 122.184 133.384C122.19 133.371 122.199 133.36 122.211 133.352C122.327 133.27 122.427 133.249 122.511 133.29C123.079 133.568 123.328 134.209 123.336 134.826C123.336 134.843 123.342 134.86 123.353 134.873C123.364 134.887 123.38 134.896 123.397 134.9C124.722 135.196 125.957 135.509 127.08 136.178C127.254 136.282 127.405 136.402 127.534 136.539C127.551 136.558 127.564 136.58 127.57 136.603C127.586 136.669 127.588 136.719 127.575 136.754C127.567 136.774 127.555 136.793 127.539 136.809C127.523 136.824 127.505 136.837 127.484 136.845C127.463 136.853 127.441 136.856 127.419 136.855C127.397 136.854 127.375 136.848 127.355 136.838C126.844 136.586 126.321 136.377 125.786 136.21C124.902 135.936 124.092 135.722 123.355 135.568C123.348 135.566 123.34 135.566 123.333 135.567C123.326 135.569 123.319 135.571 123.312 135.575C123.306 135.579 123.301 135.585 123.297 135.591C123.293 135.597 123.29 135.603 123.288 135.611C123.052 136.76 122.479 137.666 121.791 138.703C120.313 140.93 118.967 142.809 117.751 144.342C115.817 146.779 114.753 148.121 114.558 148.369C113.774 149.366 113.19 150.129 112.806 150.658C112.455 151.14 112.17 151.589 111.951 152.004C111.855 152.186 111.788 152.385 111.75 152.6C111.53 153.861 114.681 152.221 115.218 151.953C115.861 151.631 116.716 151.138 117.784 150.472C121.095 148.407 124.245 146.127 127.513 143.716C130.444 141.553 132.898 139.759 135.689 138.01C135.8 137.941 136.267 137.677 137.092 137.219C137.552 136.964 138.03 136.72 138.527 136.487C140.243 135.684 142.008 135 143.821 134.435C144.12 134.342 144.784 134.17 145.811 133.92C147.045 133.618 148.241 133.453 149.397 133.423C149.927 133.409 150.503 133.443 151.126 133.525C152.742 133.737 153.937 134.581 154.801 135.898C154.995 136.194 155.128 136.447 155.199 136.655C155.269 136.858 155.058 136.975 154.9 136.847C154.593 136.602 154.266 136.274 153.933 136.04C153.139 135.483 152.27 135.084 151.326 134.842C150.455 134.62 149.422 134.489 148.449 134.534C146.33 134.633 144.267 135.167 142.266 135.887C141.578 136.135 140.88 136.476 140.279 136.728C139.79 136.932 139.357 137.145 138.98 137.365C138.385 137.712 137.867 137.959 137.295 138.309C136.036 139.081 134.826 139.967 133.665 140.967C131.359 142.953 129.631 144.696 126.962 147.356C125.585 148.728 123.953 150.372 122.065 152.286C120.428 153.944 118.858 155.729 117.355 157.641C116.156 159.167 115.095 160.673 114.174 162.16C113.85 162.684 113.584 163.18 113.379 163.647C113.283 163.868 113.1 164.042 112.884 163.877C112.639 163.692 112.622 163.09 112.643 162.798C112.709 161.897 113.048 161.012 113.443 160.222C113.698 159.71 113.956 159.241 114.217 158.815C115.171 157.256 116.27 155.746 117.498 154.337C118.517 153.169 119.397 152.213 120.139 151.472C121.627 149.984 122.754 148.876 123.519 148.147C124.328 147.376 125.258 146.51 126.308 145.55C126.313 145.545 126.317 145.537 126.318 145.529C126.318 145.521 126.316 145.513 126.311 145.507Z" fill="white"/>
<path d="M126.311 145.507L126.31 145.506C126.305 145.5 126.298 145.496 126.29 145.495C126.282 145.494 126.274 145.495 126.267 145.5C125.409 146.107 124.294 146.871 122.923 147.793C120.967 149.109 118.901 150.424 116.727 151.738C116.522 151.862 115.954 152.168 115.023 152.655C114.162 153.107 113.304 153.452 112.448 153.69C111.85 153.855 111.262 153.92 110.682 153.882C108.946 153.771 110.45 151.255 110.879 150.539C111.593 149.347 112.497 148.031 113.59 146.591C115.592 143.955 117.163 141.873 118.303 140.346C119.443 138.821 120.423 137.427 121.243 136.165C121.44 135.862 121.592 135.59 121.698 135.349C121.701 135.342 121.702 135.335 121.702 135.328C121.701 135.32 121.699 135.313 121.696 135.307C121.693 135.3 121.688 135.295 121.682 135.29C121.676 135.286 121.669 135.283 121.662 135.281C120.044 134.964 118.629 134.839 116.682 134.702C115.468 134.616 114.335 134.586 113.283 134.614C110.833 134.678 108.399 134.954 105.983 135.442C104.892 135.662 103.671 135.985 102.619 136.348C98.1837 137.877 94.2928 140.246 90.9469 143.457C90.0582 144.309 89.2394 145.269 88.4905 146.336C87.4099 147.877 86.6956 149.552 86.3477 151.362C86.2078 152.09 86.1767 152.862 86.2545 153.676C86.3772 154.97 86.7385 156.116 87.3383 157.114C87.8433 157.954 88.5123 158.643 89.3452 159.183C89.5857 159.338 89.3637 159.623 89.1378 159.569C89.0209 159.54 88.899 159.482 88.772 159.395C87.0859 158.233 86.0663 156.468 85.5903 154.522C85.0347 152.25 85.4094 149.732 86.3582 147.573C87.1279 145.822 88.1502 144.244 89.4249 142.84C91.1889 140.898 93.239 139.27 95.575 137.958C97.2909 136.994 99.0008 136.232 100.705 135.674C102.636 135.041 104.599 134.596 106.594 134.337C109.996 133.896 113.436 133.778 116.953 134.036C118.679 134.163 120.344 134.353 121.947 134.606C121.956 134.607 121.965 134.606 121.972 134.601C121.979 134.597 121.985 134.59 121.988 134.581C122.128 134.193 122.19 133.808 122.175 133.425C122.174 133.411 122.177 133.397 122.184 133.384C122.19 133.371 122.199 133.36 122.211 133.352C122.327 133.27 122.427 133.249 122.511 133.29C123.079 133.568 123.328 134.209 123.336 134.826C123.336 134.843 123.342 134.86 123.353 134.873C123.364 134.887 123.38 134.896 123.397 134.9C124.722 135.196 125.957 135.509 127.08 136.178C127.254 136.282 127.405 136.402 127.534 136.539C127.551 136.558 127.564 136.58 127.57 136.603C127.586 136.669 127.588 136.719 127.575 136.754C127.567 136.774 127.555 136.793 127.539 136.809C127.523 136.824 127.505 136.837 127.484 136.845C127.463 136.853 127.441 136.856 127.419 136.855C127.397 136.854 127.375 136.848 127.355 136.838C126.844 136.586 126.321 136.377 125.786 136.21C124.902 135.936 124.092 135.722 123.355 135.568C123.348 135.566 123.34 135.566 123.333 135.567C123.326 135.569 123.319 135.571 123.312 135.575C123.306 135.579 123.301 135.585 123.297 135.591C123.293 135.597 123.29 135.603 123.288 135.611C123.052 136.76 122.479 137.666 121.791 138.703C120.313 140.93 118.967 142.809 117.751 144.342C115.817 146.779 114.753 148.121 114.558 148.369C113.774 149.366 113.19 150.129 112.806 150.658C112.455 151.14 112.17 151.589 111.951 152.004C111.855 152.186 111.788 152.385 111.75 152.6C111.53 153.861 114.681 152.221 115.218 151.953C115.861 151.631 116.716 151.138 117.784 150.472C121.095 148.407 124.245 146.127 127.513 143.716C130.444 141.553 132.898 139.759 135.689 138.01C135.8 137.941 136.267 137.677 137.092 137.219C137.552 136.964 138.03 136.72 138.527 136.487C140.243 135.684 142.008 135 143.821 134.435C144.12 134.342 144.784 134.17 145.811 133.92C147.045 133.618 148.241 133.453 149.397 133.423C149.927 133.409 150.503 133.443 151.126 133.525C152.742 133.737 153.937 134.581 154.801 135.898C154.995 136.194 155.128 136.447 155.199 136.655C155.269 136.858 155.058 136.975 154.9 136.847C154.593 136.602 154.266 136.274 153.933 136.04C153.139 135.483 152.27 135.084 151.326 134.842C150.455 134.62 149.422 134.489 148.449 134.534C146.33 134.633 144.267 135.167 142.266 135.887C141.578 136.135 140.88 136.476 140.279 136.728C139.79 136.932 139.357 137.145 138.98 137.365C138.385 137.712 137.867 137.959 137.295 138.309C136.036 139.081 134.826 139.967 133.665 140.967C131.359 142.953 129.631 144.696 126.962 147.356C125.585 148.728 123.953 150.372 122.065 152.286C120.428 153.944 118.858 155.729 117.355 157.641C116.156 159.167 115.095 160.673 114.174 162.16C113.85 162.684 113.584 163.18 113.379 163.647C113.283 163.868 113.1 164.042 112.884 163.877C112.639 163.692 112.622 163.09 112.643 162.798C112.709 161.897 113.048 161.012 113.443 160.222C113.698 159.71 113.956 159.241 114.217 158.815C115.171 157.256 116.27 155.746 117.498 154.337C118.517 153.169 119.397 152.213 120.139 151.472C121.627 149.984 122.754 148.876 123.519 148.147C124.328 147.376 125.258 146.51 126.308 145.55C126.313 145.545 126.317 145.537 126.318 145.529C126.318 145.521 126.316 145.513 126.311 145.507Z" fill="url(#paint1_linear_188_599)"/>
<path d="M138.441 157.076L138.44 157.075C138.436 157.071 138.432 157.068 138.427 157.067C138.423 157.065 138.418 157.064 138.413 157.064C138.408 157.064 138.403 157.066 138.398 157.068C138.393 157.07 138.389 157.073 138.386 157.077C138.209 157.282 138.022 157.472 137.826 157.649C137.355 158.07 136.723 158.633 135.93 159.337C134.9 160.25 133.841 161.054 132.754 161.749C132.045 162.201 131.161 162.534 130.276 162.526C130.012 162.524 129.808 162.481 129.665 162.397C129.139 162.088 128.921 161.272 129.576 160.936C129.619 160.914 129.667 160.903 129.715 160.905C129.764 160.906 129.811 160.92 129.852 160.945C130.212 161.165 130.5 161.369 130.875 161.4C131.72 161.471 132.625 161.018 133.293 160.589C135.195 159.367 136.857 157.888 138.437 156.282C139.133 155.575 139.713 154.934 140.177 154.361C140.749 153.653 141.38 152.803 142.069 151.811C142.265 151.527 142.443 151.209 142.603 150.856C142.842 150.327 142.895 149.727 142.184 149.616C141.711 149.543 141.063 149.848 140.619 150.115C140.057 150.454 139.607 150.765 139.268 151.047C138.564 151.635 137.978 152.107 137.374 152.679C136.37 153.628 135.677 154.302 135.294 154.7C134.732 155.285 134.35 155.703 133.964 155.956C133.941 155.972 133.921 155.993 133.907 156.017C133.691 156.376 133.366 156.614 133.045 156.909C131.552 158.279 129.927 159.545 128.168 160.707C127.429 161.196 126.709 161.597 126.006 161.912C125.019 162.354 123.983 162.589 122.903 162.491C122.728 162.475 122.489 162.411 122.185 162.301C121.278 161.972 120.872 161.087 120.971 160.174C121.086 159.109 121.554 158.082 122.134 157.174C123.178 155.545 124.497 154.095 126.09 152.825C127.297 151.862 128.584 151.006 129.949 150.258C131.191 149.576 132.561 148.949 133.972 148.847C134.132 148.835 134.329 148.857 134.564 148.911C135.368 149.1 135.495 149.989 135.228 150.652C134.822 151.659 133.981 152.475 133.066 153.048C131.745 153.872 130.328 154.401 128.813 154.634C128.42 154.694 127.894 154.708 127.235 154.676C127.221 154.675 127.207 154.677 127.195 154.682C127.182 154.687 127.17 154.694 127.161 154.704C126.622 155.223 125.941 155.951 125.119 156.887C124.331 157.783 123.685 158.663 123.182 159.526C122.889 160.029 122.555 160.814 122.696 161.354C122.8 161.758 123.096 161.965 123.583 161.976C124.361 161.992 125.11 161.767 125.803 161.437C126.743 160.987 127.553 160.527 128.233 160.056C129.824 158.954 131.475 157.643 133.186 156.123C133.565 155.786 133.934 155.43 134.293 155.055C135.944 153.324 137.622 151.598 139.551 150.174C140.472 149.494 141.539 148.915 142.676 148.852C143.698 148.797 144.449 149.34 144.275 150.445C144.217 150.81 144.03 151.322 143.836 151.693C143.502 152.33 143.11 152.934 142.66 153.505C142.656 153.511 142.653 153.519 142.654 153.527C142.655 153.535 142.658 153.542 142.664 153.548L142.665 153.548C142.671 153.554 142.68 153.558 142.689 153.558C142.697 153.558 142.706 153.554 142.713 153.548C143.295 153.009 143.73 152.616 144.02 152.371C144.922 151.605 145.751 150.932 146.508 150.352C147.485 149.604 149.258 148.495 150.545 148.922C151.097 149.105 151.289 149.649 150.94 150.142C150.809 150.327 150.546 150.514 150.32 150.348C150.178 150.245 150.059 150.161 149.964 150.097C149.072 149.499 147.79 150.393 147.031 150.855C146.807 150.992 146.571 151.156 146.324 151.349C145.866 151.705 145.369 152.035 144.918 152.399C144.161 153.01 143.325 153.749 142.409 154.617C141.929 155.073 141.535 155.495 141.228 155.88C140.872 156.33 140.526 156.79 140.189 157.263C140.113 157.371 139.816 157.84 139.3 158.671C138.935 159.259 138.657 159.828 138.469 160.38C138.265 160.977 138.285 161.67 139.163 161.54C139.861 161.437 140.684 160.992 141.2 160.655C142.756 159.644 144.196 158.472 145.525 157.311C145.674 157.181 145.783 157.072 145.89 156.906C147.798 153.942 150.564 151.601 153.718 150.047C154.72 149.554 155.741 149.191 156.779 148.96C157.383 148.826 157.981 148.814 158.574 148.923C158.753 148.957 158.94 149.045 159.134 149.188C160.088 149.89 159.046 151.918 158.548 152.727C158.117 153.429 157.787 153.925 157.559 154.215C157.132 154.758 156.541 155.503 155.985 156.086C155.26 156.845 154.59 157.501 153.975 158.055C153.838 158.178 153.551 158.426 153.115 158.798C152.281 159.51 151.267 160.284 150.507 160.795C149.433 161.516 148.269 162.212 146.976 162.477C146.667 162.54 146.144 162.547 145.813 162.445C144.818 162.138 144.477 161.286 144.52 160.293C144.548 159.649 144.746 159.036 145.004 158.432C145.006 158.428 145.006 158.423 145.005 158.419C145.004 158.414 145.001 158.411 144.998 158.408C144.994 158.405 144.989 158.404 144.985 158.404C144.98 158.404 144.976 158.406 144.972 158.409C143.398 159.73 141.934 160.875 140.148 161.863C139.38 162.287 138.581 162.479 137.751 162.44C137.439 162.425 137.166 162.288 136.931 162.028C136.13 161.146 136.996 159.52 137.468 158.68C137.773 158.136 138.099 157.619 138.445 157.128C138.451 157.12 138.453 157.111 138.453 157.101C138.452 157.092 138.447 157.083 138.441 157.076ZM127.584 154.338C128.022 154.356 128.462 154.302 128.905 154.176C130.548 153.707 132.078 152.7 133.311 151.538C133.773 151.101 134.123 150.69 134.358 150.304C134.542 150.002 134.804 149.327 134.159 149.348C133.676 149.364 133.218 149.621 132.804 149.899C132.327 150.22 131.925 150.505 131.598 150.756C130.176 151.85 128.832 153.031 127.568 154.299C127.565 154.303 127.563 154.307 127.562 154.311C127.561 154.315 127.562 154.32 127.564 154.324C127.565 154.328 127.568 154.332 127.572 154.334C127.575 154.337 127.58 154.338 127.584 154.338ZM145.876 161.781C147.002 162.906 150.485 159.738 151.354 158.944C153.317 157.153 155.206 155.179 157.021 153.025C157.495 152.462 157.918 151.885 158.292 151.293C158.557 150.873 159.227 149.526 158.32 149.399C157.732 149.316 157.153 149.562 156.656 149.831C156.11 150.127 155.559 150.498 155.004 150.944C152.573 152.898 150.356 155.002 148.354 157.258C148 157.657 147.652 158.073 147.31 158.506C146.65 159.341 146.164 159.922 145.84 160.713C145.725 160.996 145.628 161.534 145.876 161.781Z" fill="white"/>
<path d="M138.441 157.076L138.44 157.075C138.436 157.071 138.432 157.068 138.427 157.067C138.423 157.065 138.418 157.064 138.413 157.064C138.408 157.064 138.403 157.066 138.398 157.068C138.393 157.07 138.389 157.073 138.386 157.077C138.209 157.282 138.022 157.472 137.826 157.649C137.355 158.07 136.723 158.633 135.93 159.337C134.9 160.25 133.841 161.054 132.754 161.749C132.045 162.201 131.161 162.534 130.276 162.526C130.012 162.524 129.808 162.481 129.665 162.397C129.139 162.088 128.921 161.272 129.576 160.936C129.619 160.914 129.667 160.903 129.715 160.905C129.764 160.906 129.811 160.92 129.852 160.945C130.212 161.165 130.5 161.369 130.875 161.4C131.72 161.471 132.625 161.018 133.293 160.589C135.195 159.367 136.857 157.888 138.437 156.282C139.133 155.575 139.713 154.934 140.177 154.361C140.749 153.653 141.38 152.803 142.069 151.811C142.265 151.527 142.443 151.209 142.603 150.856C142.842 150.327 142.895 149.727 142.184 149.616C141.711 149.543 141.063 149.848 140.619 150.115C140.057 150.454 139.607 150.765 139.268 151.047C138.564 151.635 137.978 152.107 137.374 152.679C136.37 153.628 135.677 154.302 135.294 154.7C134.732 155.285 134.35 155.703 133.964 155.956C133.941 155.972 133.921 155.993 133.907 156.017C133.691 156.376 133.366 156.614 133.045 156.909C131.552 158.279 129.927 159.545 128.168 160.707C127.429 161.196 126.709 161.597 126.006 161.912C125.019 162.354 123.983 162.589 122.903 162.491C122.728 162.475 122.489 162.411 122.185 162.301C121.278 161.972 120.872 161.087 120.971 160.174C121.086 159.109 121.554 158.082 122.134 157.174C123.178 155.545 124.497 154.095 126.09 152.825C127.297 151.862 128.584 151.006 129.949 150.258C131.191 149.576 132.561 148.949 133.972 148.847C134.132 148.835 134.329 148.857 134.564 148.911C135.368 149.1 135.495 149.989 135.228 150.652C134.822 151.659 133.981 152.475 133.066 153.048C131.745 153.872 130.328 154.401 128.813 154.634C128.42 154.694 127.894 154.708 127.235 154.676C127.221 154.675 127.207 154.677 127.195 154.682C127.182 154.687 127.17 154.694 127.161 154.704C126.622 155.223 125.941 155.951 125.119 156.887C124.331 157.783 123.685 158.663 123.182 159.526C122.889 160.029 122.555 160.814 122.696 161.354C122.8 161.758 123.096 161.965 123.583 161.976C124.361 161.992 125.11 161.767 125.803 161.437C126.743 160.987 127.553 160.527 128.233 160.056C129.824 158.954 131.475 157.643 133.186 156.123C133.565 155.786 133.934 155.43 134.293 155.055C135.944 153.324 137.622 151.598 139.551 150.174C140.472 149.494 141.539 148.915 142.676 148.852C143.698 148.797 144.449 149.34 144.275 150.445C144.217 150.81 144.03 151.322 143.836 151.693C143.502 152.33 143.11 152.934 142.66 153.505C142.656 153.511 142.653 153.519 142.654 153.527C142.655 153.535 142.658 153.542 142.664 153.548L142.665 153.548C142.671 153.554 142.68 153.558 142.689 153.558C142.697 153.558 142.706 153.554 142.713 153.548C143.295 153.009 143.73 152.616 144.02 152.371C144.922 151.605 145.751 150.932 146.508 150.352C147.485 149.604 149.258 148.495 150.545 148.922C151.097 149.105 151.289 149.649 150.94 150.142C150.809 150.327 150.546 150.514 150.32 150.348C150.178 150.245 150.059 150.161 149.964 150.097C149.072 149.499 147.79 150.393 147.031 150.855C146.807 150.992 146.571 151.156 146.324 151.349C145.866 151.705 145.369 152.035 144.918 152.399C144.161 153.01 143.325 153.749 142.409 154.617C141.929 155.073 141.535 155.495 141.228 155.88C140.872 156.33 140.526 156.79 140.189 157.263C140.113 157.371 139.816 157.84 139.3 158.671C138.935 159.259 138.657 159.828 138.469 160.38C138.265 160.977 138.285 161.67 139.163 161.54C139.861 161.437 140.684 160.992 141.2 160.655C142.756 159.644 144.196 158.472 145.525 157.311C145.674 157.181 145.783 157.072 145.89 156.906C147.798 153.942 150.564 151.601 153.718 150.047C154.72 149.554 155.741 149.191 156.779 148.96C157.383 148.826 157.981 148.814 158.574 148.923C158.753 148.957 158.94 149.045 159.134 149.188C160.088 149.89 159.046 151.918 158.548 152.727C158.117 153.429 157.787 153.925 157.559 154.215C157.132 154.758 156.541 155.503 155.985 156.086C155.26 156.845 154.59 157.501 153.975 158.055C153.838 158.178 153.551 158.426 153.115 158.798C152.281 159.51 151.267 160.284 150.507 160.795C149.433 161.516 148.269 162.212 146.976 162.477C146.667 162.54 146.144 162.547 145.813 162.445C144.818 162.138 144.477 161.286 144.52 160.293C144.548 159.649 144.746 159.036 145.004 158.432C145.006 158.428 145.006 158.423 145.005 158.419C145.004 158.414 145.001 158.411 144.998 158.408C144.994 158.405 144.989 158.404 144.985 158.404C144.98 158.404 144.976 158.406 144.972 158.409C143.398 159.73 141.934 160.875 140.148 161.863C139.38 162.287 138.581 162.479 137.751 162.44C137.439 162.425 137.166 162.288 136.931 162.028C136.13 161.146 136.996 159.52 137.468 158.68C137.773 158.136 138.099 157.619 138.445 157.128C138.451 157.12 138.453 157.111 138.453 157.101C138.452 157.092 138.447 157.083 138.441 157.076ZM127.584 154.338C128.022 154.356 128.462 154.302 128.905 154.176C130.548 153.707 132.078 152.7 133.311 151.538C133.773 151.101 134.123 150.69 134.358 150.304C134.542 150.002 134.804 149.327 134.159 149.348C133.676 149.364 133.218 149.621 132.804 149.899C132.327 150.22 131.925 150.505 131.598 150.756C130.176 151.85 128.832 153.031 127.568 154.299C127.565 154.303 127.563 154.307 127.562 154.311C127.561 154.315 127.562 154.32 127.564 154.324C127.565 154.328 127.568 154.332 127.572 154.334C127.575 154.337 127.58 154.338 127.584 154.338ZM145.876 161.781C147.002 162.906 150.485 159.738 151.354 158.944C153.317 157.153 155.206 155.179 157.021 153.025C157.495 152.462 157.918 151.885 158.292 151.293C158.557 150.873 159.227 149.526 158.32 149.399C157.732 149.316 157.153 149.562 156.656 149.831C156.11 150.127 155.559 150.498 155.004 150.944C152.573 152.898 150.356 155.002 148.354 157.258C148 157.657 147.652 158.073 147.31 158.506C146.65 159.341 146.164 159.922 145.84 160.713C145.725 160.996 145.628 161.534 145.876 161.781Z" fill="url(#paint2_linear_188_599)"/>
<path d="M116.214 183.943L117.298 179.259L113.664 176.109L118.464 175.693L120.331 171.276L122.198 175.693L126.998 176.109L123.364 179.259L124.448 183.943L120.331 181.459L116.214 183.943Z" fill="white"/>
<path d="M116.214 183.943L117.298 179.259L113.664 176.109L118.464 175.693L120.331 171.276L122.198 175.693L126.998 176.109L123.364 179.259L124.448 183.943L120.331 181.459L116.214 183.943Z" fill="url(#paint3_linear_188_599)"/>
<path d="M132.214 183.943L133.298 179.259L129.664 176.109L134.464 175.693L136.331 171.276L138.198 175.693L142.998 176.109L139.364 179.259L140.448 183.943L136.331 181.459L132.214 183.943Z" fill="white"/>
<path d="M132.214 183.943L133.298 179.259L129.664 176.109L134.464 175.693L136.331 171.276L138.198 175.693L142.998 176.109L139.364 179.259L140.448 183.943L136.331 181.459L132.214 183.943Z" fill="url(#paint4_linear_188_599)"/>
<path d="M148.214 183.943L149.298 179.259L145.664 176.109L150.464 175.693L152.331 171.276L154.198 175.693L158.998 176.109L155.364 179.259L156.448 183.943L152.331 181.459L148.214 183.943Z" fill="white"/>
<path d="M148.214 183.943L149.298 179.259L145.664 176.109L150.464 175.693L152.331 171.276L154.198 175.693L158.998 176.109L155.364 179.259L156.448 183.943L152.331 181.459L148.214 183.943Z" fill="url(#paint5_linear_188_599)"/>
<path d="M164.214 183.943L165.298 179.259L161.664 176.109L166.464 175.693L168.331 171.276L170.198 175.693L174.998 176.109L171.364 179.259L172.448 183.943L168.331 181.459L164.214 183.943Z" fill="white"/>
<path d="M164.214 183.943L165.298 179.259L161.664 176.109L166.464 175.693L168.331 171.276L170.198 175.693L174.998 176.109L171.364 179.259L172.448 183.943L168.331 181.459L164.214 183.943Z" fill="url(#paint6_linear_188_599)"/>
<defs>
<linearGradient id="paint0_linear_188_599" x1="210.125" y1="127.942" x2="185.667" y2="199.547" gradientUnits="userSpaceOnUse">
<stop stop-color="#D4BC85"/>
<stop offset="0.115385" stop-color="#CFAB81"/>
<stop offset="0.304002" stop-color="#FFF0D7"/>
<stop offset="0.525532" stop-color="#D9B26A"/>
<stop offset="1" stop-color="#FFEACA"/>
</linearGradient>
<linearGradient id="paint1_linear_188_599" x1="210.125" y1="127.942" x2="185.667" y2="199.547" gradientUnits="userSpaceOnUse">
<stop stop-color="#D4BC85"/>
<stop offset="0.115385" stop-color="#CFAB81"/>
<stop offset="0.304002" stop-color="#FFF0D7"/>
<stop offset="0.525532" stop-color="#D9B26A"/>
<stop offset="1" stop-color="#FFEACA"/>
</linearGradient>
<linearGradient id="paint2_linear_188_599" x1="210.125" y1="127.942" x2="185.667" y2="199.547" gradientUnits="userSpaceOnUse">
<stop stop-color="#D4BC85"/>
<stop offset="0.115385" stop-color="#CFAB81"/>
<stop offset="0.304002" stop-color="#FFF0D7"/>
<stop offset="0.525532" stop-color="#D9B26A"/>
<stop offset="1" stop-color="#FFEACA"/>
</linearGradient>
<linearGradient id="paint3_linear_188_599" x1="126.563" y1="171.276" x2="112.655" y2="183.237" gradientUnits="userSpaceOnUse">
<stop stop-color="#D4BC85"/>
<stop offset="0.115385" stop-color="#CFAB81"/>
<stop offset="0.304002" stop-color="#FFF0D7"/>
<stop offset="0.525532" stop-color="#D9B26A"/>
<stop offset="1" stop-color="#FFEACA"/>
</linearGradient>
<linearGradient id="paint4_linear_188_599" x1="142.563" y1="171.276" x2="128.655" y2="183.237" gradientUnits="userSpaceOnUse">
<stop stop-color="#D4BC85"/>
<stop offset="0.115385" stop-color="#CFAB81"/>
<stop offset="0.304002" stop-color="#FFF0D7"/>
<stop offset="0.525532" stop-color="#D9B26A"/>
<stop offset="1" stop-color="#FFEACA"/>
</linearGradient>
<linearGradient id="paint5_linear_188_599" x1="158.563" y1="171.276" x2="144.655" y2="183.237" gradientUnits="userSpaceOnUse">
<stop stop-color="#D4BC85"/>
<stop offset="0.115385" stop-color="#CFAB81"/>
<stop offset="0.304002" stop-color="#FFF0D7"/>
<stop offset="0.525532" stop-color="#D9B26A"/>
<stop offset="1" stop-color="#FFEACA"/>
</linearGradient>
<linearGradient id="paint6_linear_188_599" x1="174.563" y1="171.276" x2="160.655" y2="183.237" gradientUnits="userSpaceOnUse">
<stop stop-color="#D4BC85"/>
<stop offset="0.115385" stop-color="#CFAB81"/>
<stop offset="0.304002" stop-color="#FFF0D7"/>
<stop offset="0.525532" stop-color="#D9B26A"/>
<stop offset="1" stop-color="#FFEACA"/>
</linearGradient>
</defs>
</svg>

