<svg width="24" height="24" viewBox="0 0 24 24" fill="none" xmlns="http://www.w3.org/2000/svg">
<path d="M7.09982 6H16.8998C16.7515 5.27494 16.4441 4.59185 15.9998 4H7.99982C7.5555 4.59185 7.24811 5.27494 7.09982 6ZM16.8998 8H7.09982C7.3313 9.12864 7.94531 10.1428 8.83809 10.871C9.73087 11.5993 10.8477 11.997 11.9998 11.997C13.152 11.997 14.2688 11.5993 15.1615 10.871C16.0543 10.1428 16.6683 9.12864 16.8998 8ZM10.9998 20V13.93C9.70806 13.7431 8.49426 13.1989 7.4954 12.3587C6.49654 11.5186 5.75239 10.416 5.34692 9.17535C4.94146 7.93473 4.89082 6.60547 5.20073 5.33759C5.51065 4.06971 6.16876 2.91369 7.10082 2L16.8988 2C17.8309 2.91369 18.489 4.06971 18.7989 5.33759C19.1088 6.60547 19.0582 7.93473 18.6527 9.17535C18.2472 10.416 17.5031 11.5186 16.5042 12.3587C15.5054 13.1989 14.2916 13.7431 12.9998 13.93V20H14.9998C15.265 20 15.5194 20.1054 15.7069 20.2929C15.8945 20.4804 15.9998 20.7348 15.9998 21C15.9998 21.2652 15.8945 21.5196 15.7069 21.7071C15.5194 21.8946 15.265 22 14.9998 22H8.99982C8.7346 22 8.48025 21.8946 8.29271 21.7071C8.10517 21.5196 7.99982 21.2652 7.99982 21C7.99982 20.7348 8.10517 20.4804 8.29271 20.2929C8.48025 20.1054 8.7346 20 8.99982 20H10.9998Z" fill="#B2B2B2"/>
</svg>
